{
.appVersion = "1075";
classes = (
{
automatic = 1;

glyphs = (
{
glyphname = A;
lastChange = "2017-11-28 09:38:30 +0000";
layers = (
{
anchors = (
{
name = bottom;
position = "{358, 0}";
},
{
name = ogonek;
position = "{688, 10}";
},
{
name = top;
position = "{412, 705}";
}
);
background = {
paths = (
{
closed = 1;
nodes = (
"423 577 LINE",
"385 577 LINE",
"588 0 LINE",
"747 0 LINE",
"477 705 LINE",
"348 705 LINE",
"-32 0 LINE",
"130 0 LINE"
);
},
{
closed = 1;
nodes = (
"602 154 LINE",
"551 276 LINE",
"199 276 LINE",
"128 154 LINE"
);
}
);
};
layerId = "E1B555A7-F4E1-459C-9C1A-AE952106EEF9";
paths = (
{
closed = 1;
nodes = (
"425 577 LINE",
"387 577 LINE",
"591 0 LINE",
"747 0 LINE",
"477 705 LINE",
"348 705 LINE",
"-32 0 LINE",
"133 0 LINE"
);
},
{
closed = 1;
nodes = (
"602 154 LINE",
"551 276 LINE",
"199 276 LINE",
"128 154 LINE"
);
}
);
width = 753;
}
);
leftKerningGroup = A;
rightKerningGroup = A;
unicode = 0041;
userData = {
anchors = (
);
b = {
};
com.typemytype.robofont.layerData = {
b = {
anchors = (
);
components = (
);
contours = (
{
points = (
{
segmentType = line;
smooth = 0;
x = 403;
y = 502;
},
{
segmentType = line;
smooth = 0;
x = 703;
y = 1275;
},
{
segmentType = line;
smooth = 0;
x = 705;
y = 1275;
},
{
segmentType = line;
smooth = 0;
x = 1004;
y = 502;
}
);
},
{
points = (
{
segmentType = curve;
smooth = 1;
x = 150;
y = 0;
},
{
smooth = 0;
x = 181;
y = 0;
},
{
smooth = 0;
x = 214;
y = 15;
},
{
segmentType = curve;
smooth = 1;
x = 229;
y = 53;
},
{
segmentType = line;
smooth = 0;
x = 356;
y = 373;
},
{
segmentType = line;
smooth = 0;
x = 1051;
y = 373;
},
{
segmentType = line;
smooth = 1;
x = 1179;
y = 53;
},
{
smooth = 0;
x = 1193;
y = 17;
},
{
smooth = 0;
x = 1228;
y = 0;
},
{
segmentType = curve;
smooth = 1;
x = 1260;
y = 0;
},
{
smooth = 0;
x = 1306;
y = 0;
},
{
smooth = 0;
x = 1354;
y = 31;
},
{
segmentType = curve;
smooth = 1;
x = 1354;
y = 80;
},
{
smooth = 0;
x = 1354;
y = 87;
},
{
smooth = 0;
x = 1352;
y = 97;
},
{
segmentType = curve;
smooth = 0;
x = 1349;
y = 108;
},
{
segmentType = line;
smooth = 1;
x = 871;
y = 1288;
},
{
smooth = 0;
x = 817;
y = 1420;
},
{
smooth = 0;
x = 777;
y = 1430;
},
{
segmentType = curve;
smooth = 1;
x = 710;
y = 1430;
},
{
smooth = 0;
x = 644;
y = 1430;
},
{
smooth = 0;
x = 596;
y = 1413;
},
{
segmentType = curve;
smooth = 1;
x = 542;
y = 1280;
},
{
segmentType = line;
smooth = 1;
x = 66;
y = 108;
},
{
smooth = 0;
x = 62;
y = 97;
},
{
smooth = 0;
x = 60;
y = 87;
},
{
segmentType = curve;
smooth = 1;
x = 60;
y = 78;
},
{
smooth = 0;
x = 60;
y = 32;
},
{
smooth = 0;
x = 106;
y = 0;
}
);
}
);
lib = {
};
name = A;
unicodes = (
);
width = 1414;
};
};
components = (
);
contours = {
};
lib = {
};
name = A;
points = {
};
segmentType = line;
unicodes = (
);
width = 1445;
x = 718;
y = 1232;
};
},
{
glyphname = Aogonek;
lastChange = "2017-11-28 09:38:30 +0000";
layers = (
{
background = {
paths = (
{
closed = 1;
nodes = (
"425 577 LINE",
"387 577 LINE",
"591 0 LINE",
"747 0 LINE",
"477 705 LINE",
"348 705 LINE",
"-32 0 LINE",
"133 0 LINE"
);
},
{
closed = 1;
nodes = (
"602 154 LINE",
"551 276 LINE",
"199 276 LINE",
"128 154 LINE"
);
},
{
closed = 1;
nodes = (
"673 -197 OFFCURVE",
"705 -190 OFFCURVE",
"736 -177 CURVE",
"725 -105 LINE",
"703 -113 OFFCURVE",
"685 -117 OFFCURVE",
"668 -117 CURVE SMOOTH",
"636 -117 OFFCURVE",
"615 -99 OFFCURVE",
"615 -67 CURVE SMOOTH",
"615 -35 OFFCURVE",
"637 -5 OFFCURVE",
"690 10 CURVE",
"676 46 LINE",
"570 32 OFFCURVE",
"514 -21 OFFCURVE",
"514 -91 CURVE SMOOTH",
"514 -153 OFFCURVE",
"563 -197 OFFCURVE",
"641 -197 CURVE SMOOTH"
);
}
);
};
layerId = "E1B555A7-F4E1-459C-9C1A-AE952106EEF9";
paths = (
{
closed = 1;
nodes = (
"602 154 LINE",
"551 276 LINE",
"199 276 LINE",
"128 154 LINE"
);
},
{
closed = 1;
nodes = (
"703 -113 OFFCURVE",
"685 -117 OFFCURVE",
"668 -117 CURVE SMOOTH",
"636 -117 OFFCURVE",
"615 -99 OFFCURVE",
"615 -67 CURVE SMOOTH",
"615 -30 OFFCURVE",
"649 0 OFFCURVE",
"694 0 CURVE SMOOTH",
"747 0 LINE",
"477 705 LINE",
"348 705 LINE",
"-32 0 LINE",
"133 0 LINE",
"425 577 LINE",
"387 577 LINE",
"591 0 LINE",
"612 33 LINE",
"553 11 OFFCURVE",
"514 -29 OFFCURVE",
"514 -91 CURVE SMOOTH",
"514 -153 OFFCURVE",
"563 -197 OFFCURVE",
"641 -197 CURVE SMOOTH",
"673 -197 OFFCURVE",
"705 -190 OFFCURVE",
"736 -177 CURVE",
"725 -105 LINE"
);
}
);
width = 753;
}
);
leftKerningGroup = A;
rightKerningGroup = A;
unicode = 0104;
},
{
glyphname = Aring;
lastChange = "2017-11-28 09:38:30 +0000";
layers = (
{
background = {
paths = (
{
closed = 1;
nodes = (
"130 0 LINE",
"423 577 LINE",
"385 577 LINE",
"588 0 LINE",
"747 0 LINE",
"477 705 LINE",
"348 705 LINE",
"-32 0 LINE"
);
},
{
closed = 1;
nodes = (
"602 154 LINE",
"551 276 LINE",
"199 276 LINE",
"128 154 LINE"
);
},
{
closed = 1;
nodes = (
"472 670 OFFCURVE",
"524 717 OFFCURVE",
"529 778 CURVE SMOOTH",
"534 839 OFFCURVE",
"489 886 OFFCURVE",
"428 886 CURVE SMOOTH",
"367 886 OFFCURVE",
"314 839 OFFCURVE",
"309 778 CURVE SMOOTH",
"304 717 OFFCURVE",
"350 670 OFFCURVE",
"411 670 CURVE SMOOTH"
);
},
{
closed = 1;
nodes = (
"391 733 OFFCURVE",
"374 753 OFFCURVE",
"376 778 CURVE SMOOTH",
"378 803 OFFCURVE",
"398 823 OFFCURVE",
"423 823 CURVE SMOOTH",
"448 823 OFFCURVE",
"464 803 OFFCURVE",
"462 778 CURVE SMOOTH",
"460 753 OFFCURVE",
"441 733 OFFCURVE",
"416 733 CURVE SMOOTH"
);
}
);
};
layerId = "E1B555A7-F4E1-459C-9C1A-AE952106EEF9";
paths = (
{
closed = 1;
nodes = (
"133 0 LINE",
"425 577 LINE",
"387 577 LINE",
"591 0 LINE",
"747 0 LINE",
"477 705 LINE",
"348 705 LINE",
"-32 0 LINE"
);
},
{
closed = 1;
nodes = (
"602 154 LINE",
"551 276 LINE",
"199 276 LINE",
"128 154 LINE"
);
},
{
closed = 1;
nodes = (
"480 670 OFFCURVE",
"529 717 OFFCURVE",
"529 778 CURVE SMOOTH",
"529 839 OFFCURVE",
"480 886 OFFCURVE",
"419 886 CURVE SMOOTH",
"358 886 OFFCURVE",
"309 839 OFFCURVE",
"309 778 CURVE SMOOTH",
"309 717 OFFCURVE",
"358 670 OFFCURVE",
"419 670 CURVE SMOOTH"
);
},
{
closed = 1;
nodes = (
"394 733 OFFCURVE",
"376 753 OFFCURVE",
"376 778 CURVE SMOOTH",
"376 803 OFFCURVE",
"394 823 OFFCURVE",
"419 823 CURVE SMOOTH",
"444 823 OFFCURVE",
"462 803 OFFCURVE",
"462 778 CURVE SMOOTH",
"462 753 OFFCURVE",
"444 733 OFFCURVE",
"419 733 CURVE SMOOTH"
);
}
);
width = 753;
}
);
leftKerningGroup = A;
rightKerningGroup = A;
unicode = 00C5;
},
{
glyphname = Aringacute;
lastChange = "2017-11-28 09:38:30 +0000";
layers = (
{
background = {
paths = (
{
closed = 1;
nodes = (
"149 0 LINE",
"442 577 LINE",
"404 577 LINE",
"607 0 LINE",
"766 0 LINE",
"496 705 LINE",
"367 705 LINE",
"-13 0 LINE"
);
},
{
closed = 1;
nodes = (
"621 154 LINE",
"570 276 LINE",
"218 276 LINE",
"147 154 LINE"
);
},
{
closed = 1;
nodes = (
"491 670 OFFCURVE",
"543 717 OFFCURVE",
"548 778 CURVE SMOOTH",
"553 839 OFFCURVE",
"508 886 OFFCURVE",
"447 886 CURVE SMOOTH",
"386 886 OFFCURVE",
"333 839 OFFCURVE",
"328 778 CURVE SMOOTH",
"323 717 OFFCURVE",
"369 670 OFFCURVE",
"430 670 CURVE SMOOTH"
);
},
{
closed = 1;
nodes = (
"410 733 OFFCURVE",
"393 753 OFFCURVE",
"395 778 CURVE SMOOTH",
"397 803 OFFCURVE",
"417 823 OFFCURVE",
"442 823 CURVE SMOOTH",
"467 823 OFFCURVE",
"483 803 OFFCURVE",
"481 778 CURVE SMOOTH",
"479 753 OFFCURVE",
"460 733 OFFCURVE",
"435 733 CURVE SMOOTH"
);
},
{
closed = 1;
nodes = (
"703 946 LINE",
"560 946 LINE",
"475 859 LINE",
"534 814 LINE"
);
}
);
};
layerId = "E1B555A7-F4E1-459C-9C1A-AE952106EEF9";
paths = (
{
closed = 1;
nodes = (
"133 0 LINE",
"425 577 LINE",
"387 577 LINE",
"591 0 LINE",
"747 0 LINE",
"477 705 LINE",
"348 705 LINE",
"-32 0 LINE"
);
},
{
closed = 1;
nodes = (
"602 154 LINE",
"551 276 LINE",
"199 276 LINE",
"128 154 LINE"
);
},
{
closed = 1;
nodes = (
"480 670 OFFCURVE",
"529 717 OFFCURVE",
"529 778 CURVE SMOOTH",
"529 839 OFFCURVE",
"480 886 OFFCURVE",
"419 886 CURVE SMOOTH",
"358 886 OFFCURVE",
"309 839 OFFCURVE",
"309 778 CURVE SMOOTH",
"309 717 OFFCURVE",
"358 670 OFFCURVE",
"419 670 CURVE SMOOTH"
);
},
{
closed = 1;
nodes = (
"394 733 OFFCURVE",
"376 753 OFFCURVE",
"376 778 CURVE SMOOTH",
"376 803 OFFCURVE",
"394 823 OFFCURVE",
"419 823 CURVE SMOOTH",
"444 823 OFFCURVE",
"462 803 OFFCURVE",
"462 778 CURVE SMOOTH",
"462 753 OFFCURVE",
"444 733 OFFCURVE",
"419 733 CURVE SMOOTH"
);
},
{
closed = 1;
nodes = (
"688 946 LINE",
"537 946 LINE",
"456 859 LINE",
"515 814 LINE"
);
}
);
width = 753;
}
);
leftKerningGroup = A;
rightKerningGroup = A;
unicode = 01FA;
},
{
glyphname = AE;
lastChange = "2017-11-28 09:38:30 +0000";
layers = (
{
anchors = (
{
name = bottom;
position = "{486, 0}";
},
{
name = top;
position = "{541, 705}";
}
);
background = {
paths = (
{
closed = 1;
nodes = (
"946 0 LINE",
"956 125 LINE",
"673 125 LINE",
"602 617 LINE",
"564 580 LINE",
"992 580 LINE",
"1001 705 LINE",
"448 705 LINE",
"-52 0 LINE",
"123 0 LINE",
"506 571 LINE",
"463 571 LINE",
"544 0 LINE"
);
},
{
closed = 1;
nodes = (
"579 154 LINE",
"553 276 LINE",
"201 276 LINE",
"129 154 LINE"
);
},
{
closed = 1;
nodes = (
"949 296 LINE",
"959 421 LINE",
"581 421 LINE",
"571 296 LINE"
);
}
);
};
layerId = "E1B555A7-F4E1-459C-9C1A-AE952106EEF9";
paths = (
{
closed = 1;
nodes = (
"946 0 LINE",
"956 125 LINE",
"673 125 LINE",
"602 617 LINE",
"564 580 LINE",
"991 580 LINE",
"1001 705 LINE",
"448 705 LINE",
"-52 0 LINE",
"126 0 LINE",
"508 571 LINE",
"464 571 LINE",
"546 0 LINE"
);
},
{
closed = 1;
nodes = (
"579 154 LINE",
"553 276 LINE",
"201 276 LINE",
"129 154 LINE"
);
},
{
closed = 1;
nodes = (
"949 296 LINE",
"959 421 LINE",
"581 421 LINE",
"571 296 LINE"
);
}
);
width = 1001;
}
);
leftKerningGroup = A;
rightKerningGroup = E;
unicode = 00C6;
userData = {
com.typemytype.robofont.layerData = {
b = {
anchors = (
);
components = (
);
contours = (
);
lib = {
};
name = AE;
unicodes = (
);
width = 1976;
};
};
};
},
{
glyphname = B;
lastChange = "2017-11-28 09:38:30 +0000";
layers = (
{
anchors = (
{
name = bottom;
position = "{330, 0}";
},
{
name = top;
position = "{385, 705}";
}
);
background = {
paths = (
{
closed = 1;
nodes = (
"388 0 LINE SMOOTH",
"541 0 OFFCURVE",
"641 74 OFFCURVE",
"650 193 CURVE SMOOTH",
"657 284 OFFCURVE",
"611 348 OFFCURVE",
"522 368 CURVE",
"521 360 LINE",
"601 383 OFFCURVE",
"652 444 OFFCURVE",
"658 522 CURVE SMOOTH",
"667 635 OFFCURVE",
"580 705 OFFCURVE",
"433 705 CURVE SMOOTH",
"105 705 LINE",
"50 0 LINE"
);
},
{
closed = 1;
nodes = (
"253 582 LINE",
"397 582 LINE SMOOTH",
"475 582 OFFCURVE",
"509 556 OFFCURVE",
"504 500 CURVE SMOOTH",
"500 446 OFFCURVE",
"462 420 OFFCURVE",
"384 420 CURVE SMOOTH",
"224 420 LINE",
"214 297 LINE",
"392 297 LINE SMOOTH",
"473 297 OFFCURVE",
"505 270 OFFCURVE",
"500 209 CURVE SMOOTH",
"496 149 OFFCURVE",
"460 123 OFFCURVE",
"379 123 CURVE SMOOTH",
"217 123 LINE"
);
}
);
};
layerId = "E1B555A7-F4E1-459C-9C1A-AE952106EEF9";
paths = (
{
closed = 1;
nodes = (
"392 0 LINE SMOOTH",
"548 0 OFFCURVE",
"651 71 OFFCURVE",
"651 201 CURVE SMOOTH",
"651 282 OFFCURVE",
"605 349 OFFCURVE",
"522 366 CURVE",
"521 358 LINE",
"614 388 OFFCURVE",
"659 445 OFFCURVE",
"659 528 CURVE SMOOTH",
"659 631 OFFCURVE",
"581 705 OFFCURVE",
"423 705 CURVE SMOOTH",
"105 705 LINE",
"50 0 LINE"
);
},
{
closed = 1;
nodes = (
"253 582 LINE",
"396 582 LINE SMOOTH",
"472 582 OFFCURVE",
"504 554 OFFCURVE",
"504 504 CURVE SMOOTH",
"504 444 OFFCURVE",
"467 420 OFFCURVE",
"384 420 CURVE SMOOTH",
"224 420 LINE",
"214 297 LINE",
"391 297 LINE SMOOTH",
"468 297 OFFCURVE",
"501 268 OFFCURVE",
"501 212 CURVE SMOOTH",
"501 147 OFFCURVE",
"463 123 OFFCURVE",
"379 123 CURVE SMOOTH",
"217 123 LINE"
);
}
);
width = 690;
}
);
leftKerningGroup = H;
rightKerningGroup = B;
unicode = 0042;
userData = {
anchors = (
);
b = {
};
com.typemytype.robofont.layerData = {
b = {
anchors = (
);
components = (
);
contours = (
{
points = (
{
segmentType = curve;
smooth = 1;
x = 266;
y = 0;
},
{
segmentType = line;
smooth = 1;
x = 1035;
y = 0;
},
{
smooth = 0;
x = 1084;
y = 0;
},
{
smooth = 0;
x = 1108;
y = 36;
},
{
segmentType = curve;
smooth = 1;
x = 1108;
y = 73;
},
{
smooth = 0;
x = 1108;
y = 109;
},
{
smooth = 0;
x = 1084;
y = 145;
},
{
segmentType = curve;
smooth = 1;
x = 1035;
y = 145;
},
{
segmentType = line;
smooth = 0;
x = 353;
y = 145;
},
{
segmentType = line;
smooth = 0;
x = 353;
y = 662;
},
{
segmentType = line;
smooth = 1;
x = 975;
y = 662;
},
{
smooth = 0;
x = 1024;
y = 662;
},
{
smooth = 0;
x = 1049;
y = 698;
},
{
segmentType = curve;
smooth = 1;
x = 1049;
y = 734;
},
{
smooth = 0;
x = 1049;
y = 770;
},
{
smooth = 0;
x = 1026;
y = 806;
},
{
segmentType = curve;
smooth = 1;
x = 975;
y = 806;
},
{
segmentType = line;
smooth = 0;
x = 353;
y = 806;
},
{
segmentType = line;
smooth = 0;
x = 353;
y = 1281;
},
{
segmentType = line;
smooth = 1;
x = 1007;
y = 1281;
},
{
smooth = 0;
x = 1056;
y = 1281;
},
{
smooth = 0;
x = 1080;
y = 1317;
},
{
segmentType = curve;
smooth = 1;
x = 1080;
y = 1354;
},
{
smooth = 0;
x = 1080;
y = 1390;
},
{
smooth = 0;
x = 1056;
y = 1426;
},
{
segmentType = curve;
smooth = 1;
x = 1007;
y = 1426;
},
{
segmentType = line;
smooth = 1;
x = 261;
y = 1426;
},
{
smooth = 0;
x = 213;
y = 1426;
},
{
smooth = 0;
x = 178;
y = 1383;
},
{
segmentType = curve;
smooth = 1;
x = 178;
y = 1340;
},
{
segmentType = line;
smooth = 1;
x = 178;
y = 86;
},
{
smooth = 0;
x = 178;
y = 41;
},
{
smooth = 0;
x = 222;
y = 0;
}
);
}
);
lib = {
};
name = B;
unicodes = (
);
width = 1292;
};
};
components = (
);
contours = {
};
lib = {
};
name = B;
points = {
};
segmentType = curve;
unicodes = (
);
width = 1395;
x = 676;
y = 1260;
};
},
{
glyphname = C;
lastChange = "2017-11-28 09:38:30 +0000";
layers = (
{
anchors = (
{
name = bottom;
position = "{376, 0}";
},
{
name = top;
position = "{431, 705}";
}
);
background = {
paths = (
{
closed = 1;
nodes = (
"475 -9 OFFCURVE",
"569 21 OFFCURVE",
"628 71 CURVE",
"586 186 LINE",
"520 140 OFFCURVE",
"459 120 OFFCURVE",
"395 120 CURVE SMOOTH",
"272 120 OFFCURVE",
"210 200 OFFCURVE",
"222 353 CURVE SMOOTH",
"234 506 OFFCURVE",
"309 585 OFFCURVE",
"432 585 CURVE SMOOTH",
"496 585 OFFCURVE",
"553 565 OFFCURVE",
"612 519 CURVE",
"672 634 LINE",
"621 684 OFFCURVE",
"532 714 OFFCURVE",
"439 714 CURVE SMOOTH",
"221 714 OFFCURVE",
"75 571 OFFCURVE",
"58 353 CURVE SMOOTH",
"41 135 OFFCURVE",
"164 -9 OFFCURVE",
"382 -9 CURVE SMOOTH"
);
},
{
closed = 1;
nodes = (
"1510 -10 OFFCURVE",
"1649 143 OFFCURVE",
"1649 376 CURVE SMOOTH",
"1649 586 OFFCURVE",
"1517 715 OFFCURVE",
"1308 715 CURVE SMOOTH",
"1096 715 OFFCURVE",
"957 562 OFFCURVE",
"957 329 CURVE SMOOTH",
"957 119 OFFCURVE",
"1089 -10 OFFCURVE",
"1298 -10 CURVE SMOOTH"
);
},
{
closed = 1;
nodes = (
"1182 116 OFFCURVE",
"1118 192 OFFCURVE",
"1118 329 CURVE SMOOTH",
"1118 491 OFFCURVE",
"1190 589 OFFCURVE",
"1310 589 CURVE SMOOTH",
"1422 589 OFFCURVE",
"1488 513 OFFCURVE",
"1488 376 CURVE SMOOTH",
"1488 212 OFFCURVE",
"1414 116 OFFCURVE",
"1297 116 CURVE SMOOTH"
);
}
);
};
layerId = "E1B555A7-F4E1-459C-9C1A-AE952106EEF9";
paths = (
{
closed = 1;
nodes = (
"485 -9 OFFCURVE",
"577 22 OFFCURVE",
"628 71 CURVE",
"586 186 LINE",
"517 141 OFFCURVE",
"456 120 OFFCURVE",
"398 120 CURVE SMOOTH",
"283 120 OFFCURVE",
"221 193 OFFCURVE",
"221 329 CURVE SMOOTH",
"221 487 OFFCURVE",
"297 585 OFFCURVE",
"434 585 CURVE SMOOTH",
"499 585 OFFCURVE",
"553 565 OFFCURVE",
"612 519 CURVE",
"672 634 LINE",
"609 686 OFFCURVE",
"523 714 OFFCURVE",
"427 714 CURVE SMOOTH",
"203 714 OFFCURVE",
"57 563 OFFCURVE",
"57 329 CURVE SMOOTH",
"57 121 OFFCURVE",
"185 -9 OFFCURVE",
"392 -9 CURVE SMOOTH"
);
}
);
width = 678;
}
);
leftKerningGroup = O;
rightKerningGroup = C;
unicode = 0043;
userData = {
anchors = (
);
b = {
};
com.typemytype.robofont.layerData = {
b = {
anchors = (
);
components = (
);
contours = (
);
lib = {
};
name = C;
unicodes = (
);
width = 1353.89001;
};
};
components = (
);
contours = (
);
lib = {
};
name = C;
unicodes = (
);
width = 1354;
};
},
{
glyphname = D;
lastChange = "2017-11-28 09:38:30 +0000";
layers = (
{
anchors = (
{
name = bottom;
position = "{363, 0}";
},
{
name = center;
position = "{391, 353}";
},
{
name = top;
position = "{418, 705}";
}
);
background = {
paths = (
{
closed = 1;
nodes = (
"1228 0 LINE SMOOTH",
"1239 -1 OFFCURVE",
"1250 -1 OFFCURVE",
"1261 -1 CURVE SMOOTH",
"1492 -1 OFFCURVE",
"1626 146 OFFCURVE",
"1626 374 CURVE SMOOTH",
"1626 572 OFFCURVE",
"1501 693 OFFCURVE",
"1283 705 CURVE SMOOTH",
"1008 720 LINE",
"953 15 LINE"
);
},
{
closed = 1;
nodes = (
"1158 581 LINE",
"1262 576 LINE SMOOTH",
"1398 569 OFFCURVE",
"1465 502 OFFCURVE",
"1465 375 CURVE SMOOTH",
"1465 213 OFFCURVE",
"1391 123 OFFCURVE",
"1227 131 CURVE SMOOTH",
"1123 136 LINE"
);
},
{
closed = 1;
nodes = (
"326 0 LINE SMOOTH",
"560 0 OFFCURVE",
"709 131 OFFCURVE",
"725 353 CURVE SMOOTH",
"726 367 OFFCURVE",
"727 380 OFFCURVE",
"727 393 CURVE SMOOTH",
"727 590 OFFCURVE",
"600 705 OFFCURVE",
"381 705 CURVE SMOOTH",
"105 705 LINE",
"50 0 LINE"
);
},
{
closed = 1;
nodes = (
"256 575 LINE",
"360 575 LINE SMOOTH",
"497 575 OFFCURVE",
"565 513 OFFCURVE",
"565 385 CURVE SMOOTH",
"565 375 OFFCURVE",
"565 364 OFFCURVE",
"564 353 CURVE SMOOTH",
"550 204 OFFCURVE",
"473 130 OFFCURVE",
"325 130 CURVE SMOOTH",
"221 130 LINE"
);
}
);
};
layerId = "E1B555A7-F4E1-459C-9C1A-AE952106EEF9";
paths = (
{
closed = 1;
nodes = (
"338 0 LINE SMOOTH",
"582 0 OFFCURVE",
"725 138 OFFCURVE",
"725 376 CURVE SMOOTH",
"725 579 OFFCURVE",
"593 705 OFFCURVE",
"380 705 CURVE SMOOTH",
"105 705 LINE",
"50 0 LINE"
);
},
{
closed = 1;
nodes = (
"256 575 LINE",
"359 575 LINE SMOOTH",
"493 575 OFFCURVE",
"564 506 OFFCURVE",
"564 377 CURVE SMOOTH",
"564 209 OFFCURVE",
"486 130 OFFCURVE",
"324 130 CURVE SMOOTH",
"221 130 LINE"
);
}
);
width = 765;
}
);
leftKerningGroup = H;
rightKerningGroup = O;
unicode = 0044;
userData = {
anchors = (
);
b = {
};
com.typemytype.robofont.layerData = {
b = {
anchors = (
);
components = (
);
contours = (
{
points = (
{
segmentType = curve;
smooth = 1;
x = 266;
y = 0;
},
{
segmentType = line;
smooth = 1;
x = 1035;
y = 0;
},
{
smooth = 0;
x = 1084;
y = 0;
},
{
smooth = 0;
x = 1108;
y = 34;
},
{
segmentType = curve;
smooth = 1;
x = 1108;
y = 71;
},
{
smooth = 0;
x = 1108;
y = 107;
},
{
smooth = 0;
x = 1084;
y = 141;
},
{
segmentType = curve;
smooth = 1;
x = 1035;
y = 141;
},
{
segmentType = line;
smooth = 0;
x = 356;
y = 141;
},
{
segmentType = line;
smooth = 0;
x = 356;
y = 665;
},
{
segmentType = line;
smooth = 1;
x = 975;
y = 665;
},
{
smooth = 0;
x = 1024;
y = 665;
},
{
smooth = 0;
x = 1049;
y = 698;
},
{
segmentType = curve;
smooth = 1;
x = 1049;
y = 734;
},
{
smooth = 0;
x = 1049;
y = 770;
},
{
smooth = 0;
x = 1026;
y = 803;
},
{
segmentType = curve;
smooth = 1;
x = 975;
y = 803;
},
{
segmentType = line;
smooth = 0;
x = 356;
y = 803;
},
{
segmentType = line;
smooth = 0;
x = 356;
y = 1285;
},
{
segmentType = line;
smooth = 1;
x = 1007;
y = 1285;
},
{
smooth = 0;
x = 1056;
y = 1285;
},
{
smooth = 0;
x = 1080;
y = 1319;
},
{
segmentType = curve;
smooth = 1;
x = 1080;
y = 1356;
},
{
smooth = 0;
x = 1080;
y = 1392;
},
{
smooth = 0;
x = 1056;
y = 1426;
},
{
segmentType = curve;
smooth = 1;
x = 1007;
y = 1426;
},
{
segmentType = line;
smooth = 1;
x = 261;
y = 1426;
},
{
smooth = 0;
x = 213;
y = 1426;
},
{
smooth = 0;
x = 178;
y = 1383;
},
{
segmentType = curve;
smooth = 1;
x = 178;
y = 1340;
},
{
segmentType = line;
smooth = 1;
x = 178;
y = 86;
},
{
smooth = 0;
x = 178;
y = 41;
},
{
smooth = 0;
x = 222;
y = 0;
}
);
}
);
lib = {
};
name = D;
unicodes = (
);
width = 1499;
};
};
components = (
);
contours = (
);
lib = {
};
name = D;
unicodes = (
);
width = 1535;
};
},
{
glyphname = Eth;
lastChange = "2017-11-28 09:38:30 +0000";
layers = (
{
background = {
paths = (
{
closed = 1;
nodes = (
"450 295 LINE",
"460 417 LINE",
"29 417 LINE",
"19 295 LINE"
);
},
{
closed = 1;
nodes = (
"357 0 LINE SMOOTH",
"591 0 OFFCURVE",
"738 131 OFFCURVE",
"756 353 CURVE SMOOTH",
"773 574 OFFCURVE",
"645 705 OFFCURVE",
"412 705 CURVE SMOOTH",
"136 705 LINE",
"81 0 LINE"
);
},
{
closed = 1;
nodes = (
"287 575 LINE",
"391 575 LINE SMOOTH",
"539 575 OFFCURVE",
"607 502 OFFCURVE",
"595 353 CURVE SMOOTH",
"583 204 OFFCURVE",
"504 130 OFFCURVE",
"356 130 CURVE SMOOTH",
"252 130 LINE"
);
}
);
};
layerId = "E1B555A7-F4E1-459C-9C1A-AE952106EEF9";
paths = (
{
closed = 1;
nodes = (
"450 295 LINE",
"460 417 LINE",
"29 417 LINE",
"19 295 LINE"
);
},
{
closed = 1;
nodes = (
"369 0 LINE SMOOTH",
"613 0 OFFCURVE",
"756 138 OFFCURVE",
"756 376 CURVE SMOOTH",
"756 579 OFFCURVE",
"624 705 OFFCURVE",
"411 705 CURVE SMOOTH",
"136 705 LINE",
"81 0 LINE"
);
},
{
closed = 1;
nodes = (
"287 575 LINE",
"390 575 LINE SMOOTH",
"524 575 OFFCURVE",
"595 506 OFFCURVE",
"595 377 CURVE SMOOTH",
"595 209 OFFCURVE",
"517 130 OFFCURVE",
"355 130 CURVE SMOOTH",
"252 130 LINE"
);
}
);
width = 796;
}
);
leftKerningGroup = H;
rightKerningGroup = O;
unicode = 00D0;
},
{
glyphname = E;
lastChange = "2017-11-28 09:38:30 +0000";
layers = (
{
anchors = (
{
name = bottom;
position = "{312, 0}";
},
{
name = ogonek;
position = "{518, 10}";
},
{
name = top;
position = "{367, 705}";
},
{
name = topleft;
position = "{57, 705}";
}
);
background = {
anchors = (
{
name = bottom;
position = "{331, 0}";
},
{
name = ogonek;
position = "{537, 10}";
},
{
name = top;
position = "{386, 705}";
},
{
name = topleft;
position = "{76, 705}";
}
);
paths = (
{
closed = 1;
nodes = (
"558 0 LINE",
"568 125 LINE",
"236 125 LINE",
"249 296 LINE",
"561 296 LINE",
"571 421 LINE",
"259 421 LINE",
"272 580 LINE",
"604 580 LINE",
"613 705 LINE",
"124 705 LINE",
"69 0 LINE"
);
}
);
};
guideLines = (
{
angle = 90;
position = "{700, 607}";
}
);
layerId = "E1B555A7-F4E1-459C-9C1A-AE952106EEF9";
paths = (
{
closed = 1;
nodes = (
"539 0 LINE",
"549 125 LINE",
"217 125 LINE",
"253 580 LINE",
"585 580 LINE",
"595 705 LINE",
"106 705 LINE",
"50 0 LINE"
);
},
{
closed = 1;
nodes = (
"542 296 LINE",
"552 421 LINE",
"224 421 LINE",
"214 296 LINE"
);
}
);
width = 594;
}
);
leftKerningGroup = H;
rightKerningGroup = E;
unicode = 0045;
userData = {
anchors = (
);
b = {
};
com.typemytype.robofont.layerData = {
b = {
anchors = (
);
components = (
);
contours = (
);
lib = {
};
name = E;
unicodes = (
);
width = 1234;
};
};
components = (
);
contours = (
);
lib = {
};
name = E;
unicodes = (
);
width = 1258;
};
},
{
glyphname = Eogonek;
lastChange = "2017-11-28 09:38:30 +0000";
layers = (
{
anchors = (
{
name = top;
position = "{367, 705}";
}
);
background = {
anchors = (
{
name = top;
position = "{386, 705}";
}
);
paths = (
{
closed = 1;
nodes = (
"501 -197 OFFCURVE",
"533 -190 OFFCURVE",
"564 -177 CURVE",
"553 -105 LINE",
"531 -113 OFFCURVE",
"513 -117 OFFCURVE",
"496 -117 CURVE SMOOTH",
"464 -117 OFFCURVE",
"443 -99 OFFCURVE",
"443 -67 CURVE SMOOTH",
"443 -35 OFFCURVE",
"465 -5 OFFCURVE",
"518 10 CURVE",
"504 46 LINE",
"398 32 OFFCURVE",
"342 -21 OFFCURVE",
"342 -91 CURVE SMOOTH",
"342 -153 OFFCURVE",
"391 -197 OFFCURVE",
"469 -197 CURVE SMOOTH"
);
}
);
};
layerId = "E1B555A7-F4E1-459C-9C1A-AE952106EEF9";
paths = (
{
closed = 1;
nodes = (
"214 296 LINE",
"542 296 LINE",
"552 421 LINE",
"224 421 LINE"
);
},
{
closed = 1;
nodes = (
"253 580 LINE",
"584 580 LINE",
"594 705 LINE",
"106 705 LINE",
"50 0 LINE",
"433 0 LINE",
"417 20 LINE",
"366 -5 OFFCURVE",
"342 -46 OFFCURVE",
"342 -91 CURVE SMOOTH",
"342 -153 OFFCURVE",
"391 -197 OFFCURVE",
"469 -197 CURVE SMOOTH",
"501 -197 OFFCURVE",
"533 -190 OFFCURVE",
"564 -177 CURVE",
"553 -105 LINE",
"531 -113 OFFCURVE",
"513 -117 OFFCURVE",
"496 -117 CURVE SMOOTH",
"464 -117 OFFCURVE",
"443 -99 OFFCURVE",
"443 -67 CURVE SMOOTH",
"443 -28 OFFCURVE",
"475 0 OFFCURVE",
"517 0 CURVE SMOOTH",
"539 0 LINE",
"549 125 LINE",
"217 125 LINE"
);
}
);
width = 594;
}
);
leftKerningGroup = H;
rightKerningGroup = E;
unicode = 0118;
userData = {
com.typemytype.robofont.layerData = {
b = {
anchors = (
);
components = (
);
contours = (
);
lib = {
};
name = Eogonek;
unicodes = (
);
width = 1234;
};
};
};
},
{
glyphname = F;
lastChange = "2017-11-28 09:38:30 +0000";
layers = (
{
anchors = (
{
name = bottom;
position = "{297, 0}";
},
{
name = top;
position = "{324, 705}";
}
);
background = {
anchors = (
{
name = bottom;
position = "{316, 0}";
},
{
name = top;
position = "{343, 705}";
}
);
paths = (
{
closed = 1;
nodes = (
"228 0 LINE",
"251 295 LINE",
"551 295 LINE",
"561 422 LINE",
"261 422 LINE",
"273 578 LINE",
"593 578 LINE",
"603 705 LINE",
"124 705 LINE",
"69 0 LINE"
);
}
);
};
layerId = "E1B555A7-F4E1-459C-9C1A-AE952106EEF9";
paths = (
{
closed = 1;
nodes = (
"216 295 LINE",
"532 295 LINE",
"542 422 LINE",
"226 422 LINE"
);
},
{
closed = 1;
nodes = (
"255 578 LINE",
"574 578 LINE",
"584 705 LINE",
"106 705 LINE",
"50 0 LINE",
"209 0 LINE"
);
}
);
width = 573;
}
);
leftKerningGroup = H;
rightKerningGroup = F;
unicode = 0046;
userData = {
anchors = (
);
b = {
};
com.typemytype.robofont.layerData = {
b = {
anchors = (
);
components = (
);
contours = (
{
points = (
{
segmentType = curve;
smooth = 1;
x = 266;
y = 0;
},
{
segmentType = line;
smooth = 1;
x = 1035;
y = 0;
},
{
smooth = 0;
x = 1084;
y = 0;
},
{
smooth = 0;
x = 1108;
y = 34;
},
{
segmentType = curve;
smooth = 1;
x = 1108;
y = 71;
},
{
smooth = 0;
x = 1108;
y = 107;
},
{
smooth = 0;
x = 1084;
y = 141;
},
{
segmentType = curve;
smooth = 1;
x = 1035;
y = 141;
},
{
segmentType = line;
smooth = 0;
x = 353;
y = 141;
},
{
segmentType = line;
smooth = 0;
x = 353;
y = 665;
},
{
segmentType = line;
smooth = 1;
x = 975;
y = 665;
},
{
smooth = 0;
x = 1024;
y = 665;
},
{
smooth = 0;
x = 1049;
y = 698;
},
{
segmentType = curve;
smooth = 1;
x = 1049;
y = 734;
},
{
smooth = 0;
x = 1049;
y = 770;
},
{
smooth = 0;
x = 1026;
y = 803;
},
{
segmentType = curve;
smooth = 1;
x = 975;
y = 803;
},
{
segmentType = line;
smooth = 0;
x = 353;
y = 803;
},
{
segmentType = line;
smooth = 0;
x = 353;
y = 1285;
},
{
segmentType = line;
smooth = 1;
x = 1007;
y = 1285;
},
{
smooth = 0;
x = 1056;
y = 1285;
},
{
smooth = 0;
x = 1080;
y = 1319;
},
{
segmentType = curve;
smooth = 1;
x = 1080;
y = 1356;
},
{
smooth = 0;
x = 1080;
y = 1392;
},
{
smooth = 0;
x = 1056;
y = 1426;
},
{
segmentType = curve;
smooth = 1;
x = 1007;
y = 1426;
},
{
segmentType = line;
smooth = 1;
x = 261;
y = 1426;
},
{
smooth = 0;
x = 213;
y = 1426;
},
{
smooth = 0;
x = 178;
y = 1383;
},
{
segmentType = curve;
smooth = 1;
x = 178;
y = 1340;
},
{
segmentType = line;
smooth = 1;
x = 178;
y = 86;
},
{
smooth = 0;
x = 178;
y = 41;
},
{
smooth = 0;
x = 222;
y = 0;
}
);
}
);
lib = {
};
name = F;
unicodes = (
);
width = 1142;
};
};
components = (
);
contours = (
);
lib = {
};
name = F;
unicodes = (
);
width = 1175;
};
},
{
glyphname = G;
lastChange = "2017-11-28 09:38:30 +0000";
layers = (
{
anchors = (
{
name = bottom;
position = "{396, 0}";
},
{
name = top;
position = "{444, 705}";
}
);
background = {
paths = (
{
closed = 1;
nodes = (
"1208 -9 OFFCURVE",
"1307 10 OFFCURVE",
"1379 44 CURVE",
"1407 391 LINE",
"1127 391 LINE",
"1118 279 LINE",
"1254 279 LINE",
"1239 88 LINE",
"1278 139 LINE",
"1229 123 OFFCURVE",
"1177 115 OFFCURVE",
"1129 115 CURVE SMOOTH",
"988 115 OFFCURVE",
"925 193 OFFCURVE",
"938 353 CURVE SMOOTH",
"951 509 OFFCURVE",
"1023 586 OFFCURVE",
"1157 586 CURVE SMOOTH",
"1228 586 OFFCURVE",
"1285 567 OFFCURVE",
"1347 521 CURVE",
"1407 636 LINE",
"1354 685 OFFCURVE",
"1263 714 OFFCURVE",
"1162 714 CURVE SMOOTH",
"943 714 OFFCURVE",
"792 575 OFFCURVE",
"775 353 CURVE SMOOTH",
"758 127 OFFCURVE",
"885 -9 OFFCURVE",
"1112 -9 CURVE SMOOTH"
);
},
{
closed = 1;
nodes = (
"502 -9 OFFCURVE",
"594 22 OFFCURVE",
"645 71 CURVE",
"603 186 LINE",
"534 141 OFFCURVE",
"473 120 OFFCURVE",
"415 120 CURVE SMOOTH",
"300 120 OFFCURVE",
"238 193 OFFCURVE",
"238 329 CURVE SMOOTH",
"238 487 OFFCURVE",
"314 585 OFFCURVE",
"451 585 CURVE SMOOTH",
"516 585 OFFCURVE",
"570 565 OFFCURVE",
"629 519 CURVE",
"689 634 LINE",
"626 686 OFFCURVE",
"540 714 OFFCURVE",
"444 714 CURVE SMOOTH",
"220 714 OFFCURVE",
"74 563 OFFCURVE",
"74 329 CURVE SMOOTH",
"74 121 OFFCURVE",
"202 -9 OFFCURVE",
"409 -9 CURVE SMOOTH"
);
}
);
};
layerId = "E1B555A7-F4E1-459C-9C1A-AE952106EEF9";
paths = (
{
closed = 1;
nodes = (
"499 -9 OFFCURVE",
"596 11 OFFCURVE",
"663 46 CURVE",
"690 391 LINE",
"410 391 LINE",
"401 279 LINE",
"537 279 LINE",
"522 88 LINE",
"561 142 LINE",
"512 124 OFFCURVE",
"464 115 OFFCURVE",
"419 115 CURVE SMOOTH",
"283 115 OFFCURVE",
"220 193 OFFCURVE",
"220 329 CURVE SMOOTH",
"220 487 OFFCURVE",
"297 583 OFFCURVE",
"435 586 CURVE SMOOTH",
"516 588 OFFCURVE",
"570 565 OFFCURVE",
"629 519 CURVE",
"689 634 LINE",
"626 686 OFFCURVE",
"540 714 OFFCURVE",
"433 714 CURVE SMOOTH",
"203 714 OFFCURVE",
"57 563 OFFCURVE",
"57 329 CURVE SMOOTH",
"57 121 OFFCURVE",
"185 -9 OFFCURVE",
"397 -9 CURVE SMOOTH"
);
}
);
width = 739;
}
);
leftKerningGroup = O;
rightKerningGroup = G;
unicode = 0047;
userData = {
anchors = (
);
b = {
};
com.typemytype.robofont.layerData = {
b = {
anchors = (
);
components = (
);
contours = (
{
points = (
{
segmentType = curve;
smooth = 1;
x = 783;
y = "-22";
},
{
smooth = 0;
x = 965;
y = "-22";
},
{
smooth = 0;
x = 1086;
y = 34;
},
{
segmentType = curve;
smooth = 1;
x = 1166;
y = 86;
},
{
smooth = 0;
x = 1270;
y = 154;
},
{
smooth = 0;
x = 1186;
y = 258;
},
{
segmentType = curve;
smooth = 1;
x = 1112;
y = 214;
},
{
smooth = 0;
x = 1024;
y = 162;
},
{
smooth = 0;
x = 939;
y = 120;
},
{
segmentType = curve;
smooth = 1;
x = 806;
y = 120;
},
{
smooth = 0;
x = 446;
y = 120;
},
{
smooth = 0;
x = 316;
y = 406;
},
{
segmentType = curve;
smooth = 1;
x = 316;
y = 706;
},
{
smooth = 0;
x = 316;
y = 1005;
},
{
smooth = 0;
x = 450;
y = 1296;
},
{
segmentType = curve;
smooth = 1;
x = 801;
y = 1296;
},
{
smooth = 0;
x = 980;
y = 1296;
},
{
smooth = 0;
x = 1053;
y = 1246;
},
{
segmentType = curve;
smooth = 1;
x = 1094;
y = 1225;
},
{
smooth = 0;
x = 1174;
y = 1184;
},
{
smooth = 0;
x = 1231;
y = 1300;
},
{
segmentType = curve;
smooth = 1;
x = 1156;
y = 1343;
},
{
smooth = 0;
x = 1106;
y = 1372;
},
{
smooth = 0;
x = 995;
y = 1438;
},
{
segmentType = curve;
smooth = 1;
x = 797;
y = 1438;
},
{
smooth = 0;
x = 359;
y = 1438;
},
{
smooth = 0;
x = 128;
y = 1093;
},
{
segmentType = curve;
smooth = 1;
x = 128;
y = 704;
},
{
smooth = 0;
x = 128;
y = 307;
},
{
smooth = 0;
x = 350;
y = "-22";
}
);
}
);
lib = {
};
name = G;
unicodes = (
);
width = 1448;
};
};
components = (
);
contours = (
);
lib = {
};
name = G;
unicodes = (
);
width = 1538;
};
},
{
glyphname = H;
lastChange = "2017-11-28 09:38:30 +0000";
layers = (
{
anchors = (
{
name = bottom;
position = "{367, 0}";
},
{
name = center;
position = "{395, 358}";
},
{
name = top;
position = "{422, 705}";
},
{
name = topleft;
position = "{57, 705}";
}
);
background = {
anchors = (
{
name = bottom;
position = "{386, 0}";
},
{
name = center;
position = "{414, 358}";
},
{
name = top;
position = "{441, 705}";
},
{
name = topleft;
position = "{76, 705}";
}
);
paths = (
{
closed = 1;
nodes = (
"703 0 LINE",
"758 705 LINE",
"600 705 LINE",
"545 0 LINE"
);
},
{
closed = 1;
nodes = (
"227 0 LINE",
"282 705 LINE",
"124 705 LINE",
"69 0 LINE"
);
},
{
closed = 1;
nodes = (
"663 294 LINE",
"673 422 LINE",
"153 422 LINE",
"143 294 LINE"
);
}
);
};
layerId = "E1B555A7-F4E1-459C-9C1A-AE952106EEF9";
paths = (
{
closed = 1;
nodes = (
"683 0 LINE",
"739 705 LINE",
"581 705 LINE",
"525 0 LINE"
);
},
{
closed = 1;
nodes = (
"208 0 LINE",
"264 705 LINE",
"106 705 LINE",
"50 0 LINE"
);
},
{
closed = 1;
nodes = (
"644 294 LINE",
"654 422 LINE",
"134 422 LINE",
"124 294 LINE"
);
}
);
width = 772;
}
);
leftKerningGroup = H;
rightKerningGroup = H;
unicode = 0048;
userData = {
anchors = (
);
b = {
};
com.typemytype.robofont.layerData = {
b = {
anchors = (
);
components = (
);
contours = (
);
lib = {
};
name = H;
unicodes = (
);
width = 1464;
};
};
components = (
);
contours = (
);
lib = {
};
name = H;
unicodes = (
);
width = 1524;
};
},
{
glyphname = Hbar;
lastChange = "2017-11-28 09:38:30 +0000";
layers = (
{
background = {
paths = (
{
closed = 1;
nodes = (
"859 507 LINE",
"868 625 LINE",
"64 625 LINE",
"55 507 LINE"
);
},
{
closed = 1;
nodes = (
"734 0 LINE",
"789 705 LINE",
"631 705 LINE",
"576 0 LINE"
);
},
{
closed = 1;
nodes = (
"258 0 LINE",
"313 705 LINE",
"155 705 LINE",
"100 0 LINE"
);
},
{
closed = 1;
nodes = (
"694 294 LINE",
"704 422 LINE",
"184 422 LINE",
"174 294 LINE"
);
}
);
};
layerId = "E1B555A7-F4E1-459C-9C1A-AE952106EEF9";
paths = (
{
closed = 1;
nodes = (
"840 507 LINE",
"849 625 LINE",
"45 625 LINE",
"36 507 LINE"
);
},
{
closed = 1;
nodes = (
"733 0 LINE",
"789 705 LINE",
"631 705 LINE",
"575 0 LINE"
);
},
{
closed = 1;
nodes = (
"258 0 LINE",
"314 705 LINE",
"156 705 LINE",
"100 0 LINE"
);
},
{
closed = 1;
nodes = (
"694 294 LINE",
"704 422 LINE",
"184 422 LINE",
"174 294 LINE"
);
}
);
width = 834;
}
);
leftKerningGroup = H;
rightKerningGroup = H;
unicode = 0126;
userData = {
com.typemytype.robofont.layerData = {
b = {
anchors = (
);
components = (
);
contours = (
);
lib = {
};
name = Hbar;
unicodes = (
);
width = 1464;
};
};
};
},
{
glyphname = I;
lastChange = "2017-11-28 09:38:30 +0000";
layers = (
{
anchors = (
{
name = bottom;
position = "{131, 0}";
},
{
name = ogonek;
position = "{182, 10}";
},
{
name = top;
position = "{186, 705}";
},
{
name = topleft;
position = "{57, 705}";
}
);
background = {
anchors = (
{
name = bottom;
position = "{149, 0}";
},
{
name = ogonek;
position = "{201, 10}";
},
{
name = top;
position = "{204, 705}";
},
{
name = topleft;
position = "{76, 705}";
}
);
paths = (
{
closed = 1;
nodes = (
"230 0 LINE",
"285 705 LINE",
"124 705 LINE",
"69 0 LINE"
);
}
);
};
layerId = "E1B555A7-F4E1-459C-9C1A-AE952106EEF9";
paths = (
{
closed = 1;
nodes = (
"211 0 LINE",
"266 705 LINE",
"105 705 LINE",
"50 0 LINE"
);
}
);
width = 299;
}
);
leftKerningGroup = H;
rightKerningGroup = H;
unicode = 0049;
userData = {
anchors = (
);
b = {
};
com.typemytype.robofont.layerData = {
b = {
anchors = (
);
components = (
);
contours = (
);
lib = {
};
name = I;
unicodes = (
);
width = 592;
};
};
components = (
);
contours = (
);
lib = {
};
name = I;
unicodes = (
);
width = 637;
};
},
{
glyphname = Iogonek;
lastChange = "2017-11-28 09:38:30 +0000";
layers = (
{
background = {
paths = (
{
closed = 1;
nodes = (
"166 -197 OFFCURVE",
"198 -190 OFFCURVE",
"229 -177 CURVE",
"218 -105 LINE",
"196 -113 OFFCURVE",
"178 -117 OFFCURVE",
"161 -117 CURVE SMOOTH",
"129 -117 OFFCURVE",
"108 -99 OFFCURVE",
"108 -67 CURVE SMOOTH",
"108 -35 OFFCURVE",
"130 -5 OFFCURVE",
"183 10 CURVE",
"169 46 LINE",
"63 32 OFFCURVE",
"7 -21 OFFCURVE",
"7 -91 CURVE SMOOTH",
"7 -153 OFFCURVE",
"56 -197 OFFCURVE",
"134 -197 CURVE SMOOTH"
);
}
);
};
layerId = "E1B555A7-F4E1-459C-9C1A-AE952106EEF9";
paths = (
{
closed = 1;
nodes = (
"166 -197 OFFCURVE",
"198 -190 OFFCURVE",
"229 -177 CURVE",
"218 -105 LINE",
"196 -113 OFFCURVE",
"178 -117 OFFCURVE",
"161 -117 CURVE SMOOTH",
"129 -117 OFFCURVE",
"108 -99 OFFCURVE",
"108 -67 CURVE SMOOTH",
"108 -30 OFFCURVE",
"135 0 OFFCURVE",
"196 0 CURVE SMOOTH",
"211 0 LINE",
"266 705 LINE",
"105 705 LINE",
"50 0 LINE",
"95 0 LINE",
"111 37 LINE",
"45 11 OFFCURVE",
"7 -26 OFFCURVE",
"7 -89 CURVE SMOOTH",
"7 -153 OFFCURVE",
"56 -197 OFFCURVE",
"134 -197 CURVE SMOOTH"
);
}
);
width = 299;
}
);
leftKerningGroup = H;
rightKerningGroup = H;
unicode = 012E;
},
{
glyphname = J;
lastChange = "2017-11-28 09:38:30 +0000";
layers = (
{
anchors = (
{
name = bottom;
position = "{212, 0}";
},
{
name = top;
position = "{267, 705}";
}
);
background = {
paths = (
{
closed = 1;
nodes = (
"81 -5 LINE SMOOTH",
"222 3 OFFCURVE",
"299 74 OFFCURVE",
"309 207 CURVE SMOOTH",
"348 705 LINE",
"186 705 LINE",
"147 205 LINE SMOOTH",
"143 152 OFFCURVE",
"117 127 OFFCURVE",
"64 124 CURVE SMOOTH",
"-14 119 LINE",
"-14 -10 LINE"
);
}
);
};
layerId = "E1B555A7-F4E1-459C-9C1A-AE952106EEF9";
paths = (
{
closed = 1;
nodes = (
"71 -5 LINE SMOOTH",
"222 4 OFFCURVE",
"299 74 OFFCURVE",
"310 217 CURVE SMOOTH",
"348 705 LINE",
"186 705 LINE",
"148 215 LINE SMOOTH",
"143 152 OFFCURVE",
"117 127 OFFCURVE",
"54 123 CURVE SMOOTH",
"-17 119 LINE",
"-9 -10 LINE"
);
}
);
width = 381;
}
);
leftKerningGroup = J;
rightKerningGroup = J;
unicode = 004A;
userData = {
anchors = (
);
b = {
};
com.typemytype.robofont.layerData = {
b = {
anchors = (
);
components = (
);
contours = (
);
lib = {
};
name = J;
unicodes = (
);
width = 1003;
};
};
components = (
);
contours = (
);
lib = {
};
name = J;
unicodes = (
);
width = 1126;
};
},
{
glyphname = K;
lastChange = "2017-11-28 09:38:30 +0000";
layers = (
{
anchors = (
{
name = bottom;
position = "{324, 0}";
},
{
name = top;
position = "{379, 705}";
}
);
background = {
paths = (
{
closed = 1;
nodes = (
"706 0 LINE",
"367 405 LINE",
"348 321 LINE",
"748 705 LINE",
"558 705 LINE",
"205 360 LINE",
"513 0 LINE"
);
},
{
closed = 1;
nodes = (
"211 0 LINE",
"266 705 LINE",
"105 705 LINE",
"50 0 LINE"
);
}
);
};
layerId = "E1B555A7-F4E1-459C-9C1A-AE952106EEF9";
paths = (
{
closed = 1;
nodes = (
"706 0 LINE",
"362 405 LINE",
"356 320 LINE",
"748 705 LINE",
"551 705 LINE",
"205 358 LINE",
"518 0 LINE"
);
},
{
closed = 1;
nodes = (
"211 0 LINE",
"266 705 LINE",
"105 705 LINE",
"50 0 LINE"
);
}
);
width = 682;
}
);
leftKerningGroup = H;
rightKerningGroup = K;
unicode = 004B;
userData = {
anchors = (
);
b = {
};
com.typemytype.robofont.layerData = {
b = {
anchors = (
);
components = (
);
contours = (
);
lib = {
};
name = K;
unicodes = (
);
width = 1210;
};
};
components = (
);
contours = (
);
lib = {
};
name = K;
unicodes = (
);
width = 1329;
};
},
{
glyphname = L;
lastChange = "2017-11-28 09:38:30 +0000";
layers = (
{
anchors = (
{
name = bottom;
position = "{294, 0}";
},
{
name = center;
position = "{403, 353}";
},
{
name = top;
position = "{185, 705}";
},
{
name = topright;
position = "{356, 705}";
}
);
background = {
anchors = (
{
name = bottom;
position = "{313, 0}";
},
{
name = center;
position = "{422, 353}";
},
{
name = top;
position = "{204, 705}";
},
{
name = topright;
position = "{375, 705}";
}
);
paths = (
{
closed = 1;
nodes = (
"542 0 LINE",
"552 131 LINE",
"240 131 LINE",
"285 705 LINE",
"124 705 LINE",
"69 0 LINE"
);
}
);
};
layerId = "E1B555A7-F4E1-459C-9C1A-AE952106EEF9";
paths = (
{
closed = 1;
nodes = (
"523 0 LINE",
"533 131 LINE",
"221 131 LINE",
"267 705 LINE",
"106 705 LINE",
"50 0 LINE"
);
}
);
width = 565;
}
);
leftKerningGroup = H;
rightKerningGroup = L;
unicode = 004C;
userData = {
anchors = (
);
b = {
};
com.typemytype.robofont.layerData = {
b = {
anchors = (
);
components = (
);
contours = (
{
points = (
{
segmentType = curve;
smooth = 1;
x = 266;
y = 0;
},
{
segmentType = line;
smooth = 1;
x = 1035;
y = 0;
},
{
smooth = 0;
x = 1084;
y = 0;
},
{
smooth = 0;
x = 1108;
y = 34;
},
{
segmentType = curve;
smooth = 1;
x = 1108;
y = 71;
},
{
smooth = 0;
x = 1108;
y = 107;
},
{
smooth = 0;
x = 1084;
y = 141;
},
{
segmentType = curve;
smooth = 1;
x = 1035;
y = 141;
},
{
segmentType = line;
smooth = 0;
x = 356;
y = 141;
},
{
segmentType = line;
smooth = 0;
x = 356;
y = 665;
},
{
segmentType = line;
smooth = 1;
x = 975;
y = 665;
},
{
smooth = 0;
x = 1024;
y = 665;
},
{
smooth = 0;
x = 1049;
y = 698;
},
{
segmentType = curve;
smooth = 1;
x = 1049;
y = 734;
},
{
smooth = 0;
x = 1049;
y = 770;
},
{
smooth = 0;
x = 1026;
y = 803;
},
{
segmentType = curve;
smooth = 1;
x = 975;
y = 803;
},
{
segmentType = line;
smooth = 0;
x = 356;
y = 803;
},
{
segmentType = line;
smooth = 0;
x = 356;
y = 1285;
},
{
segmentType = line;
smooth = 1;
x = 1007;
y = 1285;
},
{
smooth = 0;
x = 1056;
y = 1285;
},
{
smooth = 0;
x = 1080;
y = 1319;
},
{
segmentType = curve;
smooth = 1;
x = 1080;
y = 1356;
},
{
smooth = 0;
x = 1080;
y = 1392;
},
{
smooth = 0;
x = 1056;
y = 1426;
},
{
segmentType = curve;
smooth = 1;
x = 1007;
y = 1426;
},
{
segmentType = line;
smooth = 1;
x = 261;
y = 1426;
},
{
smooth = 0;
x = 213;
y = 1426;
},
{
smooth = 0;
x = 178;
y = 1383;
},
{
segmentType = curve;
smooth = 1;
x = 178;
y = 1340;
},
{
segmentType = line;
smooth = 1;
x = 178;
y = 86;
},
{
smooth = 0;
x = 178;
y = 41;
},
{
smooth = 0;
x = 222;
y = 0;
}
);
}
);
lib = {
};
name = L;
unicodes = (
);
width = 1095;
};
};
components = (
);
contours = (
);
lib = {
};
name = L;
unicodes = (
);
width = 1169;
};
},
{
glyphname = LJ;
lastChange = "2017-11-28 09:38:30 +0000";
layers = (
{
background = {
paths = (
{
closed = 1;
nodes = (
"493 0 LINE",
"503 131 LINE",
"221 131 LINE",
"266 705 LINE",
"105 705 LINE",
"50 0 LINE"
);
},
{
closed = 1;
nodes = (
"649 -5 LINE SMOOTH",
"790 3 OFFCURVE",
"867 74 OFFCURVE",
"877 207 CURVE SMOOTH",
"916 705 LINE",
"754 705 LINE",
"715 205 LINE SMOOTH",
"711 152 OFFCURVE",
"685 127 OFFCURVE",
"632 124 CURVE SMOOTH",
"554 119 LINE",
"554 -10 LINE"
);
}
);
};
layerId = "E1B555A7-F4E1-459C-9C1A-AE952106EEF9";
paths = (
{
closed = 1;
nodes = (
"493 0 LINE",
"503 131 LINE",
"221 131 LINE",
"267 705 LINE",
"106 705 LINE",
"50 0 LINE"
);
},
{
closed = 1;
nodes = (
"639 -5 LINE SMOOTH",
"790 4 OFFCURVE",
"867 74 OFFCURVE",
"878 217 CURVE SMOOTH",
"916 705 LINE",
"754 705 LINE",
"716 215 LINE SMOOTH",
"711 152 OFFCURVE",
"685 127 OFFCURVE",
"622 123 CURVE SMOOTH",
"551 119 LINE",
"559 -10 LINE"
);
}
);
width = 949;
}
);
leftKerningGroup = H;
rightKerningGroup = J;
unicode = 01C7;
},
{
glyphname = Lslash;
lastChange = "2017-11-28 09:38:30 +0000";
layers = (
{
background = {
paths = (
{
closed = 1;
nodes = (
"487 454 LINE",
"437 558 LINE",
"-11 311 LINE",
"39 207 LINE"
);
},
{
closed = 1;
nodes = (
"554 0 LINE",
"564 131 LINE",
"252 131 LINE",
"297 705 LINE",
"136 705 LINE",
"81 0 LINE"
);
}
);
};
guideLines = (
{
angle = 90;
position = "{484, 593}";
},
{
angle = 90;
position = "{123, 593}";
},
{
position = "{485, 716}";
},
{
angle = 90;
position = "{584, 593}";
}
);
layerId = "E1B555A7-F4E1-459C-9C1A-AE952106EEF9";
paths = (
{
closed = 1;
nodes = (
"487 454 LINE",
"437 558 LINE",
"-11 311 LINE",
"39 207 LINE"
);
},
{
closed = 1;
nodes = (
"554 0 LINE",
"564 131 LINE",
"252 131 LINE",
"298 705 LINE",
"137 705 LINE",
"81 0 LINE"
);
}
);
width = 596;
}
);
leftKerningGroup = L;
rightKerningGroup = L;
unicode = 0141;
},
{
glyphname = M;
lastChange = "2017-11-28 09:38:30 +0000";
layers = (
{
anchors = (
{
name = bottom;
position = "{402, 0}";
},
{
name = top;
position = "{457, 705}";
}
);
background = {
paths = (
{
closed = 1;
nodes = (
"193 0 LINE",
"230 465 LINE",
"201 456 LINE",
"359 116 LINE",
"463 116 LINE",
"672 456 LINE",
"648 465 LINE",
"611 0 LINE",
"752 0 LINE",
"807 705 LINE",
"682 705 LINE",
"405 246 LINE",
"440 246 LINE",
"234 705 LINE",
"107 705 LINE",
"52 0 LINE"
);
}
);
};
layerId = "E1B555A7-F4E1-459C-9C1A-AE952106EEF9";
paths = (
{
closed = 1;
nodes = (
"193 0 LINE",
"230 465 LINE",
"198 456 LINE",
"359 116 LINE",
"463 116 LINE",
"672 456 LINE",
"647 465 LINE",
"610 0 LINE",
"751 0 LINE",
"807 705 LINE",
"682 705 LINE",
"399 246 LINE",
"441 246 LINE",
"235 705 LINE",
"108 705 LINE",
"52 0 LINE"
);
}
);
width = 842;
}
);
leftKerningGroup = H;
rightKerningGroup = H;
unicode = 004D;
userData = {
anchors = (
);
b = {
};
com.typemytype.robofont.layerData = {
b = {
anchors = (
);
components = (
);
contours = (
);
lib = {
};
name = M;
unicodes = (
);
width = 1899;
};
};
components = (
);
contours = (
);
lib = {
};
name = M;
unicodes = (
);
width = 1984;
};
},
{
glyphname = N;
lastChange = "2017-11-28 09:38:30 +0000";
layers = (
{
anchors = (
{
name = bottom;
position = "{358, 0}";
},
{
name = top;
position = "{412, 705}";
}
);
background = {
paths = (
{
closed = 1;
nodes = (
"200 0 LINE",
"239 495 LINE",
"210 474 LINE",
"545 0 LINE",
"665 0 LINE",
"720 705 LINE",
"569 705 LINE",
"531 210 LINE",
"560 230 LINE",
"223 705 LINE",
"105 705 LINE",
"50 0 LINE"
);
}
);
};
layerId = "E1B555A7-F4E1-459C-9C1A-AE952106EEF9";
paths = (
{
closed = 1;
nodes = (
"200 0 LINE",
"240 495 LINE",
"207 474 LINE",
"544 0 LINE",
"664 0 LINE",
"720 705 LINE",
"569 705 LINE",
"530 210 LINE",
"563 230 LINE",
"224 705 LINE",
"106 705 LINE",
"50 0 LINE"
);
}
);
width = 753;
}
);
leftKerningGroup = H;
rightKerningGroup = H;
unicode = 004E;
userData = {
anchors = (
);
b = {
};
com.typemytype.robofont.layerData = {
b = {
anchors = (
);
components = (
);
contours = (
);
lib = {
};
name = N;
unicodes = (
);
width = 1499;
};
};
components = (
);
contours = (
);
lib = {
};
name = N;
unicodes = (
);
width = 1557;
};
},
{
glyphname = Eng;
lastChange = "2017-11-28 09:38:30 +0000";
layers = (
{
background = {
paths = (
{
closed = 1;
nodes = (
"200 0 LINE",
"240 495 LINE",
"207 474 LINE",
"544 0 LINE",
"664 0 LINE",
"720 705 LINE",
"569 705 LINE",
"530 210 LINE",
"563 230 LINE",
"224 705 LINE",
"106 705 LINE",
"50 0 LINE"
);
}
);
};
layerId = "E1B555A7-F4E1-459C-9C1A-AE952106EEF9";
paths = (
{
closed = 1;
nodes = (
"530 210 LINE",
"563 230 LINE",
"224 705 LINE",
"106 705 LINE",
"50 0 LINE",
"200 0 LINE",
"240 495 LINE",
"207 474 LINE",
"544 0 LINE",
"520 91 LINE",
"515 28 LINE SMOOTH",
"511 -27 OFFCURVE",
"476 -59 OFFCURVE",
"416 -63 CURVE SMOOTH",
"340 -67 LINE",
"348 -188 LINE",
"429 -183 LINE SMOOTH",
"580 -175 OFFCURVE",
"655 -104 OFFCURVE",
"667 40 CURVE SMOOTH",
"720 705 LINE",
"569 705 LINE"
);
}
);
width = 753;
}
);
leftKerningGroup = H;
rightKerningGroup = H;
unicode = 014A;
userData = {
com.typemytype.robofont.layerData = {
b = {
anchors = (
);
components = (
);
contours = (
);
lib = {
};
name = Eng;
unicodes = (
);
width = 1495;
};
};
};
},
{
glyphname = O;
lastChange = "2017-11-28 10:51:38 +0000";
layers = (
{
anchors = (
{
name = bottom;
position = "{376, 0}";
},
{
name = center;
position = "{404, 353}";
},
{
name = ogonek;
position = "{495, 10}";
},
{
name = top;
position = "{430, 705}";
},
{
name = topleft;
position = "{58, 705}";
},
{
name = topright;
position = "{461, 705}";
}
);
background = {
paths = (
{
closed = 1;
nodes = (
"577 -10 OFFCURVE",
"713 124 OFFCURVE",
"732 337 CURVE SMOOTH",
"733 353 OFFCURVE",
"734 369 OFFCURVE",
"734 385 CURVE SMOOTH",
"734 586 OFFCURVE",
"609 715 OFFCURVE",
"398 715 CURVE SMOOTH",
"197 715 OFFCURVE",
"60 582 OFFCURVE",
"41 369 CURVE SMOOTH",
"40 353 OFFCURVE",
"39 337 OFFCURVE",
"39 322 CURVE SMOOTH",
"39 120 OFFCURVE",
"165 -10 OFFCURVE",
"376 -10 CURVE SMOOTH"
);
},
{
closed = 1;
nodes = (
"266 116 OFFCURVE",
"200 186 OFFCURVE",
"200 321 CURVE SMOOTH",
"200 334 OFFCURVE",
"201 347 OFFCURVE",
"202 361 CURVE SMOOTH",
"216 513 OFFCURVE",
"289 589 OFFCURVE",
"398 589 CURVE SMOOTH",
"508 589 OFFCURVE",
"574 519 OFFCURVE",
"574 386 CURVE SMOOTH",
"574 373 OFFCURVE",
"573 359 OFFCURVE",
"572 345 CURVE SMOOTH",
"558 194 OFFCURVE",
"485 116 OFFCURVE",
"376 116 CURVE SMOOTH"
);
}
);
};
layerId = "E1B555A7-F4E1-459C-9C1A-AE952106EEF9";
paths = (
{
closed = 1;
nodes = (
"610 -10 OFFCURVE",
"749 143 OFFCURVE",
"749 376 CURVE SMOOTH",
"749 586 OFFCURVE",
"617 715 OFFCURVE",
"408 715 CURVE SMOOTH",
"196 715 OFFCURVE",
"57 562 OFFCURVE",
"57 329 CURVE SMOOTH",
"57 119 OFFCURVE",
"189 -10 OFFCURVE",
"398 -10 CURVE SMOOTH"
);
},
{
closed = 1;
nodes = (
"282 116 OFFCURVE",
"218 192 OFFCURVE",
"218 329 CURVE SMOOTH",
"218 491 OFFCURVE",
"290 589 OFFCURVE",
"410 589 CURVE SMOOTH",
"522 589 OFFCURVE",
"588 513 OFFCURVE",
"588 376 CURVE SMOOTH",
"588 212 OFFCURVE",
"514 116 OFFCURVE",
"397 116 CURVE SMOOTH"
);
}
);
width = 789;
}
);
leftKerningGroup = O;
rightKerningGroup = O;
unicode = 004F;
userData = {
anchors = (
);
b = {
};
com.typemytype.robofont.guides = (
);
com.typemytype.robofont.layerData = {
b = {
anchors = (
);
components = (
);
contours = (
);
lib = {
};
name = O;
unicodes = (
);
width = 1597;
};
};
components = (
);
contours = (
);
lib = {
};
name = O;
unicodes = (
);
width = 1604;
};
},
{
glyphname = Ohorn;
lastChange = "2017-11-28 09:38:30 +0000";
layers = (
{
anchors = (
{
name = bottom;
position = "{376, 0}";
},
{
name = top;
position = "{430, 705}";
}
);
background = {
anchors = (
{
name = bottom;
position = "{395, 0}";
},
{
name = top;
position = "{449, 705}";
}
);
paths = (
{
closed = 1;
nodes = (
"610 -10 OFFCURVE",
"749 143 OFFCURVE",
"749 376 CURVE SMOOTH",
"749 586 OFFCURVE",
"617 715 OFFCURVE",
"408 715 CURVE SMOOTH",
"196 715 OFFCURVE",
"57 562 OFFCURVE",
"57 329 CURVE SMOOTH",
"57 119 OFFCURVE",
"189 -10 OFFCURVE",
"398 -10 CURVE SMOOTH"
);
},
{
closed = 1;
nodes = (
"282 116 OFFCURVE",
"218 192 OFFCURVE",
"218 329 CURVE SMOOTH",
"218 491 OFFCURVE",
"290 589 OFFCURVE",
"410 589 CURVE SMOOTH",
"522 589 OFFCURVE",
"588 513 OFFCURVE",
"588 376 CURVE SMOOTH",
"588 212 OFFCURVE",
"514 116 OFFCURVE",
"397 116 CURVE SMOOTH"
);
}
);
};
guideLines = (
{
angle = 90;
position = "{959, 1000}";
}
);
layerId = "E1B555A7-F4E1-459C-9C1A-AE952106EEF9";
paths = (
{
closed = 1;
nodes = (
"610 -10 OFFCURVE",
"749 143 OFFCURVE",
"749 376 CURVE SMOOTH",
"749 500 OFFCURVE",
"704 595 OFFCURVE",
"626 651 CURVE",
"621 630 LINE",
"713 630 OFFCURVE",
"776 695 OFFCURVE",
"783 787 CURVE SMOOTH",
"786 826 LINE",
"652 826 LINE",
"650 806 LINE SMOOTH",
"645 732 OFFCURVE",
"623 705 OFFCURVE",
"556 705 CURVE SMOOTH",
"512 705 OFFCURVE",
"476 715 OFFCURVE",
"418 715 CURVE SMOOTH",
"196 715 OFFCURVE",
"57 562 OFFCURVE",
"57 329 CURVE SMOOTH",
"57 119 OFFCURVE",
"189 -10 OFFCURVE",
"398 -10 CURVE SMOOTH"
);
},
{
closed = 1;
nodes = (
"282 116 OFFCURVE",
"218 192 OFFCURVE",
"218 329 CURVE SMOOTH",
"218 491 OFFCURVE",
"290 589 OFFCURVE",
"410 589 CURVE SMOOTH",
"522 589 OFFCURVE",
"588 513 OFFCURVE",
"588 376 CURVE SMOOTH",
"588 212 OFFCURVE",
"514 116 OFFCURVE",
"397 116 CURVE SMOOTH"
);
}
);
width = 789;
}
);
leftKerningGroup = O;
rightKerningGroup = O;
unicode = 01A0;
},
{
glyphname = Oogonek;
lastChange = "2017-11-28 09:38:30 +0000";
layers = (
{
anchors = (
{
name = top;
position = "{430, 705}";
}
);
background = {
paths = (
{
closed = 1;
nodes = (
"478 -197 OFFCURVE",
"510 -190 OFFCURVE",
"541 -177 CURVE",
"530 -105 LINE",
"508 -113 OFFCURVE",
"490 -117 OFFCURVE",
"473 -117 CURVE SMOOTH",
"441 -117 OFFCURVE",
"420 -99 OFFCURVE",
"420 -67 CURVE SMOOTH",
"420 -35 OFFCURVE",
"442 -5 OFFCURVE",
"495 10 CURVE",
"481 46 LINE",
"375 32 OFFCURVE",
"319 -21 OFFCURVE",
"319 -91 CURVE SMOOTH",
"319 -153 OFFCURVE",
"368 -197 OFFCURVE",
"446 -197 CURVE SMOOTH"
);
}
);
};
layerId = "E1B555A7-F4E1-459C-9C1A-AE952106EEF9";
paths = (
{
closed = 1;
nodes = (
"640 34 OFFCURVE",
"749 167 OFFCURVE",
"749 376 CURVE SMOOTH",
"749 586 OFFCURVE",
"621 715 OFFCURVE",
"408 715 CURVE SMOOTH",
"196 715 OFFCURVE",
"57 562 OFFCURVE",
"57 329 CURVE SMOOTH",
"57 119 OFFCURVE",
"189 -10 OFFCURVE",
"391 -9 CURVE",
"380 12 LINE",
"339 -13 OFFCURVE",
"319 -48 OFFCURVE",
"319 -91 CURVE SMOOTH",
"319 -153 OFFCURVE",
"368 -197 OFFCURVE",
"446 -197 CURVE SMOOTH",
"478 -197 OFFCURVE",
"510 -190 OFFCURVE",
"541 -177 CURVE",
"530 -105 LINE",
"508 -113 OFFCURVE",
"490 -117 OFFCURVE",
"473 -117 CURVE SMOOTH",
"441 -117 OFFCURVE",
"420 -99 OFFCURVE",
"420 -67 CURVE SMOOTH",
"420 -34 OFFCURVE",
"444 -10 OFFCURVE",
"491 1 CURVE SMOOTH"
);
},
{
closed = 1;
nodes = (
"282 116 OFFCURVE",
"218 192 OFFCURVE",
"218 329 CURVE SMOOTH",
"218 491 OFFCURVE",
"290 589 OFFCURVE",
"410 589 CURVE SMOOTH",
"522 589 OFFCURVE",
"588 513 OFFCURVE",
"588 376 CURVE SMOOTH",
"588 212 OFFCURVE",
"514 116 OFFCURVE",
"397 116 CURVE SMOOTH"
);
}
);
width = 789;
}
);
leftKerningGroup = O;
rightKerningGroup = O;
unicode = 01EA;
},
{
glyphname = Oslash;
lastChange = "2017-11-28 09:38:30 +0000";
layers = (
{
anchors = (
{
name = bottom;
position = "{376, 0}";
},
{
name = top;
position = "{430, 705}";
}
);
background = {
paths = (
{
closed = 1;
nodes = (
"588 -9 OFFCURVE",
"731 132 OFFCURVE",
"749 353 CURVE SMOOTH",
"766 574 OFFCURVE",
"645 714 OFFCURVE",
"432 714 CURVE SMOOTH",
"219 714 OFFCURVE",
"75 574 OFFCURVE",
"58 353 CURVE SMOOTH",
"40 132 OFFCURVE",
"162 -9 OFFCURVE",
"375 -9 CURVE SMOOTH"
);
},
{
closed = 1;
nodes = (
"710 713 LINE",
"613 774 LINE",
"96 -8 LINE",
"194 -69 LINE"
);
},
{
closed = 1;
nodes = (
"270 116 OFFCURVE",
"205 196 OFFCURVE",
"218 353 CURVE SMOOTH",
"230 510 OFFCURVE",
"307 589 OFFCURVE",
"421 589 CURVE SMOOTH",
"535 589 OFFCURVE",
"600 509 OFFCURVE",
"588 353 CURVE SMOOTH",
"576 197 OFFCURVE",
"498 116 OFFCURVE",
"384 116 CURVE SMOOTH"
);
}
);
};
layerId = "E1B555A7-F4E1-459C-9C1A-AE952106EEF9";
paths = (
{
closed = 1;
nodes = (
"610 -10 OFFCURVE",
"749 143 OFFCURVE",
"749 376 CURVE SMOOTH",
"749 586 OFFCURVE",
"617 715 OFFCURVE",
"408 715 CURVE SMOOTH",
"196 715 OFFCURVE",
"57 562 OFFCURVE",
"57 329 CURVE SMOOTH",
"57 119 OFFCURVE",
"189 -10 OFFCURVE",
"398 -10 CURVE SMOOTH"
);
},
{
closed = 1;
nodes = (
"282 116 OFFCURVE",
"218 192 OFFCURVE",
"218 329 CURVE SMOOTH",
"218 491 OFFCURVE",
"290 589 OFFCURVE",
"410 589 CURVE SMOOTH",
"522 589 OFFCURVE",
"588 513 OFFCURVE",
"588 376 CURVE SMOOTH",
"588 212 OFFCURVE",
"514 116 OFFCURVE",
"397 116 CURVE SMOOTH"
);
},
{
closed = 1;
nodes = (
"710 713 LINE",
"613 774 LINE",
"96 -8 LINE",
"194 -69 LINE"
);
}
);
width = 789;
}
);
leftKerningGroup = O;
rightKerningGroup = O;
unicode = 00D8;
userData = {
com.typemytype.robofont.layerData = {
b = {
anchors = (
);
components = (
);
contours = (
);
lib = {
};
name = Oslash;
unicodes = (
);
width = 1597;
};
};
};
},
{
glyphname = OE;
lastChange = "2017-11-28 09:38:30 +0000";
layers = (
{
anchors = (
{
name = bottom;
position = "{510, 0}";
},
{
name = top;
position = "{565, 705}";
}
);
background = {
paths = (
{
closed = 1;
nodes = (
"1463 296 LINE",
"1791 296 LINE",
"1801 421 LINE",
"1473 421 LINE"
);
},
{
closed = 1;
nodes = (
"1077 125 OFFCURVE",
"1007 200 OFFCURVE",
"1019 353 CURVE SMOOTH",
"1031 505 OFFCURVE",
"1113 580 OFFCURVE",
"1258 580 CURVE SMOOTH",
"1345 580 LINE",
"1309 125 LINE",
"1222 125 LINE SMOOTH"
);
},
{
closed = 1;
nodes = (
"1502 580 LINE",
"1835 580 LINE",
"1844 705 LINE",
"1256 705 LINE SMOOTH",
"1023 705 OFFCURVE",
"875 574 OFFCURVE",
"858 353 CURVE SMOOTH",
"841 131 OFFCURVE",
"967 0 OFFCURVE",
"1201 0 CURVE SMOOTH",
"1788 0 LINE",
"1798 125 LINE",
"1466 125 LINE"
);
},
{
closed = 1;
nodes = (
"444 705 LINE SMOOTH",
"200 705 OFFCURVE",
"57 567 OFFCURVE",
"57 329 CURVE SMOOTH",
"57 126 OFFCURVE",
"189 0 OFFCURVE",
"402 0 CURVE SMOOTH",
"677 0 LINE",
"732 705 LINE"
);
},
{
closed = 1;
nodes = (
"526 130 LINE",
"423 130 LINE SMOOTH",
"289 130 OFFCURVE",
"218 199 OFFCURVE",
"218 328 CURVE SMOOTH",
"218 496 OFFCURVE",
"296 575 OFFCURVE",
"458 575 CURVE SMOOTH",
"561 575 LINE"
);
}
);
};
layerId = "E1B555A7-F4E1-459C-9C1A-AE952106EEF9";
paths = (
{
closed = 1;
nodes = (
"664 296 LINE",
"992 296 LINE",
"1002 421 LINE",
"674 421 LINE"
);
},
{
closed = 1;
nodes = (
"289 125 OFFCURVE",
"218 199 OFFCURVE",
"218 328 CURVE SMOOTH",
"218 496 OFFCURVE",
"296 580 OFFCURVE",
"458 580 CURVE SMOOTH",
"546 580 LINE",
"510 125 LINE",
"422 125 LINE SMOOTH"
);
},
{
closed = 1;
nodes = (
"703 580 LINE",
"1035 580 LINE",
"1045 705 LINE",
"444 705 LINE SMOOTH",
"200 705 OFFCURVE",
"57 567 OFFCURVE",
"57 329 CURVE SMOOTH",
"57 126 OFFCURVE",
"189 0 OFFCURVE",
"402 0 CURVE SMOOTH",
"989 0 LINE",
"999 125 LINE",
"667 125 LINE"
);
}
);
width = 1044;
}
);
leftKerningGroup = O;
rightKerningGroup = E;
unicode = 0152;
},
{
glyphname = P;
lastChange = "2017-11-28 09:38:30 +0000";
layers = (
{
anchors = (
{
name = bottom;
position = "{319, 0}";
},
{
name = top;
position = "{373, 705}";
}
);
background = {
paths = (
{
closed = 1;
nodes = (
"212 11 LINE",
"232 274 LINE",
"398 265 LINE SMOOTH",
"550 257 OFFCURVE",
"647 335 OFFCURVE",
"658 473 CURVE SMOOTH",
"669 612 OFFCURVE",
"586 699 OFFCURVE",
"432 707 CURVE SMOOTH",
"107 724 LINE",
"51 19 LINE"
);
},
{
closed = 1;
nodes = (
"257 593 LINE",
"402 585 LINE SMOOTH",
"479 581 OFFCURVE",
"513 547 OFFCURVE",
"508 480 CURVE SMOOTH",
"503 414 OFFCURVE",
"462 384 OFFCURVE",
"386 388 CURVE SMOOTH",
"242 396 LINE"
);
},
{
closed = 1;
nodes = (
"958 582 LINE",
"1103 582 LINE SMOOTH",
"1180 582 OFFCURVE",
"1214 550 OFFCURVE",
"1209 483 CURVE SMOOTH",
"1204 417 OFFCURVE",
"1163 385 OFFCURVE",
"1087 385 CURVE SMOOTH",
"924 385 LINE",
"917 263 LINE",
"1099 263 LINE SMOOTH",
"1252 263 OFFCURVE",
"1349 346 OFFCURVE",
"1360 484 CURVE SMOOTH",
"1371 623 OFFCURVE",
"1287 705 OFFCURVE",
"1133 705 CURVE SMOOTH",
"806 705 LINE",
"751 0 LINE",
"912 0 LINE"
);
}
);
};
layerId = "E1B555A7-F4E1-459C-9C1A-AE952106EEF9";
paths = (
{
closed = 1;
nodes = (
"257 582 LINE",
"401 582 LINE SMOOTH",
"474 582 OFFCURVE",
"508 552 OFFCURVE",
"508 489 CURVE SMOOTH",
"508 420 OFFCURVE",
"467 385 OFFCURVE",
"386 385 CURVE SMOOTH",
"223 385 LINE",
"216 263 LINE",
"401 263 LINE SMOOTH",
"567 263 OFFCURVE",
"659 347 OFFCURVE",
"659 498 CURVE SMOOTH",
"659 624 OFFCURVE",
"573 705 OFFCURVE",
"422 705 CURVE SMOOTH",
"106 705 LINE",
"50 0 LINE",
"211 0 LINE"
);
}
);
width = 670;
}
);
leftKerningGroup = H;
rightKerningGroup = P;
unicode = 0050;
userData = {
anchors = (
);
b = {
};
com.typemytype.robofont.layerData = {
b = {
anchors = (
);
components = (
);
contours = (
{
points = (
{
segmentType = curve;
smooth = 1;
x = 266;
y = 0;
},
{
segmentType = line;
smooth = 1;
x = 1035;
y = 0;
},
{
smooth = 0;
x = 1084;
y = 0;
},
{
smooth = 0;
x = 1108;
y = 34;
},
{
segmentType = curve;
smooth = 1;
x = 1108;
y = 71;
},
{
smooth = 0;
x = 1108;
y = 107;
},
{
smooth = 0;
x = 1084;
y = 141;
},
{
segmentType = curve;
smooth = 1;
x = 1035;
y = 141;
},
{
segmentType = line;
smooth = 0;
x = 356;
y = 141;
},
{
segmentType = line;
smooth = 0;
x = 356;
y = 665;
},
{
segmentType = line;
smooth = 1;
x = 975;
y = 665;
},
{
smooth = 0;
x = 1024;
y = 665;
},
{
smooth = 0;
x = 1049;
y = 698;
},
{
segmentType = curve;
smooth = 1;
x = 1049;
y = 734;
},
{
smooth = 0;
x = 1049;
y = 770;
},
{
smooth = 0;
x = 1026;
y = 803;
},
{
segmentType = curve;
smooth = 1;
x = 975;
y = 803;
},
{
segmentType = line;
smooth = 0;
x = 356;
y = 803;
},
{
segmentType = line;
smooth = 0;
x = 356;
y = 1285;
},
{
segmentType = line;
smooth = 1;
x = 1007;
y = 1285;
},
{
smooth = 0;
x = 1056;
y = 1285;
},
{
smooth = 0;
x = 1080;
y = 1319;
},
{
segmentType = curve;
smooth = 1;
x = 1080;
y = 1356;
},
{
smooth = 0;
x = 1080;
y = 1392;
},
{
smooth = 0;
x = 1056;
y = 1426;
},
{
segmentType = curve;
smooth = 1;
x = 1007;
y = 1426;
},
{
segmentType = line;
smooth = 1;
x = 261;
y = 1426;
},
{
smooth = 0;
x = 213;
y = 1426;
},
{
smooth = 0;
x = 178;
y = 1383;
},
{
segmentType = curve;
smooth = 1;
x = 178;
y = 1340;
},
{
segmentType = line;
smooth = 1;
x = 178;
y = 86;
},
{
smooth = 0;
x = 178;
y = 41;
},
{
smooth = 0;
x = 222;
y = 0;
}
);
}
);
lib = {
};
name = P;
unicodes = (
);
width = 1201;
};
};
components = (
);
contours = (
);
lib = {
};
name = P;
unicodes = (
);
width = 1319;
};
},
{
glyphname = Thorn;
lastChange = "2017-11-28 09:38:30 +0000";
layers = (
{
anchors = (
{
name = bottom;
position = "{319, 0}";
},
{
name = top;
position = "{373, 705}";
}
);
background = {
paths = (
{
closed = 1;
nodes = (
"390 152 LINE SMOOTH",
"541 152 OFFCURVE",
"639 230 OFFCURVE",
"649 358 CURVE SMOOTH",
"659 487 OFFCURVE",
"575 564 OFFCURVE",
"422 564 CURVE SMOOTH",
"232 564 LINE",
"223 441 LINE",
"386 441 LINE SMOOTH",
"468 441 OFFCURVE",
"503 416 OFFCURVE",
"498 358 CURVE SMOOTH",
"494 300 OFFCURVE",
"455 275 OFFCURVE",
"373 275 CURVE SMOOTH",
"210 275 LINE",
"200 152 LINE"
);
},
{
closed = 1;
nodes = (
"208 0 LINE",
"264 705 LINE",
"106 705 LINE",
"50 0 LINE"
);
}
);
};
layerId = "E1B555A7-F4E1-459C-9C1A-AE952106EEF9";
paths = (
{
closed = 1;
nodes = (
"409 152 LINE SMOOTH",
"563 152 OFFCURVE",
"649 230 OFFCURVE",
"649 371 CURVE SMOOTH",
"649 492 OFFCURVE",
"566 564 OFFCURVE",
"428 564 CURVE SMOOTH",
"194 564 LINE",
"194 441 LINE",
"409 441 LINE SMOOTH",
"470 441 OFFCURVE",
"499 416 OFFCURVE",
"499 362 CURVE SMOOTH",
"499 304 OFFCURVE",
"464 274 OFFCURVE",
"396 274 CURVE SMOOTH",
"177 274 LINE",
"177 152 LINE"
);
},
{
closed = 1;
nodes = (
"208 0 LINE",
"264 705 LINE",
"106 705 LINE",
"50 0 LINE"
);
}
);
width = 671;
}
);
leftKerningGroup = H;
rightKerningGroup = THORN;
unicode = 00DE;
},
{
glyphname = Q;
lastChange = "2017-11-28 09:38:30 +0000";
layers = (
{
anchors = (
{
name = bottom;
position = "{376, 0}";
},
{
name = top;
position = "{430, 705}";
}
);
background = {
anchors = (
{
name = bottom;
position = "{395, 0}";
},
{
name = top;
position = "{449, 705}";
}
);
paths = (
{
closed = 1;
nodes = (
"610 -10 OFFCURVE",
"749 143 OFFCURVE",
"749 376 CURVE SMOOTH",
"749 586 OFFCURVE",
"617 715 OFFCURVE",
"408 715 CURVE SMOOTH",
"196 715 OFFCURVE",
"57 562 OFFCURVE",
"57 329 CURVE SMOOTH",
"57 119 OFFCURVE",
"189 -10 OFFCURVE",
"398 -10 CURVE SMOOTH"
);
},
{
closed = 1;
nodes = (
"282 116 OFFCURVE",
"218 192 OFFCURVE",
"218 329 CURVE SMOOTH",
"218 491 OFFCURVE",
"290 589 OFFCURVE",
"410 589 CURVE SMOOTH",
"522 589 OFFCURVE",
"588 513 OFFCURVE",
"588 376 CURVE SMOOTH",
"588 212 OFFCURVE",
"514 116 OFFCURVE",
"397 116 CURVE SMOOTH"
);
}
);
};
layerId = "E1B555A7-F4E1-459C-9C1A-AE952106EEF9";
paths = (
{
closed = 1;
nodes = (
"691 -157 LINE",
"624 -34 LINE SMOOTH",
"597 17 OFFCURVE",
"562 37 OFFCURVE",
"500 37 CURVE",
"512 6 LINE",
"662 54 OFFCURVE",
"749 190 OFFCURVE",
"749 376 CURVE SMOOTH",
"749 587 OFFCURVE",
"620 715 OFFCURVE",
"408 715 CURVE SMOOTH",
"196 715 OFFCURVE",
"57 562 OFFCURVE",
"57 329 CURVE SMOOTH",
"57 126 OFFCURVE",
"182 -5 OFFCURVE",
"380 -9 CURVE SMOOTH",
"417 -10 OFFCURVE",
"442 -23 OFFCURVE",
"456 -48 CURVE SMOOTH",
"549 -220 LINE"
);
},
{
closed = 1;
nodes = (
"282 116 OFFCURVE",
"218 192 OFFCURVE",
"218 329 CURVE SMOOTH",
"218 491 OFFCURVE",
"290 589 OFFCURVE",
"410 589 CURVE SMOOTH",
"523 589 OFFCURVE",
"588 512 OFFCURVE",
"588 376 CURVE SMOOTH",
"588 214 OFFCURVE",
"516 116 OFFCURVE",
"397 116 CURVE SMOOTH"
);
}
);
width = 789;
}
);
leftKerningGroup = O;
rightKerningGroup = O;
unicode = 0051;
userData = {
anchors = (
);
b = {
};
com.typemytype.robofont.layerData = {
b = {
anchors = (
);
components = (
);
contours = (
);
lib = {
};
name = Q;
unicodes = (
);
width = 1597;
};
};
components = (
);
contours = (
);
lib = {
};
name = Q;
unicodes = (
);
width = 1604;
};
},
{
glyphname = R;
lastChange = "2017-11-28 09:38:30 +0000";
layers = (
{
anchors = (
{
name = bottom;
position = "{335, 0}";
},
{
name = top;
position = "{389, 705}";
}
);
background = {
paths = (
{
closed = 1;
nodes = (
"953 582 LINE",
"1098 582 LINE SMOOTH",
"1186 582 OFFCURVE",
"1221 554 OFFCURVE",
"1215 488 CURVE SMOOTH",
"1209 423 OFFCURVE",
"1171 394 OFFCURVE",
"1083 394 CURVE SMOOTH",
"922 394 LINE",
"914 272 LINE",
"1003 272 LINE SMOOTH",
"1042 272 OFFCURVE",
"1070 260 OFFCURVE",
"1086 225 CURVE SMOOTH",
"1190 0 LINE",
"1366 0 LINE",
"1268 207 LINE SMOOTH",
"1242 263 OFFCURVE",
"1203 290 OFFCURVE",
"1144 290 CURVE",
"1101 278 LINE",
"1258 278 OFFCURVE",
"1356 361 OFFCURVE",
"1367 492 CURVE SMOOTH",
"1379 630 OFFCURVE",
"1298 705 OFFCURVE",
"1131 705 CURVE SMOOTH",
"805 705 LINE",
"750 0 LINE",
"909 0 LINE"
);
},
{
closed = 1;
nodes = (
"293 582 LINE",
"415 582 LINE SMOOTH",
"485 582 OFFCURVE",
"517 553 OFFCURVE",
"517 493 CURVE SMOOTH",
"517 428 OFFCURVE",
"478 394 OFFCURVE",
"401 394 CURVE SMOOTH",
"245 394 LINE",
"234 272 LINE",
"415 272 LINE SMOOTH",
"578 272 OFFCURVE",
"668 354 OFFCURVE",
"668 502 CURVE SMOOTH",
"668 626 OFFCURVE",
"584 705 OFFCURVE",
"436 705 CURVE SMOOTH",
"290 705 LINE"
);
}
);
};
layerId = "E1B555A7-F4E1-459C-9C1A-AE952106EEF9";
paths = (
{
closed = 1;
nodes = (
"253 582 LINE",
"415 582 LINE SMOOTH",
"485 582 OFFCURVE",
"517 553 OFFCURVE",
"517 493 CURVE SMOOTH",
"517 428 OFFCURVE",
"478 394 OFFCURVE",
"401 394 CURVE SMOOTH",
"222 394 LINE",
"214 272 LINE",
"302 272 LINE SMOOTH",
"342 272 OFFCURVE",
"368 259 OFFCURVE",
"384 225 CURVE SMOOTH",
"493 0 LINE",
"667 0 LINE",
"565 207 LINE SMOOTH",
"538 263 OFFCURVE",
"503 290 OFFCURVE",
"434 290 CURVE",
"401 278 LINE",
"585 278 OFFCURVE",
"668 354 OFFCURVE",
"668 502 CURVE SMOOTH",
"668 626 OFFCURVE",
"584 705 OFFCURVE",
"436 705 CURVE SMOOTH",
"105 705 LINE",
"50 0 LINE",
"209 0 LINE"
);
}
);
width = 702;
}
);
leftKerningGroup = H;
rightKerningGroup = R;
unicode = 0052;
userData = {
anchors = (
);
b = {
};
com.typemytype.robofont.guides = (
);
com.typemytype.robofont.layerData = {
b = {
anchors = (
);
components = (
);
contours = (
{
points = (
{
segmentType = curve;
smooth = 1;
x = 267;
y = 0;
},
{
smooth = 0;
x = 311;
y = 0;
},
{
smooth = 0;
x = 356;
y = 27;
},
{
segmentType = curve;
smooth = 1;
x = 356;
y = 84;
},
{
segmentType = line;
smooth = 0;
x = 356;
y = 628;
},
{
segmentType = line;
smooth = 1;
x = 669;
y = 628;
},
{
smooth = 0;
x = 962;
y = 628;
},
{
smooth = 0;
x = 1182;
y = 722;
},
{
segmentType = curve;
smooth = 1;
x = 1182;
y = 1026;
},
{
smooth = 0;
x = 1182;
y = 1324;
},
{
smooth = 0;
x = 993;
y = 1426;
},
{
segmentType = curve;
smooth = 1;
x = 684;
y = 1426;
},
{
segmentType = line;
smooth = 1;
x = 268;
y = 1426;
},
{
smooth = 0;
x = 217;
y = 1426;
},
{
smooth = 0;
x = 178;
y = 1387;
},
{
segmentType = curve;
smooth = 1;
x = 178;
y = 1339;
},
{
segmentType = line;
smooth = 1;
x = 178;
y = 84;
},
{
smooth = 0;
x = 178;
y = 28;
},
{
smooth = 0;
x = 222;
y = 0;
}
);
},
{
points = (
{
segmentType = line;
smooth = 0;
x = 356;
y = 764;
},
{
segmentType = line;
smooth = 0;
x = 356;
y = 1285;
},
{
segmentType = line;
smooth = 1;
x = 684;
y = 1285;
},
{
smooth = 0;
x = 914;
y = 1285;
},
{
smooth = 0;
x = 1008;
y = 1210;
},
{
segmentType = curve;
smooth = 1;
x = 1008;
y = 1026;
},
{
smooth = 0;
x = 1008;
y = 838;
},
{
smooth = 0;
x = 901;
y = 764;
},
{
segmentType = curve;
smooth = 1;
x = 670;
y = 764;
}
);
}
);
lib = {
};
name = R;
unicodes = (
);
width = 1363;
};
};
components = (
);
contours = (
);
lib = {
};
name = R;
unicodes = (
);
width = 1408;
};
},
{
glyphname = S;
lastChange = "2017-11-28 09:38:30 +0000";
layers = (
{
anchors = (
{
name = bottom;
position = "{306, 0}";
},
{
name = top;
position = "{366, 705}";
}
);
background = {
paths = (
{
closed = 1;
nodes = (
"1283 -19 OFFCURVE",
"1397 60 OFFCURVE",
"1408 193 CURVE SMOOTH",
"1417 303 OFFCURVE",
"1349 364 OFFCURVE",
"1170 414 CURVE SMOOTH",
"1058 445 OFFCURVE",
"1028 467 OFFCURVE",
"1032 511 CURVE SMOOTH",
"1037 563 OFFCURVE",
"1087 593 OFFCURVE",
"1165 589 CURVE SMOOTH",
"1235 585 OFFCURVE",
"1302 559 OFFCURVE",
"1362 508 CURVE",
"1422 621 LINE",
"1371 672 OFFCURVE",
"1273 709 OFFCURVE",
"1174 714 CURVE SMOOTH",
"1003 723 OFFCURVE",
"883 635 OFFCURVE",
"873 507 CURVE SMOOTH",
"864 393 OFFCURVE",
"927 332 OFFCURVE",
"1111 283 CURVE SMOOTH",
"1217 255 OFFCURVE",
"1253 231 OFFCURVE",
"1249 187 CURVE SMOOTH",
"1245 139 OFFCURVE",
"1196 112 OFFCURVE",
"1109 117 CURVE SMOOTH",
"1027 122 OFFCURVE",
"952 148 OFFCURVE",
"887 199 CURVE",
"827 87 LINE",
"888 33 OFFCURVE",
"992 -2 OFFCURVE",
"1097 -8 CURVE SMOOTH"
);
},
{
closed = 1;
nodes = (
"484 -9 OFFCURVE",
"599 74 OFFCURVE",
"609 207 CURVE SMOOTH",
"617 317 OFFCURVE",
"551 375 OFFCURVE",
"371 415 CURVE SMOOTH",
"259 440 OFFCURVE",
"228 460 OFFCURVE",
"232 504 CURVE SMOOTH",
"237 556 OFFCURVE",
"287 589 OFFCURVE",
"365 589 CURVE SMOOTH",
"436 589 OFFCURVE",
"504 566 OFFCURVE",
"564 519 CURVE",
"624 634 LINE",
"573 683 OFFCURVE",
"474 714 OFFCURVE",
"374 714 CURVE SMOOTH",
"203 714 OFFCURVE",
"83 620 OFFCURVE",
"73 492 CURVE SMOOTH",
"64 378 OFFCURVE",
"127 321 OFFCURVE",
"311 281 CURVE SMOOTH",
"418 258 OFFCURVE",
"454 237 OFFCURVE",
"450 193 CURVE SMOOTH",
"446 145 OFFCURVE",
"397 116 OFFCURVE",
"309 116 CURVE SMOOTH",
"227 116 OFFCURVE",
"152 139 OFFCURVE",
"87 186 CURVE",
"27 71 LINE",
"88 21 OFFCURVE",
"192 -9 OFFCURVE",
"297 -9 CURVE SMOOTH"
);
}
);
};
layerId = "E1B555A7-F4E1-459C-9C1A-AE952106EEF9";
paths = (
{
closed = 1;
nodes = (
"500 -9 OFFCURVE",
"609 70 OFFCURVE",
"609 207 CURVE SMOOTH",
"609 444 OFFCURVE",
"231 379 OFFCURVE",
"231 509 CURVE SMOOTH",
"231 559 OFFCURVE",
"280 589 OFFCURVE",
"362 589 CURVE SMOOTH",
"431 589 OFFCURVE",
"504 564 OFFCURVE",
"563 519 CURVE",
"623 634 LINE",
"566 683 OFFCURVE",
"467 714 OFFCURVE",
"366 714 CURVE SMOOTH",
"187 714 OFFCURVE",
"71 628 OFFCURVE",
"71 495 CURVE SMOOTH",
"71 252 OFFCURVE",
"449 316 OFFCURVE",
"449 189 CURVE SMOOTH",
"449 142 OFFCURVE",
"403 116 OFFCURVE",
"318 116 CURVE SMOOTH",
"233 116 OFFCURVE",
"157 139 OFFCURVE",
"86 186 CURVE",
"26 71 LINE",
"100 20 OFFCURVE",
"203 -9 OFFCURVE",
"312 -9 CURVE SMOOTH"
);
}
);
width = 653;
}
);
leftKerningGroup = S;
rightKerningGroup = S;
unicode = 0053;
userData = {
anchors = (
);
b = {
};
com.typemytype.robofont.layerData = {
b = {
anchors = (
);
components = (
);
contours = (
);
lib = {
};
name = S;
unicodes = (
);
width = 1274;
};
};
components = (
);
contours = (
);
lib = {
};
name = S;
unicodes = (
);
width = 1317;
};
},
{
glyphname = Germandbls;
lastChange = "2017-11-28 09:38:30 +0000";
layers = (
{
background = {
paths = (
{
closed = 1;
nodes = (
"208 0 LINE",
"243 444 LINE SMOOTH",
"250 537 OFFCURVE",
"303 587 OFFCURVE",
"392 587 CURVE SMOOTH",
"458 587 OFFCURVE",
"498 554 OFFCURVE",
"493 500 CURVE SMOOTH",
"489 448 OFFCURVE",
"454 419 OFFCURVE",
"389 419 CURVE SMOOTH",
"309 419 LINE",
"299 294 LINE",
"397 294 LINE SMOOTH",
"492 294 OFFCURVE",
"526 267 OFFCURVE",
"521 203 CURVE SMOOTH",
"517 147 OFFCURVE",
"483 113 OFFCURVE",
"433 113 CURVE SMOOTH",
"393 113 OFFCURVE",
"350 129 OFFCURVE",
"300 163 CURVE",
"249 50 LINE",
"299 11 OFFCURVE",
"356 -6 OFFCURVE",
"433 -6 CURVE SMOOTH",
"562 -6 OFFCURVE",
"663 80 OFFCURVE",
"673 197 CURVE SMOOTH",
"680 294 OFFCURVE",
"620 360 OFFCURVE",
"514 372 CURVE",
"513 358 LINE",
"588 380 OFFCURVE",
"639 439 OFFCURVE",
"644 514 CURVE SMOOTH",
"654 635 OFFCURVE",
"561 712 OFFCURVE",
"406 712 CURVE SMOOTH",
"216 712 OFFCURVE",
"98 613 OFFCURVE",
"85 441 CURVE SMOOTH",
"50 0 LINE"
);
}
);
};
layerId = "E1B555A7-F4E1-459C-9C1A-AE952106EEF9";
paths = (
{
closed = 1;
nodes = (
"208 0 LINE",
"244 457 LINE SMOOTH",
"251 543 OFFCURVE",
"299 587 OFFCURVE",
"388 587 CURVE SMOOTH",
"451 587 OFFCURVE",
"493 556 OFFCURVE",
"493 506 CURVE SMOOTH",
"493 450 OFFCURVE",
"460 419 OFFCURVE",
"399 419 CURVE SMOOTH",
"309 419 LINE",
"299 294 LINE",
"397 294 LINE SMOOTH",
"487 294 OFFCURVE",
"521 268 OFFCURVE",
"521 205 CURVE SMOOTH",
"521 146 OFFCURVE",
"490 113 OFFCURVE",
"433 113 CURVE SMOOTH",
"394 113 OFFCURVE",
"348 130 OFFCURVE",
"300 163 CURVE",
"249 50 LINE",
"310 10 OFFCURVE",
"363 -6 OFFCURVE",
"436 -6 CURVE SMOOTH",
"576 -6 OFFCURVE",
"674 84 OFFCURVE",
"674 202 CURVE SMOOTH",
"674 299 OFFCURVE",
"612 359 OFFCURVE",
"514 372 CURVE",
"513 358 LINE",
"602 381 OFFCURVE",
"645 442 OFFCURVE",
"645 522 CURVE SMOOTH",
"645 635 OFFCURVE",
"551 712 OFFCURVE",
"396 712 CURVE SMOOTH",
"211 712 OFFCURVE",
"100 618 OFFCURVE",
"86 451 CURVE SMOOTH",
"50 0 LINE"
);
}
);
width = 712;
}
);
leftKerningGroup = H;
rightKerningGroup = Germandbls;
unicode = 1E9E;
},
{
glyphname = Schwa;
lastChange = "2017-11-28 09:38:30 +0000";
layers = (
{
anchors = (
{
name = bottom;
position = "{366, 0}";
},
{
name = top;
position = "{420, 705}";
}
);
background = {
paths = (
{
closed = 1;
nodes = (
"1369 -9 OFFCURVE",
"1512 141 OFFCURVE",
"1529 353 CURVE SMOOTH",
"1547 574 OFFCURVE",
"1417 714 OFFCURVE",
"1198 714 CURVE SMOOTH",
"1102 714 OFFCURVE",
"996 683 OFFCURVE",
"930 634 CURVE",
"972 519 LINE",
"1036 564 OFFCURVE",
"1108 586 OFFCURVE",
"1182 586 CURVE SMOOTH",
"1315 586 OFFCURVE",
"1381 507 OFFCURVE",
"1369 353 CURVE SMOOTH",
"1357 196 OFFCURVE",
"1292 116 OFFCURVE",
"1180 116 CURVE SMOOTH",
"1062 116 OFFCURVE",
"1001 196 OFFCURVE",
"1019 353 CURVE",
"973 295 LINE",
"1425 295 LINE",
"1435 418 LINE",
"863 418 LINE",
"858 356 LINE SMOOTH",
"839 122 OFFCURVE",
"960 -9 OFFCURVE",
"1175 -9 CURVE SMOOTH"
);
},
{
closed = 1;
nodes = (
"273 714 OFFCURVE",
"181 683 OFFCURVE",
"130 634 CURVE",
"172 519 LINE",
"241 564 OFFCURVE",
"302 585 OFFCURVE",
"360 585 CURVE SMOOTH",
"475 585 OFFCURVE",
"537 512 OFFCURVE",
"537 376 CURVE SMOOTH",
"537 218 OFFCURVE",
"461 120 OFFCURVE",
"324 120 CURVE SMOOTH",
"259 120 OFFCURVE",
"205 140 OFFCURVE",
"146 186 CURVE",
"86 71 LINE",
"149 19 OFFCURVE",
"235 -9 OFFCURVE",
"331 -9 CURVE SMOOTH",
"555 -9 OFFCURVE",
"701 142 OFFCURVE",
"701 376 CURVE SMOOTH",
"701 584 OFFCURVE",
"573 714 OFFCURVE",
"366 714 CURVE SMOOTH"
);
}
);
};
layerId = "E1B555A7-F4E1-459C-9C1A-AE952106EEF9";
paths = (
{
closed = 1;
nodes = (
"589 -9 OFFCURVE",
"729 142 OFFCURVE",
"729 376 CURVE SMOOTH",
"729 584 OFFCURVE",
"597 714 OFFCURVE",
"392 714 CURVE SMOOTH",
"289 714 OFFCURVE",
"194 683 OFFCURVE",
"130 634 CURVE",
"172 519 LINE",
"241 564 OFFCURVE",
"294 585 OFFCURVE",
"375 586 CURVE SMOOTH",
"498 587 OFFCURVE",
"569 512 OFFCURVE",
"569 376 CURVE SMOOTH",
"569 218 OFFCURVE",
"499 116 OFFCURVE",
"380 116 CURVE SMOOTH",
"262 116 OFFCURVE",
"191 196 OFFCURVE",
"219 353 CURVE",
"173 295 LINE",
"623 295 LINE",
"633 418 LINE",
"63 418 LINE",
"59 366 LINE SMOOTH",
"41 128 OFFCURVE",
"160 -9 OFFCURVE",
"382 -9 CURVE SMOOTH"
);
}
);
width = 769;
}
);
leftKerningGroup = O;
rightKerningGroup = O;
unicode = 018F;
},
{
glyphname = T;
lastChange = "2017-11-28 09:38:30 +0000";
layers = (
{
anchors = (
{
name = bottom;
position = "{293, 0}";
},
{
name = center;
position = "{321, 353}";
},
{
name = top;
position = "{348, 705}";
}
);
background = {
anchors = (
{
name = bottom;
position = "{312, 0}";
},
{
name = center;
position = "{340, 353}";
},
{
name = top;
position = "{367, 705}";
}
);
paths = (
{
closed = 1;
nodes = (
"393 0 LINE",
"438 574 LINE",
"657 574 LINE",
"667 705 LINE",
"67 705 LINE",
"57 574 LINE",
"276 574 LINE",
"231 0 LINE"
);
}
);
};
layerId = "E1B555A7-F4E1-459C-9C1A-AE952106EEF9";
paths = (
{
closed = 1;
nodes = (
"374 0 LINE",
"419 574 LINE",
"638 574 LINE",
"648 705 LINE",
"48 705 LINE",
"38 574 LINE",
"257 574 LINE",
"212 0 LINE"
);
}
);
width = 624;
}
);
leftKerningGroup = T;
rightKerningGroup = T;
unicode = 0054;
userData = {
anchors = (
);
b = {
};
com.typemytype.robofont.layerData = {
b = {
anchors = (
);
components = (
);
contours = (
{
points = (
{
segmentType = curve;
smooth = 1;
x = 581;
y = 0;
},
{
segmentType = line;
smooth = 1;
x = 1350;
y = 0;
},
{
smooth = 0;
x = 1399;
y = 0;
},
{
smooth = 0;
x = 1423;
y = 34;
},
{
segmentType = curve;
smooth = 1;
x = 1423;
y = 71;
},
{
smooth = 0;
x = 1423;
y = 107;
},
{
smooth = 0;
x = 1399;
y = 141;
},
{
segmentType = curve;
smooth = 1;
x = 1350;
y = 141;
},
{
segmentType = line;
smooth = 0;
x = 671;
y = 141;
},
{
segmentType = line;
smooth = 0;
x = 671;
y = 665;
},
{
segmentType = line;
smooth = 1;
x = 1290;
y = 665;
},
{
smooth = 0;
x = 1339;
y = 665;
},
{
smooth = 0;
x = 1364;
y = 698;
},
{
segmentType = curve;
smooth = 1;
x = 1364;
y = 734;
},
{
smooth = 0;
x = 1364;
y = 770;
},
{
smooth = 0;
x = 1341;
y = 803;
},
{
segmentType = curve;
smooth = 1;
x = 1290;
y = 803;
},
{
segmentType = line;
smooth = 0;
x = 671;
y = 803;
},
{
segmentType = line;
smooth = 0;
x = 671;
y = 1285;
},
{
segmentType = line;
smooth = 1;
x = 1322;
y = 1285;
},
{
smooth = 0;
x = 1371;
y = 1285;
},
{
smooth = 0;
x = 1395;
y = 1319;
},
{
segmentType = curve;
smooth = 1;
x = 1395;
y = 1356;
},
{
smooth = 0;
x = 1395;
y = 1392;
},
{
smooth = 0;
x = 1371;
y = 1426;
},
{
segmentType = curve;
smooth = 1;
x = 1322;
y = 1426;
},
{
segmentType = line;
smooth = 1;
x = 576;
y = 1426;
},
{
smooth = 0;
x = 528;
y = 1426;
},
{
smooth = 0;
x = 493;
y = 1383;
},
{
segmentType = curve;
smooth = 1;
x = 493;
y = 1340;
},
{
segmentType = line;
smooth = 1;
x = 493;
y = 86;
},
{
smooth = 0;
x = 493;
y = 41;
},
{
smooth = 0;
x = 537;
y = 0;
}
);
}
);
lib = {
};
name = T;
unicodes = (
);
width = 1158;
};
};
components = (
);
contours = (
);
lib = {
};
name = T;
unicodes = (
);
width = 1199;
};
},
{
glyphname = Tbar;
lastChange = "2017-11-28 09:38:30 +0000";
layers = (
{
background = {
paths = (
{
closed = 1;
nodes = (
"551 295 LINE",
"561 417 LINE",
"129 417 LINE",
"119 295 LINE"
);
},
{
closed = 1;
nodes = (
"393 0 LINE",
"438 574 LINE",
"657 574 LINE",
"667 705 LINE",
"67 705 LINE",
"57 574 LINE",
"276 574 LINE",
"231 0 LINE"
);
}
);
};
layerId = "E1B555A7-F4E1-459C-9C1A-AE952106EEF9";
paths = (
{
closed = 1;
nodes = (
"532 295 LINE",
"542 417 LINE",
"110 417 LINE",
"100 295 LINE"
);
},
{
closed = 1;
nodes = (
"374 0 LINE",
"419 574 LINE",
"638 574 LINE",
"648 705 LINE",
"48 705 LINE",
"38 574 LINE",
"257 574 LINE",
"212 0 LINE"
);
}
);
width = 624;
}
);
leftKerningGroup = T;
rightKerningGroup = T;
unicode = 0166;
userData = {
com.typemytype.robofont.layerData = {
b = {
anchors = (
);
components = (
);
contours = (
);
lib = {
};
name = Tbar;
unicodes = (
);
width = 1158;
};
};
};
},
{
glyphname = U;
lastChange = "2017-11-28 09:38:30 +0000";
layers = (
{
anchors = (
{
name = bottom;
position = "{351, 0}";
},
{
name = ogonek;
position = "{474, 10}";
},
{
name = top;
position = "{406, 705}";
},
{
name = topright;
position = "{632, 705}";
}
);
background = {
paths = (
{
closed = 1;
nodes = (
"548 -9 OFFCURVE",
"664 97 OFFCURVE",
"679 292 CURVE SMOOTH",
"711 705 LINE",
"553 705 LINE",
"520 285 LINE SMOOTH",
"512 176 OFFCURVE",
"455 116 OFFCURVE",
"360 116 CURVE SMOOTH",
"264 116 OFFCURVE",
"218 175 OFFCURVE",
"226 285 CURVE SMOOTH",
"259 705 LINE",
"101 705 LINE",
"69 292 LINE SMOOTH",
"53 95 OFFCURVE",
"150 -9 OFFCURVE",
"350 -9 CURVE SMOOTH"
);
}
);
};
layerId = "E1B555A7-F4E1-459C-9C1A-AE952106EEF9";
paths = (
{
closed = 1;
nodes = (
"557 -9 OFFCURVE",
"663 91 OFFCURVE",
"678 288 CURVE SMOOTH",
"711 705 LINE",
"553 705 LINE",
"519 277 LINE SMOOTH",
"509 157 OFFCURVE",
"455 116 OFFCURVE",
"373 116 CURVE SMOOTH",
"264 116 OFFCURVE",
"217 175 OFFCURVE",
"227 297 CURVE SMOOTH",
"259 705 LINE",
"101 705 LINE",
"69 302 LINE SMOOTH",
"53 96 OFFCURVE",
"153 -9 OFFCURVE",
"365 -9 CURVE SMOOTH"
);
}
);
width = 740;
}
);
leftKerningGroup = U;
rightKerningGroup = U;
unicode = 0055;
userData = {
anchors = (
);
b = {
};
com.typemytype.robofont.layerData = {
b = {
anchors = (
);
components = (
);
contours = (
);
lib = {
};
name = U;
unicodes = (
);
width = 1490;
};
};
components = (
);
contours = (
);
lib = {
};
name = U;
unicodes = (
);
width = 1513;
};
},
{
glyphname = Uhorn;
lastChange = "2017-11-28 09:38:30 +0000";
layers = (
{
anchors = (
{
name = bottom;
position = "{351, 0}";
},
{
name = top;
position = "{406, 705}";
}
);
background = {
paths = (
{
closed = 1;
nodes = (
"557 -9 OFFCURVE",
"663 91 OFFCURVE",
"678 288 CURVE SMOOTH",
"711 705 LINE",
"553 705 LINE",
"519 277 LINE SMOOTH",
"509 157 OFFCURVE",
"455 116 OFFCURVE",
"373 116 CURVE SMOOTH",
"264 116 OFFCURVE",
"217 175 OFFCURVE",
"227 297 CURVE SMOOTH",
"259 705 LINE",
"101 705 LINE",
"69 302 LINE SMOOTH",
"53 96 OFFCURVE",
"153 -9 OFFCURVE",
"365 -9 CURVE SMOOTH"
);
}
);
};
layerId = "E1B555A7-F4E1-459C-9C1A-AE952106EEF9";
paths = (
{
closed = 1;
nodes = (
"697 806 LINE SMOOTH",
"692 731 OFFCURVE",
"666 705 OFFCURVE",
"599 705 CURVE SMOOTH",
"553 705 LINE",
"519 277 LINE SMOOTH",
"509 157 OFFCURVE",
"455 116 OFFCURVE",
"373 116 CURVE SMOOTH",
"264 116 OFFCURVE",
"217 175 OFFCURVE",
"227 297 CURVE SMOOTH",
"259 705 LINE",
"101 705 LINE",
"69 302 LINE SMOOTH",
"53 96 OFFCURVE",
"153 -9 OFFCURVE",
"365 -9 CURVE SMOOTH",
"557 -9 OFFCURVE",
"662 91 OFFCURVE",
"678 288 CURVE SMOOTH",
"709 674 LINE",
"674 631 LINE",
"768 636 OFFCURVE",
"823 699 OFFCURVE",
"830 787 CURVE SMOOTH",
"833 826 LINE",
"699 826 LINE"
);
}
);
width = 740;
}
);
leftKerningGroup = U;
rightKerningGroup = Uhorn;
unicode = 01AF;
},
{
glyphname = Uogonek;
lastChange = "2017-11-28 09:38:30 +0000";
layers = (
{
background = {
paths = (
{
closed = 1;
nodes = (
"457 -197 OFFCURVE",
"489 -190 OFFCURVE",
"520 -177 CURVE",
"509 -105 LINE",
"487 -113 OFFCURVE",
"469 -117 OFFCURVE",
"452 -117 CURVE SMOOTH",
"420 -117 OFFCURVE",
"399 -99 OFFCURVE",
"399 -67 CURVE SMOOTH",
"399 -35 OFFCURVE",
"421 -5 OFFCURVE",
"474 10 CURVE",
"460 46 LINE",
"354 32 OFFCURVE",
"298 -21 OFFCURVE",
"298 -91 CURVE SMOOTH",
"298 -153 OFFCURVE",
"347 -197 OFFCURVE",
"425 -197 CURVE SMOOTH"
);
}
);
};
layerId = "E1B555A7-F4E1-459C-9C1A-AE952106EEF9";
paths = (
{
closed = 1;
nodes = (
"519 277 LINE SMOOTH",
"509 157 OFFCURVE",
"455 116 OFFCURVE",
"373 116 CURVE SMOOTH",
"264 116 OFFCURVE",
"217 175 OFFCURVE",
"227 297 CURVE SMOOTH",
"259 705 LINE",
"101 705 LINE",
"69 302 LINE SMOOTH",
"53 96 OFFCURVE",
"153 -9 OFFCURVE",
"360 -9 CURVE SMOOTH",
"372 -9 LINE",
"364 11 LINE",
"317 -11 OFFCURVE",
"298 -50 OFFCURVE",
"298 -91 CURVE SMOOTH",
"298 -153 OFFCURVE",
"347 -197 OFFCURVE",
"425 -197 CURVE SMOOTH",
"457 -197 OFFCURVE",
"489 -190 OFFCURVE",
"520 -177 CURVE",
"509 -105 LINE",
"487 -113 OFFCURVE",
"469 -117 OFFCURVE",
"452 -117 CURVE SMOOTH",
"420 -117 OFFCURVE",
"399 -99 OFFCURVE",
"399 -67 CURVE SMOOTH",
"399 -32 OFFCURVE",
"425 -10 OFFCURVE",
"464 0 CURVE SMOOTH",
"600 35 OFFCURVE",
"666 134 OFFCURVE",
"678 288 CURVE SMOOTH",
"711 705 LINE",
"553 705 LINE"
);
}
);
width = 740;
}
);
leftKerningGroup = U;
rightKerningGroup = U;
unicode = 0172;
},
{
glyphname = V;
lastChange = "2017-11-28 09:38:30 +0000";
layers = (
{
anchors = (
{
name = bottom;
position = "{347, 0}";
},
{
name = top;
position = "{401, 705}";
}
);
background = {
paths = (
{
closed = 1;
nodes = (
"411 0 LINE",
"784 705 LINE",
"621 705 LINE",
"337 147 LINE",
"383 147 LINE",
"186 705 LINE",
"19 705 LINE",
"282 0 LINE"
);
}
);
};
layerId = "E1B555A7-F4E1-459C-9C1A-AE952106EEF9";
paths = (
{
closed = 1;
nodes = (
"411 0 LINE",
"784 705 LINE",
"620 705 LINE",
"337 147 LINE",
"383 147 LINE",
"186 705 LINE",
"19 705 LINE",
"282 0 LINE"
);
}
);
width = 731;
}
);
leftKerningGroup = V;
rightKerningGroup = V;
unicode = 0056;
userData = {
anchors = (
);
b = {
};
com.typemytype.robofont.guides = (
);
com.typemytype.robofont.layerData = {
b = {
anchors = (
);
components = (
);
contours = (
{
points = (
{
segmentType = curve;
smooth = 1;
x = 644;
y = "-5";
},
{
smooth = 0;
x = 712;
y = "-5";
},
{
smooth = 0;
x = 764;
y = 38;
},
{
segmentType = curve;
smooth = 1;
x = 793;
y = 117;
},
{
segmentType = line;
smooth = 1;
x = 1243;
y = 1324;
},
{
smooth = 0;
x = 1247;
y = 1335;
},
{
smooth = 0;
x = 1248;
y = 1342;
},
{
segmentType = curve;
smooth = 1;
x = 1248;
y = 1351;
},
{
smooth = 0;
x = 1248;
y = 1395;
},
{
smooth = 0;
x = 1203;
y = 1427;
},
{
segmentType = curve;
smooth = 1;
x = 1160;
y = 1427;
},
{
smooth = 0;
x = 1125;
y = 1427;
},
{
smooth = 0;
x = 1090;
y = 1408;
},
{
segmentType = curve;
smooth = 1;
x = 1076;
y = 1369;
},
{
segmentType = line;
smooth = 0;
x = 651;
y = 192;
},
{
segmentType = line;
smooth = 0;
x = 650;
y = 190;
},
{
segmentType = line;
smooth = 1;
x = 214;
y = 1370;
},
{
smooth = 0;
x = 200;
y = 1407;
},
{
smooth = 0;
x = 170;
y = 1427;
},
{
segmentType = curve;
smooth = 1;
x = 135;
y = 1427;
},
{
smooth = 0;
x = 90;
y = 1427;
},
{
smooth = 0;
x = 43;
y = 1392;
},
{
segmentType = curve;
smooth = 1;
x = 43;
y = 1344;
},
{
smooth = 0;
x = 43;
y = 1336;
},
{
smooth = 0;
x = 44;
y = 1326;
},
{
segmentType = curve;
smooth = 0;
x = 48;
y = 1318;
},
{
segmentType = line;
smooth = 1;
x = 501;
y = 117;
},
{
smooth = 0;
x = 532;
y = 35;
},
{
smooth = 0;
x = 581;
y = "-5";
}
);
}
);
lib = {
};
name = V;
unicodes = (
);
width = 1289;
};
};
components = (
);
contours = (
);
lib = {
};
name = V;
unicodes = (
);
width = 1365;
};
},
{
glyphname = W;
lastChange = "2017-11-28 09:38:30 +0000";
layers = (
{
anchors = (
{
name = bottom;
position = "{539, 0}";
},
{
name = top;
position = "{594, 705}";
}
);
background = {
paths = (
{
closed = 1;
nodes = (
"377 0 LINE",
"591 492 LINE",
"567 492 LINE",
"700 0 LINE",
"829 0 LINE",
"1135 705 LINE",
"982 705 LINE",
"758 167 LINE",
"793 167 LINE",
"655 705 LINE",
"543 705 LINE",
"312 167 LINE",
"352 167 LINE",
"216 705 LINE",
"53 705 LINE",
"248 0 LINE"
);
}
);
};
layerId = "E1B555A7-F4E1-459C-9C1A-AE952106EEF9";
paths = (
{
closed = 1;
nodes = (
"377 0 LINE",
"589 492 LINE",
"565 492 LINE",
"700 0 LINE",
"829 0 LINE",
"1135 705 LINE",
"981 705 LINE",
"756 167 LINE",
"791 167 LINE",
"654 705 LINE",
"542 705 LINE",
"311 167 LINE",
"351 167 LINE",
"215 705 LINE",
"53 705 LINE",
"248 0 LINE"
);
}
);
width = 1116;
}
);
leftKerningGroup = V;
rightKerningGroup = V;
unicode = 0057;
userData = {
anchors = (
);
b = {
};
com.typemytype.robofont.layerData = {
b = {
anchors = (
);
components = (
);
contours = (
);
lib = {
};
name = W;
unicodes = (
);
width = 2126;
};
};
components = (
);
contours = (
);
lib = {
};
name = W;
unicodes = (
);
width = 2070;
};
},
{
glyphname = X;
lastChange = "2017-11-28 09:38:30 +0000";
layers = (
{
anchors = (
{
name = bottom;
position = "{320, 0}";
},
{
name = top;
position = "{374, 705}";
}
);
background = {
paths = (
{
closed = 1;
nodes = (
"728 705 LINE",
"538 705 LINE",
"-41 0 LINE",
"149 0 LINE"
);
},
{
closed = 1;
nodes = (
"679 0 LINE",
"205 705 LINE",
"21 705 LINE",
"495 0 LINE"
);
}
);
};
layerId = "E1B555A7-F4E1-459C-9C1A-AE952106EEF9";
paths = (
{
closed = 1;
nodes = (
"339 236 LINE",
"437 355 LINE",
"728 705 LINE",
"538 705 LINE",
"355 478 LINE",
"257 359 LINE",
"-41 0 LINE",
"149 0 LINE"
);
},
{
closed = 1;
nodes = (
"679 0 LINE",
"437 355 LINE",
"355 478 LINE",
"205 705 LINE",
"21 705 LINE",
"257 359 LINE",
"339 236 LINE",
"495 0 LINE"
);
}
);
width = 677;
}
);
leftKerningGroup = X;
rightKerningGroup = X;
unicode = 0058;
userData = {
anchors = (
);
b = {
};
com.typemytype.robofont.layerData = {
b = {
anchors = (
);
components = (
);
contours = (
{
points = (
{
segmentType = curve;
smooth = 1;
x = 151;
y = 0;
},
{
smooth = 0;
x = 176;
y = 0;
},
{
smooth = 0;
x = 201;
y = 12;
},
{
segmentType = curve;
smooth = 1;
x = 222;
y = 41;
},
{
segmentType = line;
smooth = 0;
x = 641;
y = 616;
},
{
segmentType = line;
smooth = 0;
x = 746;
y = 734;
},
{
segmentType = line;
smooth = 1;
x = 1175;
y = 1310;
},
{
smooth = 0;
x = 1186;
y = 1325;
},
{
smooth = 0;
x = 1190;
y = 1338;
},
{
segmentType = curve;
smooth = 1;
x = 1190;
y = 1353;
},
{
smooth = 0;
x = 1190;
y = 1393;
},
{
smooth = 0;
x = 1153;
y = 1426;
},
{
segmentType = curve;
smooth = 1;
x = 1110;
y = 1426;
},
{
smooth = 0;
x = 1083;
y = 1426;
},
{
smooth = 0;
x = 1058;
y = 1414;
},
{
segmentType = curve;
smooth = 1;
x = 1037;
y = 1385;
},
{
segmentType = line;
smooth = 0;
x = 648;
y = 844;
},
{
segmentType = line;
smooth = 0;
x = 542;
y = 732;
},
{
segmentType = line;
smooth = 1;
x = 84;
y = 121;
},
{
smooth = 0;
x = 73;
y = 106;
},
{
smooth = 0;
x = 68;
y = 91;
},
{
segmentType = curve;
smooth = 1;
x = 68;
y = 76;
},
{
smooth = 0;
x = 68;
y = 35;
},
{
smooth = 0;
x = 108;
y = 0;
}
);
},
{
points = (
{
segmentType = curve;
smooth = 1;
x = 1104;
y = 0;
},
{
smooth = 0;
x = 1151;
y = 0;
},
{
smooth = 0;
x = 1200;
y = 40;
},
{
segmentType = curve;
smooth = 1;
x = 1200;
y = 85;
},
{
smooth = 0;
x = 1200;
y = 98;
},
{
smooth = 0;
x = 1195;
y = 113;
},
{
segmentType = curve;
smooth = 0;
x = 1186;
y = 126;
},
{
segmentType = line;
smooth = 0;
x = 272;
y = 1385;
},
{
smooth = 0;
x = 252;
y = 1414;
},
{
smooth = 0;
x = 225;
y = 1426;
},
{
segmentType = curve;
smooth = 1;
x = 197;
y = 1426;
},
{
smooth = 0;
x = 149;
y = 1426;
},
{
smooth = 0;
x = 100;
y = 1388;
},
{
segmentType = curve;
smooth = 1;
x = 100;
y = 1343;
},
{
smooth = 0;
x = 100;
y = 1328;
},
{
smooth = 0;
x = 105;
y = 1315;
},
{
segmentType = curve;
smooth = 0;
x = 114;
y = 1303;
},
{
segmentType = line;
smooth = 0;
x = 1033;
y = 40;
},
{
smooth = 0;
x = 1052;
y = 13;
},
{
smooth = 0;
x = 1076;
y = 0;
}
);
}
);
lib = {
};
name = X;
unicodes = (
);
width = 1274;
};
};
components = (
);
contours = (
);
lib = {
};
name = X;
unicodes = (
);
width = 1322;
};
},
{
glyphname = Y;
lastChange = "2017-11-28 09:38:30 +0000";
layers = (
{
anchors = (
{
name = bottom;
position = "{301, 0}";
},
{
name = top;
position = "{355, 705}";
},
{
name = topleft;
position = "{55, 705}";
}
);
background = {
paths = (
{
closed = 1;
nodes = (
"381 0 LINE",
"410 367 LINE",
"370 275 LINE",
"729 705 LINE",
"546 705 LINE",
"316 424 LINE",
"349 424 LINE",
"165 705 LINE",
"-17 705 LINE",
"275 275 LINE",
"249 367 LINE",
"220 0 LINE"
);
}
);
};
layerId = "E1B555A7-F4E1-459C-9C1A-AE952106EEF9";
paths = (
{
closed = 1;
nodes = (
"381 0 LINE",
"410 367 LINE",
"370 275 LINE",
"729 705 LINE",
"544 705 LINE",
"314 424 LINE",
"349 424 LINE",
"162 705 LINE",
"-17 705 LINE",
"275 275 LINE",
"249 367 LINE",
"220 0 LINE"
);
}
);
width = 639;
}
);
leftKerningGroup = Y;
rightKerningGroup = Y;
unicode = 0059;
userData = {
anchors = (
);
b = {
};
com.typemytype.robofont.guides = (
);
com.typemytype.robofont.layerData = {
b = {
anchors = (
);
components = (
);
contours = (
{
points = (
{
segmentType = curve;
smooth = 1;
x = 641;
y = 0;
},
{
smooth = 0;
x = 685;
y = 0;
},
{
smooth = 0;
x = 730;
y = 29;
},
{
segmentType = curve;
smooth = 1;
x = 730;
y = 85;
},
{
segmentType = line;
smooth = 0;
x = 730;
y = 1285;
},
{
segmentType = line;
smooth = 1;
x = 1115;
y = 1285;
},
{
smooth = 0;
x = 1164;
y = 1285;
},
{
smooth = 0;
x = 1190;
y = 1319;
},
{
segmentType = curve;
smooth = 1;
x = 1190;
y = 1355;
},
{
smooth = 0;
x = 1190;
y = 1392;
},
{
smooth = 0;
x = 1166;
y = 1426;
},
{
segmentType = curve;
smooth = 1;
x = 1115;
y = 1426;
},
{
segmentType = line;
smooth = 1;
x = 160;
y = 1426;
},
{
smooth = 0;
x = 111;
y = 1426;
},
{
smooth = 0;
x = 86;
y = 1392;
},
{
segmentType = curve;
smooth = 1;
x = 86;
y = 1355;
},
{
smooth = 0;
x = 86;
y = 1319;
},
{
smooth = 0;
x = 111;
y = 1285;
},
{
segmentType = curve;
smooth = 1;
x = 160;
y = 1285;
},
{
segmentType = line;
smooth = 0;
x = 552;
y = 1285;
},
{
segmentType = line;
smooth = 1;
x = 552;
y = 85;
},
{
smooth = 0;
x = 552;
y = 29;
},
{
smooth = 0;
x = 596;
y = 0;
}
);
}
);
lib = {
};
name = Y;
unicodes = (
);
width = 1278;
};
};
components = (
);
contours = (
);
lib = {
};
name = Y;
unicodes = (
);
width = 1321;
};
},
{
glyphname = Z;
lastChange = "2017-11-28 09:38:30 +0000";
layers = (
{
anchors = (
{
name = bottom;
position = "{284, 0}";
},
{
name = top;
position = "{343, 705}";
}
);
background = {
paths = (
{
closed = 1;
nodes = (
"557 0 LINE",
"567 127 LINE",
"190 127 LINE",
"185 83 LINE",
"592 589 LINE",
"601 705 LINE",
"86 705 LINE",
"76 578 LINE",
"441 578 LINE",
"446 622 LINE",
"40 118 LINE",
"31 0 LINE"
);
}
);
};
layerId = "E1B555A7-F4E1-459C-9C1A-AE952106EEF9";
paths = (
{
closed = 1;
nodes = (
"557 0 LINE",
"567 127 LINE",
"190 127 LINE",
"190 83 LINE",
"592 589 LINE",
"601 705 LINE",
"86 705 LINE",
"76 578 LINE",
"441 578 LINE",
"441 622 LINE",
"40 118 LINE",
"31 0 LINE"
);
}
);
width = 611;
}
);
leftKerningGroup = Z;
rightKerningGroup = Z;
unicode = 005A;
userData = {
anchors = (
);
b = {
};
com.typemytype.robofont.layerData = {
b = {
anchors = (
);
components = (
);
contours = (
{
points = (
{
segmentType = curve;
smooth = 1;
x = 266;
y = 0;
},
{
segmentType = line;
smooth = 1;
x = 1035;
y = 0;
},
{
smooth = 0;
x = 1084;
y = 0;
},
{
smooth = 0;
x = 1108;
y = 34;
},
{
segmentType = curve;
smooth = 1;
x = 1108;
y = 71;
},
{
smooth = 0;
x = 1108;
y = 107;
},
{
smooth = 0;
x = 1084;
y = 141;
},
{
segmentType = curve;
smooth = 1;
x = 1035;
y = 141;
},
{
segmentType = line;
smooth = 0;
x = 356;
y = 141;
},
{
segmentType = line;
smooth = 0;
x = 356;
y = 665;
},
{
segmentType = line;
smooth = 1;
x = 975;
y = 665;
},
{
smooth = 0;
x = 1024;
y = 665;
},
{
smooth = 0;
x = 1049;
y = 698;
},
{
segmentType = curve;
smooth = 1;
x = 1049;
y = 734;
},
{
smooth = 0;
x = 1049;
y = 770;
},
{
smooth = 0;
x = 1026;
y = 803;
},
{
segmentType = curve;
smooth = 1;
x = 975;
y = 803;
},
{
segmentType = line;
smooth = 0;
x = 356;
y = 803;
},
{
segmentType = line;
smooth = 0;
x = 356;
y = 1285;
},
{
segmentType = line;
smooth = 1;
x = 1007;
y = 1285;
},
{
smooth = 0;
x = 1056;
y = 1285;
},
{
smooth = 0;
x = 1080;
y = 1319;
},
{
segmentType = curve;
smooth = 1;
x = 1080;
y = 1356;
},
{
smooth = 0;
x = 1080;
y = 1392;
},
{
smooth = 0;
x = 1056;
y = 1426;
},
{
segmentType = curve;
smooth = 1;
x = 1007;
y = 1426;
},
{
segmentType = line;
smooth = 1;
x = 261;
y = 1426;
},
{
smooth = 0;
x = 213;
y = 1426;
},
{
smooth = 0;
x = 178;
y = 1383;
},
{
segmentType = curve;
smooth = 1;
x = 178;
y = 1340;
},
{
segmentType = line;
smooth = 1;
x = 178;
y = 86;
},
{
smooth = 0;
x = 178;
y = 41;
},
{
smooth = 0;
x = 222;
y = 0;
}
);
}
);
lib = {
};
name = Z;
unicodes = (
);
width = 1165;
};
};
components = (
);
contours = (
);
lib = {
};
name = Z;
unicodes = (
);
width = 1222;
};
},
{
glyphname = a;
lastChange = "2017-11-28 09:38:30 +0000";
layers = (
{
anchors = (
{
name = bottom;
position = "{256, 0}";
},
{
name = ogonek;
position = "{451, 10}";
},
{
name = top;
position = "{299, 495}";
}
);
background = {
paths = (
{
closed = 1;
nodes = (
"269 -8 OFFCURVE",
"326 33 OFFCURVE",
"343 100 CURVE",
"335 100 LINE",
"327 0 LINE",
"474 0 LINE",
"497 289 LINE SMOOTH",
"508 435 OFFCURVE",
"445 503 OFFCURVE",
"297 503 CURVE SMOOTH",
"226 503 OFFCURVE",
"132 477 OFFCURVE",
"73 442 CURVE",
"106 338 LINE",
"160 368 OFFCURVE",
"224 387 OFFCURVE",
"272 387 CURVE SMOOTH",
"333 387 OFFCURVE",
"355 367 OFFCURVE",
"350 310 CURVE SMOOTH",
"342 202 LINE SMOOTH",
"337 141 OFFCURVE",
"295 99 OFFCURVE",
"239 99 CURVE SMOOTH",
"202 99 OFFCURVE",
"178 125 OFFCURVE",
"181 160 CURVE SMOOTH",
"184 203 OFFCURVE",
"222 218 OFFCURVE",
"326 218 CURVE SMOOTH",
"359 218 LINE",
"365 293 LINE",
"323 293 LINE SMOOTH",
"116 293 OFFCURVE",
"38 255 OFFCURVE",
"30 149 CURVE SMOOTH",
"23 58 OFFCURVE",
"94 -8 OFFCURVE",
"195 -8 CURVE SMOOTH"
);
}
);
};
layerId = "E1B555A7-F4E1-459C-9C1A-AE952106EEF9";
paths = (
{
closed = 1;
nodes = (
"270 -8 OFFCURVE",
"322 28 OFFCURVE",
"343 90 CURVE",
"335 100 LINE",
"327 0 LINE",
"474 0 LINE",
"496 281 LINE SMOOTH",
"508 431 OFFCURVE",
"442 503 OFFCURVE",
"295 503 CURVE SMOOTH",
"217 503 OFFCURVE",
"127 478 OFFCURVE",
"73 442 CURVE",
"106 338 LINE",
"156 368 OFFCURVE",
"217 387 OFFCURVE",
"266 387 CURVE SMOOTH",
"328 387 OFFCURVE",
"354 362 OFFCURVE",
"350 305 CURVE SMOOTH",
"342 202 LINE SMOOTH",
"337 141 OFFCURVE",
"297 99 OFFCURVE",
"245 99 CURVE SMOOTH",
"206 99 OFFCURVE",
"181 121 OFFCURVE",
"181 154 CURVE SMOOTH",
"181 200 OFFCURVE",
"216 218 OFFCURVE",
"316 218 CURVE SMOOTH",
"359 218 LINE",
"365 293 LINE",
"313 293 LINE SMOOTH",
"109 293 OFFCURVE",
"30 249 OFFCURVE",
"30 137 CURVE SMOOTH",
"30 55 OFFCURVE",
"102 -8 OFFCURVE",
"201 -8 CURVE SMOOTH"
);
}
);
width = 547;
}
);
leftKerningGroup = a;
rightKerningGroup = n;
unicode = 0061;
userData = {
anchors = (
);
b = {
};
com.typemytype.robofont.layerData = {
b = {
anchors = (
);
components = (
);
contours = (
);
lib = {
};
name = a;
unicodes = (
);
width = 1040;
};
};
components = (
);
contours = (
);
lib = {
};
name = a;
unicodes = (
);
width = 1101;
};
},
{
glyphname = aogonek;
lastChange = "2017-11-28 09:38:30 +0000";
layers = (
{
background = {
paths = (
{
closed = 1;
nodes = (
"434 -197 OFFCURVE",
"466 -190 OFFCURVE",
"497 -177 CURVE",
"486 -105 LINE",
"464 -113 OFFCURVE",
"446 -117 OFFCURVE",
"429 -117 CURVE SMOOTH",
"397 -117 OFFCURVE",
"376 -99 OFFCURVE",
"376 -67 CURVE SMOOTH",
"376 -35 OFFCURVE",
"398 -5 OFFCURVE",
"451 10 CURVE",
"437 46 LINE",
"331 32 OFFCURVE",
"275 -21 OFFCURVE",
"275 -91 CURVE SMOOTH",
"275 -153 OFFCURVE",
"324 -197 OFFCURVE",
"402 -197 CURVE SMOOTH"
);
}
);
};
layerId = "E1B555A7-F4E1-459C-9C1A-AE952106EEF9";
paths = (
{
closed = 1;
nodes = (
"434 -197 OFFCURVE",
"466 -190 OFFCURVE",
"497 -177 CURVE",
"486 -105 LINE",
"464 -113 OFFCURVE",
"446 -117 OFFCURVE",
"429 -117 CURVE SMOOTH",
"397 -117 OFFCURVE",
"376 -99 OFFCURVE",
"376 -67 CURVE SMOOTH",
"376 -25 OFFCURVE",
"410 0 OFFCURVE",
"458 0 CURVE SMOOTH",
"474 0 LINE",
"496 281 LINE SMOOTH",
"508 431 OFFCURVE",
"442 503 OFFCURVE",
"295 503 CURVE SMOOTH",
"217 503 OFFCURVE",
"127 478 OFFCURVE",
"73 442 CURVE",
"106 338 LINE",
"156 368 OFFCURVE",
"217 387 OFFCURVE",
"266 387 CURVE SMOOTH",
"328 387 OFFCURVE",
"354 362 OFFCURVE",
"350 305 CURVE SMOOTH",
"342 202 LINE SMOOTH",
"337 141 OFFCURVE",
"297 99 OFFCURVE",
"245 99 CURVE SMOOTH",
"206 99 OFFCURVE",
"181 120 OFFCURVE",
"181 151 CURVE SMOOTH",
"181 200 OFFCURVE",
"216 218 OFFCURVE",
"316 218 CURVE SMOOTH",
"359 218 LINE",
"365 293 LINE",
"313 293 LINE SMOOTH",
"109 293 OFFCURVE",
"30 249 OFFCURVE",
"30 137 CURVE SMOOTH",
"30 53 OFFCURVE",
"102 -8 OFFCURVE",
"197 -8 CURVE SMOOTH",
"270 -8 OFFCURVE",
"322 28 OFFCURVE",
"343 90 CURVE",
"335 100 LINE",
"327 0 LINE",
"363 0 LINE",
"379 33 LINE",
"326 16 OFFCURVE",
"275 -24 OFFCURVE",
"275 -91 CURVE SMOOTH",
"275 -153 OFFCURVE",
"324 -197 OFFCURVE",
"402 -197 CURVE SMOOTH"
);
}
);
width = 547;
}
);
leftKerningGroup = a;
rightKerningGroup = n;
unicode = 0105;
userData = {
com.typemytype.robofont.layerData = {
b = {
anchors = (
);
components = (
);
contours = (
);
lib = {
};
name = aogonek;
unicodes = (
);
width = 1040;
};
};
};
},
{
glyphname = aringacute;
lastChange = "2017-11-28 09:38:30 +0000";
layers = (
{
background = {
paths = (
{
closed = 1;
nodes = (
"288 -8 OFFCURVE",
"345 33 OFFCURVE",
"362 100 CURVE",
"354 100 LINE",
"346 0 LINE",
"493 0 LINE",
"516 289 LINE SMOOTH",
"527 435 OFFCURVE",
"464 503 OFFCURVE",
"316 503 CURVE SMOOTH",
"245 503 OFFCURVE",
"151 477 OFFCURVE",
"92 442 CURVE",
"125 338 LINE",
"179 368 OFFCURVE",
"243 387 OFFCURVE",
"291 387 CURVE SMOOTH",
"352 387 OFFCURVE",
"374 367 OFFCURVE",
"369 310 CURVE SMOOTH",
"361 202 LINE SMOOTH",
"356 141 OFFCURVE",
"314 99 OFFCURVE",
"258 99 CURVE SMOOTH",
"221 99 OFFCURVE",
"197 125 OFFCURVE",
"200 160 CURVE SMOOTH",
"203 203 OFFCURVE",
"241 218 OFFCURVE",
"345 218 CURVE SMOOTH",
"378 218 LINE",
"384 293 LINE",
"342 293 LINE SMOOTH",
"135 293 OFFCURVE",
"57 255 OFFCURVE",
"49 149 CURVE SMOOTH",
"42 58 OFFCURVE",
"113 -8 OFFCURVE",
"214 -8 CURVE SMOOTH"
);
},
{
closed = 1;
nodes = (
"383 550 OFFCURVE",
"436 597 OFFCURVE",
"441 658 CURVE SMOOTH",
"446 719 OFFCURVE",
"400 766 OFFCURVE",
"339 766 CURVE SMOOTH",
"278 766 OFFCURVE",
"226 719 OFFCURVE",
"221 658 CURVE SMOOTH",
"216 597 OFFCURVE",
"261 550 OFFCURVE",
"322 550 CURVE SMOOTH"
);
},
{
closed = 1;
nodes = (
"302 613 OFFCURVE",
"286 633 OFFCURVE",
"288 658 CURVE SMOOTH",
"290 683 OFFCURVE",
"309 703 OFFCURVE",
"334 703 CURVE SMOOTH",
"359 703 OFFCURVE",
"376 683 OFFCURVE",
"374 658 CURVE SMOOTH",
"372 633 OFFCURVE",
"352 613 OFFCURVE",
"327 613 CURVE SMOOTH"
);
},
{
closed = 1;
nodes = (
"598 854 LINE",
"455 854 LINE",
"367 739 LINE",
"427 694 LINE"
);
}
);
};
layerId = "E1B555A7-F4E1-459C-9C1A-AE952106EEF9";
paths = (
{
closed = 1;
nodes = (
"270 -8 OFFCURVE",
"322 28 OFFCURVE",
"343 90 CURVE",
"335 100 LINE",
"327 0 LINE",
"474 0 LINE",
"496 281 LINE SMOOTH",
"508 431 OFFCURVE",
"442 503 OFFCURVE",
"295 503 CURVE SMOOTH",
"217 503 OFFCURVE",
"127 478 OFFCURVE",
"73 442 CURVE",
"106 338 LINE",
"156 368 OFFCURVE",
"217 387 OFFCURVE",
"266 387 CURVE SMOOTH",
"328 387 OFFCURVE",
"354 362 OFFCURVE",
"350 305 CURVE SMOOTH",
"342 202 LINE SMOOTH",
"337 141 OFFCURVE",
"297 99 OFFCURVE",
"245 99 CURVE SMOOTH",
"206 99 OFFCURVE",
"181 120 OFFCURVE",
"181 151 CURVE SMOOTH",
"181 200 OFFCURVE",
"216 218 OFFCURVE",
"316 218 CURVE SMOOTH",
"359 218 LINE",
"365 293 LINE",
"313 293 LINE SMOOTH",
"109 293 OFFCURVE",
"30 249 OFFCURVE",
"30 137 CURVE SMOOTH",
"30 53 OFFCURVE",
"102 -8 OFFCURVE",
"201 -8 CURVE SMOOTH"
);
},
{
closed = 1;
nodes = (
"364 550 OFFCURVE",
"417 597 OFFCURVE",
"422 658 CURVE SMOOTH",
"427 719 OFFCURVE",
"381 766 OFFCURVE",
"320 766 CURVE SMOOTH",
"259 766 OFFCURVE",
"207 719 OFFCURVE",
"202 658 CURVE SMOOTH",
"197 597 OFFCURVE",
"242 550 OFFCURVE",
"303 550 CURVE SMOOTH"
);
},
{
closed = 1;
nodes = (
"283 613 OFFCURVE",
"267 633 OFFCURVE",
"269 658 CURVE SMOOTH",
"271 683 OFFCURVE",
"290 703 OFFCURVE",
"315 703 CURVE SMOOTH",
"340 703 OFFCURVE",
"357 683 OFFCURVE",
"355 658 CURVE SMOOTH",
"353 633 OFFCURVE",
"333 613 OFFCURVE",
"308 613 CURVE SMOOTH"
);
},
{
closed = 1;
nodes = (
"583 854 LINE",
"432 854 LINE",
"348 739 LINE",
"408 694 LINE"
);
}
);
width = 547;
}
);
leftKerningGroup = a;
rightKerningGroup = n;
unicode = 01FB;
},
{
glyphname = ae;
lastChange = "2017-11-28 09:38:30 +0000";
layers = (
{
anchors = (
{
name = bottom;
position = "{398, 0}";
},
{
name = top;
position = "{437, 495}";
}
);
background = {
paths = (
{
closed = 1;
nodes = (
"654 -8 OFFCURVE",
"730 15 OFFCURVE",
"781 52 CURVE",
"748 156 LINE",
"703 125 OFFCURVE",
"649 108 OFFCURVE",
"595 108 CURVE SMOOTH",
"514 108 OFFCURVE",
"484 153 OFFCURVE",
"493 263 CURVE SMOOTH",
"500 349 OFFCURVE",
"538 396 OFFCURVE",
"601 396 CURVE SMOOTH",
"655 396 OFFCURVE",
"682 354 OFFCURVE",
"676 278 CURVE",
"715 293 LINE",
"485 293 LINE",
"478 216 LINE",
"802 216 LINE",
"805 254 LINE SMOOTH",
"817 403 OFFCURVE",
"739 503 OFFCURVE",
"613 503 CURVE SMOOTH",
"476 503 OFFCURVE",
"375 400 OFFCURVE",
"363 247 CURVE SMOOTH",
"350 84 OFFCURVE",
"431 -8 OFFCURVE",
"585 -8 CURVE SMOOTH"
);
},
{
closed = 1;
nodes = (
"328 -8 OFFCURVE",
"411 65 OFFCURVE",
"421 193 CURVE",
"472 202 LINE",
"479 289 LINE SMOOTH",
"491 436 OFFCURVE",
"433 503 OFFCURVE",
"296 503 CURVE SMOOTH",
"225 503 OFFCURVE",
"131 477 OFFCURVE",
"73 442 CURVE",
"106 338 LINE",
"160 369 OFFCURVE",
"224 387 OFFCURVE",
"277 387 CURVE SMOOTH",
"331 387 OFFCURVE",
"352 364 OFFCURVE",
"348 310 CURVE SMOOTH",
"340 202 LINE SMOOTH",
"336 144 OFFCURVE",
"294 99 OFFCURVE",
"244 99 CURVE SMOOTH",
"204 99 OFFCURVE",
"178 123 OFFCURVE",
"181 160 CURVE SMOOTH",
"184 202 OFFCURVE",
"222 218 OFFCURVE",
"324 218 CURVE SMOOTH",
"347 218 LINE",
"353 293 LINE",
"321 293 LINE SMOOTH",
"116 293 OFFCURVE",
"38 255 OFFCURVE",
"30 149 CURVE SMOOTH",
"23 57 OFFCURVE",
"100 -8 OFFCURVE",
"214 -8 CURVE SMOOTH"
);
}
);
};
layerId = "E1B555A7-F4E1-459C-9C1A-AE952106EEF9";
paths = (
{
closed = 1;
nodes = (
"328 -8 OFFCURVE",
"421 65 OFFCURVE",
"431 193 CURVE",
"472 202 LINE",
"479 289 LINE SMOOTH",
"489 414 OFFCURVE",
"442 503 OFFCURVE",
"295 503 CURVE SMOOTH",
"217 503 OFFCURVE",
"127 478 OFFCURVE",
"73 442 CURVE",
"106 338 LINE",
"156 368 OFFCURVE",
"217 387 OFFCURVE",
"264 387 CURVE SMOOTH",
"326 387 OFFCURVE",
"352 362 OFFCURVE",
"348 305 CURVE SMOOTH",
"340 202 LINE SMOOTH",
"335 141 OFFCURVE",
"295 99 OFFCURVE",
"244 99 CURVE SMOOTH",
"206 99 OFFCURVE",
"181 120 OFFCURVE",
"181 151 CURVE SMOOTH",
"181 200 OFFCURVE",
"216 218 OFFCURVE",
"316 218 CURVE SMOOTH",
"347 218 LINE",
"353 293 LINE",
"313 293 LINE SMOOTH",
"109 293 OFFCURVE",
"30 249 OFFCURVE",
"30 137 CURVE SMOOTH",
"30 53 OFFCURVE",
"102 -8 OFFCURVE",
"214 -8 CURVE SMOOTH"
);
},
{
closed = 1;
nodes = (
"667 -8 OFFCURVE",
"738 15 OFFCURVE",
"781 52 CURVE",
"748 156 LINE",
"705 125 OFFCURVE",
"659 108 OFFCURVE",
"610 108 CURVE SMOOTH",
"533 108 OFFCURVE",
"491 150 OFFCURVE",
"491 237 CURVE SMOOTH",
"491 349 OFFCURVE",
"530 396 OFFCURVE",
"597 396 CURVE SMOOTH",
"646 396 OFFCURVE",
"680 360 OFFCURVE",
"676 278 CURVE",
"715 293 LINE",
"485 293 LINE",
"478 216 LINE",
"802 216 LINE",
"823 405 OFFCURVE",
"731 503 OFFCURVE",
"599 503 CURVE SMOOTH",
"461 503 OFFCURVE",
"362 393 OFFCURVE",
"362 233 CURVE SMOOTH",
"362 87 OFFCURVE",
"447 -8 OFFCURVE",
"598 -8 CURVE SMOOTH"
);
}
);
width = 836;
}
);
leftKerningGroup = a;
rightKerningGroup = e;
unicode = 00E6;
userData = {
com.typemytype.robofont.layerData = {
b = {
anchors = (
);
components = (
);
contours = (
);
lib = {
};
name = ae;
unicodes = (
);
width = 1734;
};
};
};
},
{
glyphname = b;
lastChange = "2017-11-28 09:38:30 +0000";
layers = (
{
anchors = (
{
name = bottom;
position = "{289, 0}";
},
{
name = top;
position = "{385, 495}";
}
);
background = {
paths = (
{
closed = 1;
nodes = (
"300 503 OFFCURVE",
"240 468 OFFCURVE",
"212 411 CURVE",
"222 377 LINE",
"231 495 LINE",
"77 495 LINE",
"22 -210 LINE",
"178 -210 LINE",
"204 115 LINE",
"190 79 LINE",
"221 24 OFFCURVE",
"274 -8 OFFCURVE",
"348 -8 CURVE SMOOTH",
"488 -8 OFFCURVE",
"583 105 OFFCURVE",
"583 267 CURVE SMOOTH",
"583 414 OFFCURVE",
"498 503 OFFCURVE",
"374 503 CURVE SMOOTH"
);
},
{
closed = 1;
nodes = (
"389 386 OFFCURVE",
"428 340 OFFCURVE",
"428 257 CURVE SMOOTH",
"428 166 OFFCURVE",
"386 109 OFFCURVE",
"316 109 CURVE SMOOTH",
"249 109 OFFCURVE",
"211 153 OFFCURVE",
"211 240 CURVE SMOOTH",
"211 328 OFFCURVE",
"253 386 OFFCURVE",
"321 386 CURVE SMOOTH"
);
}
);
};
layerId = "E1B555A7-F4E1-459C-9C1A-AE952106EEF9";
paths = (
{
closed = 1;
nodes = (
"488 -8 OFFCURVE",
"583 105 OFFCURVE",
"583 267 CURVE SMOOTH",
"583 414 OFFCURVE",
"498 503 OFFCURVE",
"374 503 CURVE SMOOTH",
"300 503 OFFCURVE",
"240 468 OFFCURVE",
"212 411 CURVE",
"223 380 LINE",
"249 705 LINE",
"93 705 LINE",
"38 0 LINE",
"192 0 LINE",
"201 118 LINE",
"190 79 LINE",
"221 24 OFFCURVE",
"274 -8 OFFCURVE",
"348 -8 CURVE SMOOTH"
);
},
{
closed = 1;
nodes = (
"249 109 OFFCURVE",
"211 153 OFFCURVE",
"211 240 CURVE SMOOTH",
"211 328 OFFCURVE",
"253 386 OFFCURVE",
"321 386 CURVE SMOOTH",
"389 386 OFFCURVE",
"428 340 OFFCURVE",
"428 257 CURVE SMOOTH",
"428 166 OFFCURVE",
"386 109 OFFCURVE",
"316 109 CURVE SMOOTH"
);
}
);
width = 615;
}
);
leftKerningGroup = h;
rightKerningGroup = o;
unicode = 0062;
userData = {
anchors = (
);
b = {
};
com.typemytype.robofont.layerData = {
b = {
anchors = (
);
components = (
);
contours = (
{
points = (
{
segmentType = curve;
smooth = 1;
x = 238;
y = 1425;
},
{
smooth = 0;
x = 198;
y = 1425;
},
{
smooth = 0;
x = 158;
y = 1400;
},
{
segmentType = curve;
smooth = 1;
x = 158;
y = 1351;
},
{
segmentType = line;
smooth = 1;
x = 158;
y = 76;
},
{
smooth = 0;
x = 158;
y = 27;
},
{
smooth = 0;
x = 197;
y = 3;
},
{
segmentType = curve;
smooth = 1;
x = 237;
y = 3;
},
{
smooth = 0;
x = 297;
y = 3;
},
{
smooth = 0;
x = 318;
y = 38;
},
{
segmentType = curve;
smooth = 1;
x = 318;
y = 76;
},
{
segmentType = line;
smooth = 0;
x = 318;
y = 183;
},
{
smooth = 0;
x = 384;
y = 46;
},
{
smooth = 0;
x = 516;
y = "-20";
},
{
segmentType = curve;
smooth = 1;
x = 666;
y = "-20";
},
{
smooth = 0;
x = 957;
y = "-20";
},
{
smooth = 0;
x = 1095;
y = 225;
},
{
segmentType = curve;
smooth = 1;
x = 1095;
y = 502;
},
{
smooth = 0;
x = 1095;
y = 777;
},
{
smooth = 0;
x = 939;
y = 1013;
},
{
segmentType = curve;
smooth = 1;
x = 650;
y = 1013;
},
{
smooth = 0;
x = 503;
y = 1013;
},
{
smooth = 0;
x = 376;
y = 942;
},
{
segmentType = curve;
smooth = 0;
x = 318;
y = 814;
},
{
segmentType = line;
smooth = 1;
x = 318;
y = 1351;
},
{
smooth = 0;
x = 318;
y = 1400;
},
{
smooth = 0;
x = 278;
y = 1425;
}
);
},
{
points = (
{
segmentType = curve;
smooth = 1;
x = 632;
y = 903;
},
{
smooth = 0;
x = 859;
y = 903;
},
{
smooth = 0;
x = 935;
y = 685;
},
{
segmentType = curve;
smooth = 1;
x = 935;
y = 496;
},
{
smooth = 0;
x = 935;
y = 316;
},
{
smooth = 0;
x = 869;
y = 93;
},
{
segmentType = curve;
smooth = 0;
x = 645;
y = 90;
},
{
smooth = 0;
x = 395;
y = 90;
},
{
smooth = 0;
x = 319;
y = 279;
},
{
segmentType = curve;
smooth = 1;
x = 319;
y = 501;
},
{
smooth = 0;
x = 319;
y = 701;
},
{
smooth = 0;
x = 407;
y = 903;
}
);
}
);
lib = {
};
name = b;
unicodes = (
);
width = 1181;
};
};
components = (
);
contours = (
);
lib = {
};
name = b;
unicodes = (
);
width = 1203;
};
},
{
glyphname = c;
lastChange = "2017-11-28 09:38:30 +0000";
layers = (
{
anchors = (
{
name = bottom;
position = "{267, 0}";
},
{
name = top;
position = "{315, 495}";
}
);
background = {
anchors = (
{
name = bottom;
position = "{286, 0}";
},
{
name = top;
position = "{373, 495}";
}
);
paths = (
{
closed = 1;
nodes = (
"452 -8 OFFCURVE",
"558 93 OFFCURVE",
"558 261 CURVE SMOOTH",
"558 407 OFFCURVE",
"458 503 OFFCURVE",
"298 503 CURVE SMOOTH",
"139 503 OFFCURVE",
"33 402 OFFCURVE",
"33 234 CURVE SMOOTH",
"33 88 OFFCURVE",
"133 -8 OFFCURVE",
"293 -8 CURVE SMOOTH"
);
},
{
closed = 1;
nodes = (
"222 109 OFFCURVE",
"188 149 OFFCURVE",
"188 231 CURVE SMOOTH",
"188 315 OFFCURVE",
"219 386 OFFCURVE",
"300 386 CURVE SMOOTH",
"369 386 OFFCURVE",
"403 346 OFFCURVE",
"403 265 CURVE SMOOTH",
"403 180 OFFCURVE",
"372 109 OFFCURVE",
"291 109 CURVE SMOOTH"
);
}
);
};
layerId = "E1B555A7-F4E1-459C-9C1A-AE952106EEF9";
paths = (
{
closed = 1;
nodes = (
"359 -8 OFFCURVE",
"426 14 OFFCURVE",
"471 52 CURVE",
"439 159 LINE",
"397 129 OFFCURVE",
"354 111 OFFCURVE",
"304 111 CURVE SMOOTH",
"237 111 OFFCURVE",
"193 153 OFFCURVE",
"193 235 CURVE SMOOTH",
"193 330 OFFCURVE",
"239 384 OFFCURVE",
"318 384 CURVE SMOOTH",
"363 384 OFFCURVE",
"410 367 OFFCURVE",
"452 336 CURVE",
"502 443 LINE",
"455 480 OFFCURVE",
"391 503 OFFCURVE",
"309 503 CURVE SMOOTH",
"142 503 OFFCURVE",
"33 402 OFFCURVE",
"33 232 CURVE SMOOTH",
"33 88 OFFCURVE",
"133 -8 OFFCURVE",
"293 -8 CURVE SMOOTH"
);
}
);
width = 495;
}
);
leftKerningGroup = o;
rightKerningGroup = c;
unicode = 0063;
userData = {
anchors = (
);
b = {
};
com.typemytype.robofont.layerData = {
b = {
anchors = (
);
components = (
);
contours = (
);
lib = {
};
name = c;
unicodes = (
);
width = 956.14099;
};
};
components = (
);
contours = (
);
lib = {
};
name = c;
unicodes = (
);
width = 992;
};
},
{
glyphname = d;
lastChange = "2017-11-28 09:38:30 +0000";
layers = (
{
anchors = (
{
name = bottom;
position = "{289, 0}";
},
{
name = center;
position = "{309, 248}";
},
{
name = top;
position = "{328, 495}";
},
{
name = topright;
position = "{619, 705}";
}
);
background = {
paths = (
{
closed = 1;
nodes = (
"916 -8 OFFCURVE",
"976 27 OFFCURVE",
"1004 84 CURVE",
"994 118 LINE",
"985 0 LINE",
"1139 0 LINE",
"1194 705 LINE",
"1038 705 LINE",
"1012 380 LINE",
"1026 416 LINE",
"995 471 OFFCURVE",
"942 503 OFFCURVE",
"868 503 CURVE SMOOTH",
"728 503 OFFCURVE",
"633 386 OFFCURVE",
"633 238 CURVE SMOOTH",
"633 83 OFFCURVE",
"718 -8 OFFCURVE",
"842 -8 CURVE SMOOTH"
);
},
{
closed = 1;
nodes = (
"830 109 OFFCURVE",
"788 150 OFFCURVE",
"788 238 CURVE SMOOTH",
"788 331 OFFCURVE",
"833 386 OFFCURVE",
"898 386 CURVE SMOOTH",
"969 386 OFFCURVE",
"1005 345 OFFCURVE",
"1005 265 CURVE SMOOTH",
"1005 164 OFFCURVE",
"966 109 OFFCURVE",
"895 109 CURVE SMOOTH"
);
},
{
closed = 1;
nodes = (
"227 109 OFFCURVE",
"188 155 OFFCURVE",
"188 235 CURVE SMOOTH",
"188 329 OFFCURVE",
"230 386 OFFCURVE",
"299 386 CURVE SMOOTH",
"367 386 OFFCURVE",
"405 342 OFFCURVE",
"405 262 CURVE SMOOTH",
"405 167 OFFCURVE",
"363 109 OFFCURVE",
"293 109 CURVE SMOOTH"
);
}
);
};
guideLines = (
{
angle = 89.3795;
position = "{267, 248}";
}
);
layerId = "E1B555A7-F4E1-459C-9C1A-AE952106EEF9";
paths = (
{
closed = 1;
nodes = (
"316 -8 OFFCURVE",
"376 27 OFFCURVE",
"404 84 CURVE",
"393 118 LINE",
"384 0 LINE",
"538 0 LINE",
"594 705 LINE",
"438 705 LINE",
"412 380 LINE",
"426 416 LINE",
"395 471 OFFCURVE",
"342 503 OFFCURVE",
"268 503 CURVE SMOOTH",
"128 503 OFFCURVE",
"33 390 OFFCURVE",
"33 228 CURVE SMOOTH",
"33 81 OFFCURVE",
"118 -8 OFFCURVE",
"242 -8 CURVE SMOOTH"
);
},
{
closed = 1;
nodes = (
"227 109 OFFCURVE",
"188 155 OFFCURVE",
"188 238 CURVE SMOOTH",
"188 329 OFFCURVE",
"230 386 OFFCURVE",
"300 386 CURVE SMOOTH",
"367 386 OFFCURVE",
"405 342 OFFCURVE",
"405 255 CURVE SMOOTH",
"405 167 OFFCURVE",
"363 109 OFFCURVE",
"295 109 CURVE SMOOTH"
);
}
);
width = 615;
}
);
leftKerningGroup = o;
rightKerningGroup = l;
unicode = 0064;
userData = {
anchors = (
);
b = {
};
com.typemytype.robofont.layerData = {
b = {
anchors = (
);
components = (
);
contours = (
);
lib = {
};
name = d;
unicodes = (
);
width = 1181;
};
};
components = (
);
contours = (
);
lib = {
};
name = d;
unicodes = (
);
width = 1207;
};
},
{
glyphname = eth;
lastChange = "2017-11-28 09:38:30 +0000";
layers = (
{
background = {
paths = (
{
closed = 1;
nodes = (
"1043 -8 OFFCURVE",
"1151 103 OFFCURVE",
"1166 298 CURVE SMOOTH",
"1180 483 OFFCURVE",
"1065 682 OFFCURVE",
"816 716 CURVE",
"774 610 LINE",
"921 590 OFFCURVE",
"1035 482 OFFCURVE",
"1023 326 CURVE",
"1063 321 LINE",
"1045 411 OFFCURVE",
"988 455 OFFCURVE",
"889 455 CURVE SMOOTH",
"748 455 OFFCURVE",
"640 360 OFFCURVE",
"630 225 CURVE SMOOTH",
"620 86 OFFCURVE",
"715 -8 OFFCURVE",
"867 -8 CURVE SMOOTH"
);
},
{
closed = 1;
nodes = (
"813 110 OFFCURVE",
"779 149 OFFCURVE",
"785 225 CURVE SMOOTH",
"791 301 OFFCURVE",
"831 340 OFFCURVE",
"901 340 CURVE SMOOTH",
"971 340 OFFCURVE",
"1005 301 OFFCURVE",
"999 225 CURVE SMOOTH",
"993 151 OFFCURVE",
"952 110 OFFCURVE",
"883 110 CURVE SMOOTH"
);
},
{
closed = 1;
nodes = (
"1183 571 LINE",
"1168 650 LINE",
"768 545 LINE",
"783 466 LINE"
);
},
{
closed = 1;
nodes = (
"450 -8 OFFCURVE",
"556 84 OFFCURVE",
"556 236 CURVE SMOOTH",
"556 368 OFFCURVE",
"456 455 OFFCURVE",
"296 455 CURVE SMOOTH",
"137 455 OFFCURVE",
"31 363 OFFCURVE",
"31 211 CURVE SMOOTH",
"31 79 OFFCURVE",
"131 -8 OFFCURVE",
"291 -8 CURVE SMOOTH"
);
},
{
closed = 1;
nodes = (
"220 109 OFFCURVE",
"186 142 OFFCURVE",
"186 211 CURVE SMOOTH",
"186 281 OFFCURVE",
"217 340 OFFCURVE",
"298 340 CURVE SMOOTH",
"367 340 OFFCURVE",
"401 307 OFFCURVE",
"401 239 CURVE SMOOTH",
"401 168 OFFCURVE",
"370 109 OFFCURVE",
"289 109 CURVE SMOOTH"
);
}
);
};
guideLines = (
{
angle = 90;
position = "{284, 652}";
},
{
angle = 90;
position = "{699, 652}";
}
);
layerId = "E1B555A7-F4E1-459C-9C1A-AE952106EEF9";
paths = (
{
closed = 1;
nodes = (
"450 -8 OFFCURVE",
"569 84 OFFCURVE",
"569 318 CURVE SMOOTH",
"569 504 OFFCURVE",
"454 684 OFFCURVE",
"218 716 CURVE",
"176 610 LINE",
"323 590 OFFCURVE",
"437 482 OFFCURVE",
"425 326 CURVE",
"465 321 LINE",
"439 424 OFFCURVE",
"368 455 OFFCURVE",
"282 455 CURVE SMOOTH",
"141 455 OFFCURVE",
"31 363 OFFCURVE",
"31 214 CURVE SMOOTH",
"31 79 OFFCURVE",
"131 -8 OFFCURVE",
"291 -8 CURVE SMOOTH"
);
},
{
closed = 1;
nodes = (
"220 110 OFFCURVE",
"186 156 OFFCURVE",
"186 216 CURVE SMOOTH",
"186 281 OFFCURVE",
"217 340 OFFCURVE",
"298 340 CURVE SMOOTH",
"367 340 OFFCURVE",
"401 298 OFFCURVE",
"401 237 CURVE SMOOTH",
"401 168 OFFCURVE",
"370 110 OFFCURVE",
"289 110 CURVE SMOOTH"
);
},
{
closed = 1;
nodes = (
"585 571 LINE",
"570 650 LINE",
"170 545 LINE",
"185 466 LINE"
);
}
);
width = 597;
}
);
leftKerningGroup = o;
rightKerningGroup = o;
unicode = 00F0;
userData = {
com.typemytype.robofont.layerData = {
b = {
anchors = (
);
components = (
);
contours = (
);
lib = {
};
name = eth;
unicodes = (
);
width = 1230;
};
};
};
},
{
glyphname = dcaron;
lastChange = "2017-11-28 09:38:30 +0000";
layers = (
{
background = {
components = (
{
name = d;
}
);
paths = (
{
closed = 1;
nodes = (
"717 705 LINE",
"638 705 LINE",
"623 511 LINE",
"676 511 LINE"
);
}
);
};
components = (
{
name = d;
}
);
layerId = "E1B555A7-F4E1-459C-9C1A-AE952106EEF9";
paths = (
{
closed = 1;
nodes = (
"698 705 LINE",
"619 705 LINE",
"604 511 LINE",
"657 511 LINE"
);
}
);
width = 615;
}
);
leftKerningGroup = o;
rightKerningGroup = lcaron;
unicode = 010F;
},
{
glyphname = dcroat;
lastChange = "2017-11-28 09:38:30 +0000";
layers = (
{
background = {
paths = (
{
closed = 1;
nodes = (
"665 531 LINE",
"673 639 LINE",
"247 639 LINE",
"239 531 LINE"
);
},
{
closed = 1;
nodes = (
"593 705 LINE",
"437 705 LINE",
"412 380 LINE",
"426 399 LINE",
"409 463 OFFCURVE",
"348 503 OFFCURVE",
"270 503 CURVE SMOOTH",
"142 503 OFFCURVE",
"45 404 OFFCURVE",
"33 250 CURVE SMOOTH",
"21 96 OFFCURVE",
"102 -8 OFFCURVE",
"229 -8 CURVE SMOOTH",
"307 -8 OFFCURVE",
"376 32 OFFCURVE",
"403 96 CURVE",
"393 118 LINE",
"384 0 LINE",
"538 0 LINE"
);
},
{
closed = 1;
nodes = (
"217 110 OFFCURVE",
"181 161 OFFCURVE",
"188 250 CURVE SMOOTH",
"195 337 OFFCURVE",
"237 385 OFFCURVE",
"306 385 CURVE SMOOTH",
"375 385 OFFCURVE",
"410 336 OFFCURVE",
"404 248 CURVE SMOOTH",
"397 159 OFFCURVE",
"354 110 OFFCURVE",
"285 110 CURVE SMOOTH"
);
}
);
};
layerId = "E1B555A7-F4E1-459C-9C1A-AE952106EEF9";
paths = (
{
closed = 1;
nodes = (
"316 -8 OFFCURVE",
"376 27 OFFCURVE",
"404 84 CURVE",
"394 118 LINE",
"385 0 LINE",
"539 0 LINE",
"594 705 LINE",
"438 705 LINE",
"412 380 LINE",
"426 416 LINE",
"395 471 OFFCURVE",
"342 503 OFFCURVE",
"268 503 CURVE SMOOTH",
"128 503 OFFCURVE",
"33 386 OFFCURVE",
"33 238 CURVE SMOOTH",
"33 83 OFFCURVE",
"118 -8 OFFCURVE",
"242 -8 CURVE SMOOTH"
);
},
{
closed = 1;
nodes = (
"230 109 OFFCURVE",
"188 150 OFFCURVE",
"188 238 CURVE SMOOTH",
"188 331 OFFCURVE",
"233 386 OFFCURVE",
"298 386 CURVE SMOOTH",
"369 386 OFFCURVE",
"405 345 OFFCURVE",
"405 265 CURVE SMOOTH",
"405 164 OFFCURVE",
"366 109 OFFCURVE",
"295 109 CURVE SMOOTH"
);
},
{
closed = 1;
nodes = (
"665 531 LINE",
"673 639 LINE",
"247 639 LINE",
"239 531 LINE"
);
}
);
width = 615;
}
);
leftKerningGroup = o;
rightKerningGroup = l;
unicode = 0111;
userData = {
com.typemytype.robofont.layerData = {
b = {
anchors = (
);
components = (
);
contours = (
);
lib = {
};
name = dcroat;
unicodes = (
);
width = 1181;
};
};
};
},
{
glyphname = e;
lastChange = "2017-11-28 09:38:30 +0000";
layers = (
{
anchors = (
{
name = bottom;
position = "{278, 0}";
},
{
name = ogonek;
position = "{380, 10}";
},
{
name = top;
position = "{296, 495}";
}
);
background = {
paths = (
{
closed = 1;
nodes = (
"445 156 LINE",
"402 125 OFFCURVE",
"356 108 OFFCURVE",
"303 108 CURVE SMOOTH",
"224 108 OFFCURVE",
"182 150 OFFCURVE",
"182 237 CURVE SMOOTH",
"182 349 OFFCURVE",
"221 396 OFFCURVE",
"288 396 CURVE SMOOTH",
"343 396 OFFCURVE",
"377 360 OFFCURVE",
"373 278 CURVE",
"412 293 LINE",
"176 293 LINE",
"169 216 LINE",
"499 216 LINE",
"520 405 OFFCURVE",
"428 503 OFFCURVE",
"283 503 CURVE SMOOTH",
"140 503 OFFCURVE",
"33 393 OFFCURVE",
"33 233 CURVE SMOOTH",
"33 87 OFFCURVE",
"136 -8 OFFCURVE",
"292 -8 CURVE SMOOTH",
"364 -8 OFFCURVE",
"426 15 OFFCURVE",
"478 52 CURVE"
);
}
);
};
guideLines = (
{
angle = 90;
position = "{613, 546}";
}
);
layerId = "E1B555A7-F4E1-459C-9C1A-AE952106EEF9";
paths = (
{
closed = 1;
nodes = (
"445 156 LINE",
"402 125 OFFCURVE",
"356 108 OFFCURVE",
"303 108 CURVE SMOOTH",
"224 108 OFFCURVE",
"182 150 OFFCURVE",
"182 237 CURVE SMOOTH",
"182 349 OFFCURVE",
"221 396 OFFCURVE",
"288 396 CURVE SMOOTH",
"343 396 OFFCURVE",
"377 360 OFFCURVE",
"373 278 CURVE",
"412 293 LINE",
"176 293 LINE",
"169 216 LINE",
"499 216 LINE",
"520 405 OFFCURVE",
"428 503 OFFCURVE",
"283 503 CURVE SMOOTH",
"140 503 OFFCURVE",
"33 393 OFFCURVE",
"33 233 CURVE SMOOTH",
"33 87 OFFCURVE",
"136 -8 OFFCURVE",
"292 -8 CURVE SMOOTH",
"364 -8 OFFCURVE",
"435 15 OFFCURVE",
"478 52 CURVE"
);
}
);
width = 533;
}
);
leftKerningGroup = o;
rightKerningGroup = e;
unicode = 0065;
userData = {
anchors = (
);
b = {
};
com.typemytype.robofont.layerData = {
b = {
anchors = (
);
components = (
);
contours = (
);
lib = {
};
name = e;
unicodes = (
);
width = 1132;
};
};
components = (
);
contours = (
);
lib = {
};
name = e;
unicodes = (
);
width = 1132;
};
},
{
glyphname = eogonek;
lastChange = "2017-11-28 09:38:30 +0000";
layers = (
{
anchors = (
{
name = top;
position = "{296, 495}";
}
);
background = {
anchors = (
{
name = top;
position = "{315, 495}";
}
);
paths = (
{
closed = 1;
nodes = (
"445 156 LINE",
"402 125 OFFCURVE",
"356 108 OFFCURVE",
"303 108 CURVE SMOOTH",
"224 108 OFFCURVE",
"182 150 OFFCURVE",
"182 237 CURVE SMOOTH",
"182 349 OFFCURVE",
"221 396 OFFCURVE",
"288 396 CURVE SMOOTH",
"343 396 OFFCURVE",
"377 360 OFFCURVE",
"373 278 CURVE",
"412 293 LINE",
"176 293 LINE",
"169 216 LINE",
"499 216 LINE",
"520 405 OFFCURVE",
"428 503 OFFCURVE",
"283 503 CURVE SMOOTH",
"140 503 OFFCURVE",
"33 393 OFFCURVE",
"33 233 CURVE SMOOTH",
"33 87 OFFCURVE",
"136 -8 OFFCURVE",
"292 -8 CURVE SMOOTH",
"364 -8 OFFCURVE",
"435 15 OFFCURVE",
"478 52 CURVE"
);
},
{
closed = 1;
nodes = (
"396 -197 OFFCURVE",
"428 -190 OFFCURVE",
"459 -177 CURVE",
"448 -105 LINE",
"426 -113 OFFCURVE",
"408 -117 OFFCURVE",
"391 -117 CURVE SMOOTH",
"359 -117 OFFCURVE",
"338 -99 OFFCURVE",
"338 -67 CURVE SMOOTH",
"338 -35 OFFCURVE",
"360 -5 OFFCURVE",
"413 10 CURVE",
"399 46 LINE",
"293 32 OFFCURVE",
"237 -21 OFFCURVE",
"237 -91 CURVE SMOOTH",
"237 -153 OFFCURVE",
"286 -197 OFFCURVE",
"364 -197 CURVE SMOOTH"
);
}
);
};
guideLines = (
{
angle = 90;
position = "{603, 515}";
}
);
layerId = "E1B555A7-F4E1-459C-9C1A-AE952106EEF9";
paths = (
{
closed = 1;
nodes = (
"396 -197 OFFCURVE",
"428 -190 OFFCURVE",
"459 -177 CURVE",
"448 -105 LINE",
"426 -113 OFFCURVE",
"408 -117 OFFCURVE",
"391 -117 CURVE SMOOTH",
"359 -117 OFFCURVE",
"338 -99 OFFCURVE",
"338 -67 CURVE SMOOTH",
"338 -33 OFFCURVE",
"358 -9 OFFCURVE",
"418 16 CURVE SMOOTH",
"445 27 OFFCURVE",
"467 40 OFFCURVE",
"478 52 CURVE",
"445 156 LINE",
"402 125 OFFCURVE",
"356 108 OFFCURVE",
"303 108 CURVE SMOOTH",
"224 108 OFFCURVE",
"182 150 OFFCURVE",
"182 237 CURVE SMOOTH",
"182 349 OFFCURVE",
"221 396 OFFCURVE",
"288 396 CURVE SMOOTH",
"343 396 OFFCURVE",
"377 360 OFFCURVE",
"373 278 CURVE",
"412 293 LINE",
"176 293 LINE",
"169 216 LINE",
"499 216 LINE",
"520 405 OFFCURVE",
"428 503 OFFCURVE",
"283 503 CURVE SMOOTH",
"140 503 OFFCURVE",
"33 393 OFFCURVE",
"33 233 CURVE SMOOTH",
"33 87 OFFCURVE",
"136 -8 OFFCURVE",
"292 -8 CURVE SMOOTH",
"299 -8 OFFCURVE",
"313 -6 OFFCURVE",
"333 -3 CURVE",
"305 13 LINE",
"262 -5 OFFCURVE",
"237 -45 OFFCURVE",
"237 -91 CURVE SMOOTH",
"237 -153 OFFCURVE",
"286 -197 OFFCURVE",
"364 -197 CURVE SMOOTH"
);
}
);
width = 533;
}
);
leftKerningGroup = o;
rightKerningGroup = e;
unicode = 0119;
},
{
glyphname = schwa;
lastChange = "2017-11-28 09:38:30 +0000";
layers = (
{
background = {
paths = (
{
closed = 1;
nodes = (
"88 339 LINE",
"145 371 OFFCURVE",
"195 387 OFFCURVE",
"242 387 CURVE SMOOTH",
"325 387 OFFCURVE",
"358 345 OFFCURVE",
"353 242 CURVE SMOOTH",
"349 148 OFFCURVE",
"311 99 OFFCURVE",
"246 99 CURVE SMOOTH",
"186 99 OFFCURVE",
"158 140 OFFCURVE",
"164 217 CURVE",
"121 202 LINE",
"357 202 LINE",
"364 279 LINE",
"34 279 LINE",
"31 240 LINE SMOOTH",
"19 85 OFFCURVE",
"101 -8 OFFCURVE",
"244 -8 CURVE SMOOTH",
"384 -8 OFFCURVE",
"487 95 OFFCURVE",
"500 248 CURVE SMOOTH",
"512 404 OFFCURVE",
"419 503 OFFCURVE",
"263 503 CURVE SMOOTH",
"187 503 OFFCURVE",
"109 481 OFFCURVE",
"55 443 CURVE"
);
}
);
};
layerId = "E1B555A7-F4E1-459C-9C1A-AE952106EEF9";
paths = (
{
closed = 1;
nodes = (
"89 339 LINE",
"135 370 OFFCURVE",
"181 387 OFFCURVE",
"237 387 CURVE SMOOTH",
"312 387 OFFCURVE",
"353 345 OFFCURVE",
"353 260 CURVE SMOOTH",
"353 146 OFFCURVE",
"316 99 OFFCURVE",
"247 99 CURVE SMOOTH",
"191 99 OFFCURVE",
"157 135 OFFCURVE",
"164 217 CURVE",
"122 202 LINE",
"358 202 LINE",
"365 279 LINE",
"34 279 LINE",
"13 90 OFFCURVE",
"106 -8 OFFCURVE",
"251 -8 CURVE SMOOTH",
"394 -8 OFFCURVE",
"501 102 OFFCURVE",
"501 262 CURVE SMOOTH",
"501 408 OFFCURVE",
"408 503 OFFCURVE",
"252 503 CURVE SMOOTH",
"180 503 OFFCURVE",
"103 480 OFFCURVE",
"56 443 CURVE"
);
}
);
width = 533;
}
);
leftKerningGroup = o;
rightKerningGroup = o;
unicode = 0259;
},
{
glyphname = f;
lastChange = "2017-11-28 09:38:30 +0000";
layers = (
{
anchors = (
{
name = bottom;
position = "{156, 0}";
},
{
name = top;
position = "{195, 495}";
}
);
background = {
paths = (
{
closed = 1;
nodes = (
"234 0 LINE",
"274 511 LINE SMOOTH",
"279 569 OFFCURVE",
"308 591 OFFCURVE",
"385 594 CURVE SMOOTH",
"432 596 LINE",
"432 710 LINE",
"376 707 LINE SMOOTH",
"209 698 OFFCURVE",
"127 626 OFFCURVE",
"116 480 CURVE SMOOTH",
"78 0 LINE"
);
},
{
closed = 1;
nodes = (
"386 375 LINE",
"395 491 LINE",
"24 491 LINE",
"15 375 LINE"
);
}
);
};
layerId = "E1B555A7-F4E1-459C-9C1A-AE952106EEF9";
paths = (
{
closed = 1;
nodes = (
"234 0 LINE",
"275 515 LINE SMOOTH",
"279 571 OFFCURVE",
"308 591 OFFCURVE",
"365 593 CURVE SMOOTH",
"432 596 LINE",
"429 710 LINE",
"372 707 LINE SMOOTH",
"210 698 OFFCURVE",
"128 632 OFFCURVE",
"118 504 CURVE SMOOTH",
"78 0 LINE"
);
},
{
closed = 1;
nodes = (
"386 375 LINE",
"395 491 LINE",
"24 491 LINE",
"15 375 LINE"
);
}
);
width = 379;
}
);
leftKerningGroup = f;
rightKerningGroup = f;
unicode = 0066;
userData = {
anchors = (
);
b = {
};
com.typemytype.robofont.layerData = {
b = {
anchors = (
);
components = (
);
contours = (
);
lib = {
};
name = f;
unicodes = (
);
width = 696;
};
};
components = (
);
contours = (
);
lib = {
};
name = f;
unicodes = (
);
width = 723;
};
},
{
glyphname = g;
lastChange = "2017-11-28 09:38:30 +0000";
layers = (
{
anchors = (
{
name = bottom;
position = "{291, 0}";
},
{
name = top;
position = "{330, 495}";
}
);
background = {
paths = (
{
closed = 1;
nodes = (
"435 -188 OFFCURVE",
"534 -105 OFFCURVE",
"547 54 CURVE SMOOTH",
"582 491 LINE",
"428 491 LINE",
"419 387 LINE",
"431 399 LINE",
"414 463 OFFCURVE",
"352 503 OFFCURVE",
"273 503 CURVE SMOOTH",
"145 503 OFFCURVE",
"46 406 OFFCURVE",
"34 258 CURVE SMOOTH",
"22 110 OFFCURVE",
"106 14 OFFCURVE",
"234 14 CURVE SMOOTH",
"313 14 OFFCURVE",
"382 54 OFFCURVE",
"409 116 CURVE",
"399 125 LINE",
"392 43 LINE SMOOTH",
"385 -35 OFFCURVE",
"343 -72 OFFCURVE",
"261 -72 CURVE SMOOTH",
"199 -72 OFFCURVE",
"136 -54 OFFCURVE",
"76 -20 CURVE",
"27 -127 LINE",
"85 -166 OFFCURVE",
"168 -188 OFFCURVE",
"256 -188 CURVE SMOOTH"
);
},
{
closed = 1;
nodes = (
"221 132 OFFCURVE",
"183 180 OFFCURVE",
"189 258 CURVE SMOOTH",
"195 338 OFFCURVE",
"240 385 OFFCURVE",
"309 385 CURVE SMOOTH",
"379 385 OFFCURVE",
"416 337 OFFCURVE",
"409 258 CURVE SMOOTH",
"402 179 OFFCURVE",
"358 132 OFFCURVE",
"289 132 CURVE SMOOTH"
);
}
);
};
layerId = "E1B555A7-F4E1-459C-9C1A-AE952106EEF9";
paths = (
{
closed = 1;
nodes = (
"435 -188 OFFCURVE",
"533 -115 OFFCURVE",
"547 60 CURVE SMOOTH",
"581 491 LINE",
"427 491 LINE",
"419 387 LINE",
"431 416 LINE",
"400 471 OFFCURVE",
"347 503 OFFCURVE",
"271 503 CURVE SMOOTH",
"129 503 OFFCURVE",
"34 390 OFFCURVE",
"34 240 CURVE SMOOTH",
"34 103 OFFCURVE",
"119 14 OFFCURVE",
"245 14 CURVE SMOOTH",
"325 14 OFFCURVE",
"385 49 OFFCURVE",
"413 106 CURVE",
"398 121 LINE",
"392 43 LINE SMOOTH",
"386 -39 OFFCURVE",
"343 -72 OFFCURVE",
"271 -72 CURVE SMOOTH",
"203 -72 OFFCURVE",
"140 -54 OFFCURVE",
"76 -20 CURVE",
"27 -127 LINE",
"90 -166 OFFCURVE",
"173 -188 OFFCURVE",
"266 -188 CURVE SMOOTH"
);
},
{
closed = 1;
nodes = (
"229 132 OFFCURVE",
"189 174 OFFCURVE",
"189 247 CURVE SMOOTH",
"189 334 OFFCURVE",
"232 386 OFFCURVE",
"302 386 CURVE SMOOTH",
"371 386 OFFCURVE",
"410 346 OFFCURVE",
"410 266 CURVE SMOOTH",
"410 185 OFFCURVE",
"367 132 OFFCURVE",
"297 132 CURVE SMOOTH"
);
}
);
width = 619;
}
);
leftKerningGroup = o;
rightKerningGroup = u;
unicode = 0067;
userData = {
anchors = (
);
b = {
};
com.typemytype.robofont.layerData = {
b = {
anchors = (
);
components = (
);
contours = (
);
lib = {
};
name = g;
unicodes = (
);
width = 1167;
};
};
components = (
);
contours = (
);
lib = {
};
name = g;
unicodes = (
);
width = 1207;
};
},
{
glyphname = h;
lastChange = "2017-11-28 09:38:30 +0000";
layers = (
{
anchors = (
{
name = bottom;
position = "{281, 0}";
},
{
name = center;
position = "{301, 248}";
},
{
name = top;
position = "{173, 705}";
}
);
background = {
paths = (
{
closed = 1;
nodes = (
"194 0 LINE",
"216 275 LINE SMOOTH",
"221 340 OFFCURVE",
"264 382 OFFCURVE",
"325 382 CURVE SMOOTH",
"374 382 OFFCURVE",
"396 355 OFFCURVE",
"391 288 CURVE SMOOTH",
"368 0 LINE",
"524 0 LINE",
"547 295 LINE SMOOTH",
"558 435 OFFCURVE",
"507 503 OFFCURVE",
"390 503 CURVE SMOOTH",
"312 503 OFFCURVE",
"247 466 OFFCURVE",
"208 399 CURVE",
"225 391 LINE",
"249 705 LINE",
"93 705 LINE",
"38 0 LINE"
);
}
);
};
layerId = "E1B555A7-F4E1-459C-9C1A-AE952106EEF9";
paths = (
{
closed = 1;
nodes = (
"194 0 LINE",
"216 275 LINE SMOOTH",
"221 340 OFFCURVE",
"255 382 OFFCURVE",
"317 382 CURVE SMOOTH",
"371 382 OFFCURVE",
"396 348 OFFCURVE",
"391 285 CURVE SMOOTH",
"368 0 LINE",
"524 0 LINE",
"547 291 LINE SMOOTH",
"558 430 OFFCURVE",
"501 503 OFFCURVE",
"382 503 CURVE SMOOTH",
"303 503 OFFCURVE",
"239 468 OFFCURVE",
"209 411 CURVE",
"223 380 LINE",
"249 705 LINE",
"93 705 LINE",
"38 0 LINE"
);
}
);
width = 597;
}
);
leftKerningGroup = h;
rightKerningGroup = n;
unicode = 0068;
userData = {
anchors = (
);
b = {
};
com.typemytype.robofont.layerData = {
b = {
anchors = (
);
components = (
);
contours = (
);
lib = {
};
name = h;
unicodes = (
);
width = 1148;
};
};
components = (
);
contours = {
};
lib = {
};
name = h;
points = {
};
segmentType = curve;
unicodes = (
);
width = 1195;
x = 137;
y = 113;
};
},
{
glyphname = hbar;
lastChange = "2017-11-28 09:38:30 +0000";
layers = (
{
background = {
paths = (
{
closed = 1;
nodes = (
"194 0 LINE",
"216 275 LINE SMOOTH",
"221 340 OFFCURVE",
"264 382 OFFCURVE",
"325 382 CURVE SMOOTH",
"374 382 OFFCURVE",
"396 355 OFFCURVE",
"391 288 CURVE SMOOTH",
"368 0 LINE",
"524 0 LINE",
"547 295 LINE SMOOTH",
"558 435 OFFCURVE",
"507 503 OFFCURVE",
"390 503 CURVE SMOOTH",
"312 503 OFFCURVE",
"247 466 OFFCURVE",
"208 399 CURVE",
"225 391 LINE",
"249 705 LINE",
"93 705 LINE",
"38 0 LINE"
);
},
{
closed = 1;
nodes = (
"421 531 LINE",
"429 639 LINE",
"3 639 LINE",
"-5 531 LINE"
);
}
);
};
layerId = "E1B555A7-F4E1-459C-9C1A-AE952106EEF9";
paths = (
{
closed = 1;
nodes = (
"194 0 LINE",
"216 275 LINE SMOOTH",
"221 340 OFFCURVE",
"255 382 OFFCURVE",
"317 382 CURVE SMOOTH",
"371 382 OFFCURVE",
"396 348 OFFCURVE",
"391 285 CURVE SMOOTH",
"368 0 LINE",
"524 0 LINE",
"547 291 LINE SMOOTH",
"558 430 OFFCURVE",
"501 503 OFFCURVE",
"382 503 CURVE SMOOTH",
"303 503 OFFCURVE",
"239 468 OFFCURVE",
"209 411 CURVE",
"223 380 LINE",
"249 705 LINE",
"93 705 LINE",
"38 0 LINE"
);
},
{
closed = 1;
nodes = (
"421 531 LINE",
"429 639 LINE",
"3 639 LINE",
"-5 531 LINE"
);
}
);
width = 597;
}
);
leftKerningGroup = h;
rightKerningGroup = n;
unicode = 0127;
},
{
glyphname = idotless;
lastChange = "2017-11-28 09:38:30 +0000";
layers = (
{
anchors = (
{
name = bottom;
position = "{116, 0}";
},
{
name = ogonek;
position = "{169, 10}";
},
{
name = top;
position = "{155, 495}";
}
);
background = {
paths = (
{
closed = 1;
nodes = (
"194 0 LINE",
"233 491 LINE",
"77 491 LINE",
"38 0 LINE"
);
}
);
};
layerId = "E1B555A7-F4E1-459C-9C1A-AE952106EEF9";
paths = (
{
closed = 1;
nodes = (
"194 0 LINE",
"233 491 LINE",
"77 491 LINE",
"38 0 LINE"
);
}
);
width = 270;
}
);
leftKerningGroup = n;
rightKerningGroup = u;
unicode = 0131;
},
{
glyphname = iogonek;
lastChange = "2017-11-28 09:38:30 +0000";
layers = (
{
background = {
paths = (
{
closed = 1;
nodes = (
"150 -197 OFFCURVE",
"186 -190 OFFCURVE",
"217 -177 CURVE",
"206 -105 LINE",
"186 -113 OFFCURVE",
"168 -117 OFFCURVE",
"151 -117 CURVE SMOOTH",
"113 -117 OFFCURVE",
"93 -99 OFFCURVE",
"96 -64 CURVE SMOOTH",
"99 -27 OFFCURVE",
"133 0 OFFCURVE",
"184 0 CURVE SMOOTH",
"194 0 LINE",
"233 491 LINE",
"77 491 LINE",
"38 0 LINE",
"83 0 LINE",
"99 37 LINE",
"33 11 OFFCURVE",
"-1 -35 OFFCURVE",
"-5 -85 CURVE SMOOTH",
"-10 -154 OFFCURVE",
"42 -197 OFFCURVE",
"114 -197 CURVE SMOOTH"
);
}
);
};
layerId = "E1B555A7-F4E1-459C-9C1A-AE952106EEF9";
paths = (
{
closed = 1;
nodes = (
"154 -197 OFFCURVE",
"186 -190 OFFCURVE",
"217 -177 CURVE",
"206 -105 LINE",
"184 -113 OFFCURVE",
"166 -117 OFFCURVE",
"149 -117 CURVE SMOOTH",
"117 -117 OFFCURVE",
"96 -99 OFFCURVE",
"96 -67 CURVE SMOOTH",
"96 -30 OFFCURVE",
"123 0 OFFCURVE",
"184 0 CURVE SMOOTH",
"194 0 LINE",
"233 491 LINE",
"77 491 LINE",
"38 0 LINE",
"83 0 LINE",
"99 37 LINE",
"33 11 OFFCURVE",
"-5 -26 OFFCURVE",
"-5 -89 CURVE SMOOTH",
"-5 -153 OFFCURVE",
"44 -197 OFFCURVE",
"122 -197 CURVE SMOOTH"
);
},
{
closed = 1;
nodes = (
"79 584 LINE",
"245 584 LINE",
"256 729 LINE",
"90 729 LINE"
);
}
);
width = 270;
}
);
leftKerningGroup = h;
rightKerningGroup = l;
unicode = 012F;
},
{
glyphname = jdotless;
lastChange = "2017-11-28 09:38:30 +0000";
layers = (
{
anchors = (
{
name = bottom;
position = "{115, 0}";
},
{
name = top;
position = "{154, 495}";
}
);
background = {
paths = (
{
closed = 1;
nodes = (
"77 491 LINE",
"38 5 LINE SMOOTH",
"34 -46 OFFCURVE",
"11 -67 OFFCURVE",
"-46 -71 CURVE SMOOTH",
"-98 -75 LINE",
"-96 -186 LINE",
"-47 -183 LINE SMOOTH",
"120 -173 OFFCURVE",
"185 -116 OFFCURVE",
"197 34 CURVE SMOOTH",
"233 491 LINE"
);
}
);
};
layerId = "E1B555A7-F4E1-459C-9C1A-AE952106EEF9";
paths = (
{
closed = 1;
nodes = (
"77 491 LINE",
"38 1 LINE SMOOTH",
"34 -48 OFFCURVE",
"11 -67 OFFCURVE",
"-41 -71 CURVE SMOOTH",
"-98 -75 LINE",
"-94 -186 LINE",
"-43 -183 LINE SMOOTH",
"134 -173 OFFCURVE",
"185 -116 OFFCURVE",
"196 24 CURVE SMOOTH",
"233 491 LINE"
);
}
);
width = 270;
}
);
leftKerningGroup = n;
rightKerningGroup = l;
unicode = 0237;
},
{
glyphname = k;
lastChange = "2017-11-28 09:38:30 +0000";
layers = (
{
anchors = (
{
name = bottom;
position = "{262, 0}";
},
{
name = top;
position = "{301, 495}";
}
);
background = {
paths = (
{
closed = 1;
nodes = (
"568 0 LINE",
"351 287 LINE",
"337 217 LINE",
"596 490 LINE",
"410 490 LINE",
"186 250 LINE",
"378 0 LINE"
);
},
{
closed = 1;
nodes = (
"194 0 LINE",
"249 705 LINE",
"93 705 LINE",
"38 0 LINE"
);
}
);
};
layerId = "E1B555A7-F4E1-459C-9C1A-AE952106EEF9";
paths = (
{
closed = 1;
nodes = (
"568 0 LINE",
"349 287 LINE",
"341 217 LINE",
"596 490 LINE",
"406 490 LINE",
"186 250 LINE",
"380 0 LINE"
);
},
{
closed = 1;
nodes = (
"194 0 LINE",
"249 705 LINE",
"93 705 LINE",
"38 0 LINE"
);
}
);
width = 562;
}
);
leftKerningGroup = h;
rightKerningGroup = k;
unicode = 006B;
userData = {
com.typemytype.robofont.layerData = {
b = {
anchors = (
);
components = (
);
contours = (
{
points = (
{
segmentType = line;
smooth = 0;
x = 318;
y = 536;
},
{
segmentType = line;
smooth = 1;
x = 793;
y = 27;
},
{
smooth = 0;
x = 809;
y = 9;
},
{
smooth = 0;
x = 828;
y = 1;
},
{
segmentType = curve;
smooth = 1;
x = 845;
y = 1;
},
{
smooth = 0;
x = 883;
y = 1;
},
{
smooth = 0;
x = 922;
y = 33;
},
{
segmentType = curve;
smooth = 1;
x = 922;
y = 71;
},
{
smooth = 0;
x = 922;
y = 84;
},
{
smooth = 0;
x = 918;
y = 99;
},
{
segmentType = curve;
smooth = 1;
x = 906;
y = 112;
},
{
segmentType = line;
smooth = 0;
x = 492;
y = 554;
},
{
segmentType = line;
smooth = 1;
x = 873;
y = 889;
},
{
smooth = 0;
x = 888;
y = 902;
},
{
smooth = 0;
x = 894;
y = 918;
},
{
segmentType = curve;
smooth = 1;
x = 894;
y = 933;
},
{
smooth = 0;
x = 894;
y = 968;
},
{
smooth = 0;
x = 858;
y = 1002;
},
{
segmentType = curve;
smooth = 1;
x = 821;
y = 1002;
},
{
smooth = 0;
x = 802;
y = 1002;
},
{
smooth = 0;
x = 785;
y = 994;
},
{
segmentType = curve;
smooth = 0;
x = 770;
y = 979;
},
{
segmentType = line;
smooth = 0;
x = 318;
y = 574;
}
);
}
);
lib = {
};
name = k;
unicodes = (
);
width = 984;
};
};
};
},
{
glyphname = kgreenlandic;
lastChange = "2017-11-28 09:38:30 +0000";
layers = (
{
anchors = (
{
name = bottom;
position = "{262, 0}";
},
{
name = top;
position = "{301, 495}";
}
);
background = {
paths = (
{
closed = 1;
nodes = (
"568 0 LINE",
"351 287 LINE",
"337 217 LINE",
"596 490 LINE",
"410 490 LINE",
"186 250 LINE",
"378 0 LINE"
);
},
{
closed = 1;
nodes = (
"194 0 LINE",
"233 491 LINE",
"77 491 LINE",
"38 0 LINE"
);
}
);
};
layerId = "E1B555A7-F4E1-459C-9C1A-AE952106EEF9";
paths = (
{
closed = 1;
nodes = (
"194 0 LINE",
"233 491 LINE",
"77 491 LINE",
"38 0 LINE"
);
},
{
closed = 1;
nodes = (
"568 0 LINE",
"349 287 LINE",
"341 217 LINE",
"596 490 LINE",
"406 490 LINE",
"186 250 LINE",
"380 0 LINE"
);
}
);
width = 562;
}
);
leftKerningGroup = n;
rightKerningGroup = k;
unicode = 0138;
userData = {
com.typemytype.robofont.layerData = {
b = {
anchors = (
);
components = (
);
contours = (
);
lib = {
};
name = kgreenlandic;
unicodes = (
);
width = 1047;
};
};
};
},
{
glyphname = l;
lastChange = "2017-11-28 09:38:30 +0000";
layers = (
{
anchors = (
{
name = bottom;
position = "{116, 0}";
},
{
name = center;
position = "{136, 248}";
},
{
name = top;
position = "{171, 705}";
},
{
name = topright;
position = "{274, 705}";
}
);
background = {
paths = (
{
closed = 1;
nodes = (
"194 0 LINE",
"249 705 LINE",
"93 705 LINE",
"38 0 LINE"
);
}
);
};
layerId = "E1B555A7-F4E1-459C-9C1A-AE952106EEF9";
paths = (
{
closed = 1;
nodes = (
"194 0 LINE",
"250 705 LINE",
"94 705 LINE",
"38 0 LINE"
);
}
);
width = 270;
}
);
leftKerningGroup = h;
rightKerningGroup = l;
unicode = 006C;
userData = {
com.typemytype.robofont.layerData = {
b = {
anchors = (
);
components = (
);
contours = (
);
lib = {
};
name = l;
unicodes = (
);
width = 511;
};
};
};
},
{
glyphname = lcaron;
lastChange = "2017-11-28 09:38:30 +0000";
layers = (
{
background = {
components = (
{
name = l;
}
);
paths = (
{
closed = 1;
nodes = (
"372 705 LINE",
"293 705 LINE",
"278 511 LINE",
"331 511 LINE"
);
}
);
};
components = (
{
name = l;
}
);
layerId = "E1B555A7-F4E1-459C-9C1A-AE952106EEF9";
paths = (
{
closed = 1;
nodes = (
"353 705 LINE",
"274 705 LINE",
"259 511 LINE",
"312 511 LINE"
);
}
);
width = 270;
}
);
leftKerningGroup = h;
rightKerningGroup = lcaron;
unicode = 013E;
},
{
glyphname = lslash;
lastChange = "2017-11-28 09:38:30 +0000";
layers = (
{
background = {
paths = (
{
closed = 1;
nodes = (
"404 398 LINE",
"355 502 LINE",
"7 310 LINE",
"57 206 LINE"
);
},
{
closed = 1;
nodes = (
"256 0 LINE",
"311 705 LINE",
"155 705 LINE",
"100 0 LINE"
);
}
);
};
layerId = "E1B555A7-F4E1-459C-9C1A-AE952106EEF9";
paths = (
{
closed = 1;
nodes = (
"385 398 LINE",
"336 502 LINE",
"-12 310 LINE",
"38 206 LINE"
);
},
{
closed = 1;
nodes = (
"237 0 LINE",
"293 705 LINE",
"137 705 LINE",
"81 0 LINE"
);
}
);
width = 356;
}
);
leftKerningGroup = l;
rightKerningGroup = l;
unicode = 0142;
},
{
glyphname = m;
lastChange = "2017-11-28 09:38:30 +0000";
layers = (
{
anchors = (
{
name = bottom;
position = "{426, 0}";
},
{
name = top;
position = "{465, 495}";
}
);
background = {
paths = (
{
closed = 1;
nodes = (
"194 0 LINE",
"215 270 LINE SMOOTH",
"221 341 OFFCURVE",
"256 382 OFFCURVE",
"312 382 CURVE SMOOTH",
"359 382 OFFCURVE",
"376 355 OFFCURVE",
"371 290 CURVE SMOOTH",
"348 0 LINE",
"504 0 LINE",
"525 270 LINE SMOOTH",
"531 341 OFFCURVE",
"566 382 OFFCURVE",
"622 382 CURVE SMOOTH",
"669 382 OFFCURVE",
"686 355 OFFCURVE",
"681 290 CURVE SMOOTH",
"658 0 LINE",
"814 0 LINE",
"837 295 LINE SMOOTH",
"848 436 OFFCURVE",
"800 503 OFFCURVE",
"687 503 CURVE SMOOTH",
"610 503 OFFCURVE",
"540 461 OFFCURVE",
"506 394 CURVE",
"527 366 LINE",
"517 458 OFFCURVE",
"469 503 OFFCURVE",
"380 503 CURVE SMOOTH",
"303 503 OFFCURVE",
"243 467 OFFCURVE",
"209 401 CURVE",
"221 397 LINE",
"229 490 LINE",
"77 490 LINE",
"38 0 LINE"
);
}
);
};
layerId = "E1B555A7-F4E1-459C-9C1A-AE952106EEF9";
paths = (
{
closed = 1;
nodes = (
"194 0 LINE",
"215 266 LINE SMOOTH",
"221 347 OFFCURVE",
"253 382 OFFCURVE",
"308 382 CURVE SMOOTH",
"355 382 OFFCURVE",
"376 350 OFFCURVE",
"371 287 CURVE SMOOTH",
"348 0 LINE",
"504 0 LINE",
"525 266 LINE SMOOTH",
"531 347 OFFCURVE",
"563 382 OFFCURVE",
"618 382 CURVE SMOOTH",
"665 382 OFFCURVE",
"686 350 OFFCURVE",
"681 288 CURVE SMOOTH",
"658 0 LINE",
"814 0 LINE",
"837 292 LINE SMOOTH",
"847 430 OFFCURVE",
"792 503 OFFCURVE",
"680 503 CURVE SMOOTH",
"606 503 OFFCURVE",
"543 470 OFFCURVE",
"503 408 CURVE",
"527 366 LINE",
"518 453 OFFCURVE",
"461 503 OFFCURVE",
"373 503 CURVE SMOOTH",
"299 503 OFFCURVE",
"246 474 OFFCURVE",
"206 413 CURVE",
"221 397 LINE",
"229 490 LINE",
"77 490 LINE",
"38 0 LINE"
);
}
);
width = 887;
}
);
leftKerningGroup = n;
rightKerningGroup = n;
unicode = 006D;
userData = {
anchors = (
);
b = {
};
com.typemytype.robofont.layerData = {
b = {
anchors = (
);
components = (
);
contours = (
);
lib = {
};
name = m;
unicodes = (
);
width = 1838;
};
};
components = (
);
contours = (
);
lib = {
};
name = m;
unicodes = (
);
width = 1877;
};
},
{
glyphname = n;
lastChange = "2017-11-28 09:38:30 +0000";
layers = (
{
anchors = (
{
name = bottom;
position = "{281, 0}";
},
{
name = top;
position = "{320, 495}";
}
);
background = {
anchors = (
{
name = bottom;
position = "{300, 0}";
},
{
name = top;
position = "{339, 495}";
}
);
paths = (
{
closed = 1;
nodes = (
"194 0 LINE",
"216 275 LINE SMOOTH",
"221 340 OFFCURVE",
"255 382 OFFCURVE",
"317 382 CURVE SMOOTH",
"371 382 OFFCURVE",
"396 348 OFFCURVE",
"391 285 CURVE SMOOTH",
"368 0 LINE",
"524 0 LINE",
"547 291 LINE SMOOTH",
"558 430 OFFCURVE",
"501 503 OFFCURVE",
"382 503 CURVE SMOOTH",
"303 503 OFFCURVE",
"239 468 OFFCURVE",
"209 411 CURVE",
"223 380 LINE",
"249 705 LINE",
"93 705 LINE",
"38 0 LINE"
);
}
);
};
layerId = "E1B555A7-F4E1-459C-9C1A-AE952106EEF9";
paths = (
{
closed = 1;
nodes = (
"194 0 LINE",
"216 275 LINE SMOOTH",
"221 340 OFFCURVE",
"255 382 OFFCURVE",
"317 382 CURVE SMOOTH",
"371 382 OFFCURVE",
"396 348 OFFCURVE",
"391 285 CURVE SMOOTH",
"368 0 LINE",
"524 0 LINE",
"547 291 LINE SMOOTH",
"558 430 OFFCURVE",
"501 503 OFFCURVE",
"382 503 CURVE SMOOTH",
"303 503 OFFCURVE",
"239 468 OFFCURVE",
"209 411 CURVE",
"221 397 LINE",
"229 491 LINE",
"77 491 LINE",
"38 0 LINE"
);
}
);
width = 597;
}
);
leftKerningGroup = n;
rightKerningGroup = n;
unicode = 006E;
userData = {
anchors = (
);
b = {
};
com.typemytype.robofont.layerData = {
b = {
anchors = (
);
components = (
);
contours = (
);
lib = {
};
name = n;
unicodes = (
);
width = 1152;
};
};
components = (
);
contours = {
};
lib = {
};
name = n;
points = {
};
segmentType = curve;
unicodes = (
);
width = 1195;
x = 137;
y = 113;
};
},
{
glyphname = eng;
lastChange = "2017-11-28 09:38:30 +0000";
layers = (
{
background = {
paths = (
{
closed = 1;
nodes = (
"303 503 OFFCURVE",
"239 468 OFFCURVE",
"209 411 CURVE",
"221 397 LINE",
"229 491 LINE",
"77 491 LINE",
"38 0 LINE",
"194 0 LINE",
"216 275 LINE SMOOTH",
"221 340 OFFCURVE",
"255 382 OFFCURVE",
"317 382 CURVE SMOOTH",
"371 382 OFFCURVE",
"396 348 OFFCURVE",
"391 285 CURVE SMOOTH",
"368 6 LINE SMOOTH",
"364 -45 OFFCURVE",
"341 -66 OFFCURVE",
"284 -70 CURVE SMOOTH",
"234 -74 LINE",
"234 -185 LINE",
"283 -182 LINE SMOOTH",
"450 -172 OFFCURVE",
"515 -115 OFFCURVE",
"527 35 CURVE SMOOTH",
"547 291 LINE SMOOTH",
"558 430 OFFCURVE",
"499 503 OFFCURVE",
"382 503 CURVE SMOOTH"
);
}
);
};
layerId = "E1B555A7-F4E1-459C-9C1A-AE952106EEF9";
paths = (
{
closed = 1;
nodes = (
"303 503 OFFCURVE",
"239 468 OFFCURVE",
"209 411 CURVE",
"221 397 LINE",
"229 491 LINE",
"77 491 LINE",
"38 0 LINE",
"194 0 LINE",
"216 275 LINE SMOOTH",
"221 340 OFFCURVE",
"255 382 OFFCURVE",
"317 382 CURVE SMOOTH",
"371 382 OFFCURVE",
"396 348 OFFCURVE",
"391 285 CURVE SMOOTH",
"368 6 LINE SMOOTH",
"364 -45 OFFCURVE",
"345 -66 OFFCURVE",
"287 -70 CURVE SMOOTH",
"232 -74 LINE",
"236 -185 LINE",
"283 -182 LINE SMOOTH",
"456 -171 OFFCURVE",
"515 -115 OFFCURVE",
"527 35 CURVE SMOOTH",
"547 291 LINE SMOOTH",
"558 430 OFFCURVE",
"499 503 OFFCURVE",
"382 503 CURVE SMOOTH"
);
}
);
width = 597;
}
);
leftKerningGroup = n;
rightKerningGroup = n;
unicode = 014B;
},
{
glyphname = o;
lastChange = "2017-11-28 09:38:30 +0000";
layers = (
{
anchors = (
{
name = bottom;
position = "{276, 0}";
},
{
name = center;
position = "{296, 248}";
},
{
name = ogonek;
position = "{379, 10}";
},
{
name = top;
position = "{315, 495}";
},
{
name = topright;
position = "{379, 495}";
}
);
background = {
paths = (
{
closed = 1;
nodes = (
"452 -8 OFFCURVE",
"558 93 OFFCURVE",
"558 261 CURVE SMOOTH",
"558 407 OFFCURVE",
"458 503 OFFCURVE",
"298 503 CURVE SMOOTH",
"139 503 OFFCURVE",
"33 402 OFFCURVE",
"33 234 CURVE SMOOTH",
"33 88 OFFCURVE",
"133 -8 OFFCURVE",
"293 -8 CURVE SMOOTH"
);
},
{
closed = 1;
nodes = (
"225 109 OFFCURVE",
"188 149 OFFCURVE",
"188 231 CURVE SMOOTH",
"188 315 OFFCURVE",
"216 386 OFFCURVE",
"297 386 CURVE SMOOTH",
"366 386 OFFCURVE",
"403 346 OFFCURVE",
"403 265 CURVE SMOOTH",
"403 180 OFFCURVE",
"375 109 OFFCURVE",
"294 109 CURVE SMOOTH"
);
}
);
};
guideLines = (
{
angle = 90;
position = "{684, 608}";
}
);
layerId = "E1B555A7-F4E1-459C-9C1A-AE952106EEF9";
paths = (
{
closed = 1;
nodes = (
"452 -8 OFFCURVE",
"558 93 OFFCURVE",
"558 261 CURVE SMOOTH",
"558 407 OFFCURVE",
"458 503 OFFCURVE",
"298 503 CURVE SMOOTH",
"139 503 OFFCURVE",
"33 402 OFFCURVE",
"33 234 CURVE SMOOTH",
"33 88 OFFCURVE",
"133 -8 OFFCURVE",
"293 -8 CURVE SMOOTH"
);
},
{
closed = 1;
nodes = (
"222 109 OFFCURVE",
"188 149 OFFCURVE",
"188 231 CURVE SMOOTH",
"188 315 OFFCURVE",
"219 386 OFFCURVE",
"300 386 CURVE SMOOTH",
"369 386 OFFCURVE",
"403 346 OFFCURVE",
"403 265 CURVE SMOOTH",
"403 180 OFFCURVE",
"372 109 OFFCURVE",
"291 109 CURVE SMOOTH"
);
}
);
width = 590;
}
);
leftKerningGroup = o;
rightKerningGroup = o;
unicode = 006F;
userData = {
anchors = (
);
b = {
};
com.typemytype.robofont.guides = (
);
com.typemytype.robofont.layerData = {
b = {
anchors = (
);
components = (
);
contours = (
);
lib = {
};
name = o;
unicodes = (
);
width = 1144;
};
};
components = (
);
contours = (
);
lib = {
};
name = o;
unicodes = (
);
width = 1199;
};
},
{
glyphname = ohorn;
lastChange = "2017-11-28 09:38:30 +0000";
layers = (
{
anchors = (
{
name = bottom;
position = "{276, 0}";
},
{
name = top;
position = "{315, 495}";
}
);
background = {
paths = (
{
closed = 1;
nodes = (
"1034 -8 OFFCURVE",
"1146 91 OFFCURVE",
"1157 247 CURVE SMOOTH",
"1163 331 OFFCURVE",
"1140 405 OFFCURVE",
"1082 448 CURVE",
"1065 421 LINE",
"1146 431 OFFCURVE",
"1203 494 OFFCURVE",
"1209 577 CURVE SMOOTH",
"1212 616 LINE",
"1078 616 LINE",
"1077 596 LINE SMOOTH",
"1073 511 OFFCURVE",
"1033 495 OFFCURVE",
"996 495 CURVE SMOOTH",
"986 495 OFFCURVE",
"943 503 OFFCURVE",
"913 503 CURVE SMOOTH",
"757 503 OFFCURVE",
"646 405 OFFCURVE",
"633 247 CURVE SMOOTH",
"620 91 OFFCURVE",
"716 -8 OFFCURVE",
"875 -8 CURVE SMOOTH"
);
},
{
closed = 1;
nodes = (
"816 110 OFFCURVE",
"781 154 OFFCURVE",
"789 248 CURVE SMOOTH",
"797 342 OFFCURVE",
"837 386 OFFCURVE",
"906 386 CURVE SMOOTH",
"975 386 OFFCURVE",
"1010 342 OFFCURVE",
"1003 248 CURVE SMOOTH",
"996 154 OFFCURVE",
"954 110 OFFCURVE",
"885 110 CURVE SMOOTH"
);
},
{
closed = 1;
nodes = (
"452 -8 OFFCURVE",
"558 93 OFFCURVE",
"558 261 CURVE SMOOTH",
"558 407 OFFCURVE",
"458 503 OFFCURVE",
"298 503 CURVE SMOOTH",
"139 503 OFFCURVE",
"33 402 OFFCURVE",
"33 234 CURVE SMOOTH",
"33 88 OFFCURVE",
"133 -8 OFFCURVE",
"293 -8 CURVE SMOOTH"
);
},
{
closed = 1;
nodes = (
"222 109 OFFCURVE",
"188 149 OFFCURVE",
"188 231 CURVE SMOOTH",
"188 315 OFFCURVE",
"219 386 OFFCURVE",
"300 386 CURVE SMOOTH",
"369 386 OFFCURVE",
"403 346 OFFCURVE",
"403 265 CURVE SMOOTH",
"403 180 OFFCURVE",
"372 109 OFFCURVE",
"291 109 CURVE SMOOTH"
);
}
);
};
layerId = "E1B555A7-F4E1-459C-9C1A-AE952106EEF9";
paths = (
{
closed = 1;
nodes = (
"452 -8 OFFCURVE",
"558 93 OFFCURVE",
"558 261 CURVE SMOOTH",
"558 335 OFFCURVE",
"530 405 OFFCURVE",
"476 448 CURVE",
"475 421 LINE",
"554 431 OFFCURVE",
"603 494 OFFCURVE",
"609 577 CURVE SMOOTH",
"612 616 LINE",
"478 616 LINE",
"477 596 LINE SMOOTH",
"470 511 OFFCURVE",
"433 495 OFFCURVE",
"396 495 CURVE SMOOTH",
"376 495 OFFCURVE",
"328 503 OFFCURVE",
"298 503 CURVE SMOOTH",
"139 503 OFFCURVE",
"33 402 OFFCURVE",
"33 234 CURVE SMOOTH",
"33 88 OFFCURVE",
"133 -8 OFFCURVE",
"293 -8 CURVE SMOOTH"
);
},
{
closed = 1;
nodes = (
"222 109 OFFCURVE",
"188 149 OFFCURVE",
"188 231 CURVE SMOOTH",
"188 315 OFFCURVE",
"219 386 OFFCURVE",
"300 386 CURVE SMOOTH",
"369 386 OFFCURVE",
"403 346 OFFCURVE",
"403 265 CURVE SMOOTH",
"403 180 OFFCURVE",
"372 109 OFFCURVE",
"291 109 CURVE SMOOTH"
);
}
);
width = 590;
}
);
leftKerningGroup = o;
rightKerningGroup = o;
unicode = 01A1;
},
{
glyphname = oogonek;
lastChange = "2017-11-28 09:38:30 +0000";
layers = (
{
anchors = (
{
name = top;
position = "{315, 495}";
}
);
background = {
anchors = (
{
name = top;
position = "{334, 495}";
}
);
paths = (
{
closed = 1;
nodes = (
"452 -8 OFFCURVE",
"558 93 OFFCURVE",
"558 261 CURVE SMOOTH",
"558 407 OFFCURVE",
"458 503 OFFCURVE",
"298 503 CURVE SMOOTH",
"139 503 OFFCURVE",
"33 402 OFFCURVE",
"33 234 CURVE SMOOTH",
"33 88 OFFCURVE",
"133 -8 OFFCURVE",
"293 -8 CURVE SMOOTH"
);
},
{
closed = 1;
nodes = (
"222 109 OFFCURVE",
"188 149 OFFCURVE",
"188 231 CURVE SMOOTH",
"188 315 OFFCURVE",
"219 386 OFFCURVE",
"300 386 CURVE SMOOTH",
"369 386 OFFCURVE",
"403 346 OFFCURVE",
"403 265 CURVE SMOOTH",
"403 180 OFFCURVE",
"372 109 OFFCURVE",
"291 109 CURVE SMOOTH"
);
},
{
closed = 1;
nodes = (
"362 -197 OFFCURVE",
"394 -190 OFFCURVE",
"425 -177 CURVE",
"414 -105 LINE",
"392 -113 OFFCURVE",
"374 -117 OFFCURVE",
"357 -117 CURVE SMOOTH",
"325 -117 OFFCURVE",
"304 -99 OFFCURVE",
"304 -67 CURVE SMOOTH",
"304 -35 OFFCURVE",
"326 -5 OFFCURVE",
"379 10 CURVE",
"365 46 LINE",
"259 32 OFFCURVE",
"203 -21 OFFCURVE",
"203 -91 CURVE SMOOTH",
"203 -153 OFFCURVE",
"252 -197 OFFCURVE",
"330 -197 CURVE SMOOTH"
);
}
);
};
layerId = "E1B555A7-F4E1-459C-9C1A-AE952106EEF9";
paths = (
{
closed = 1;
nodes = (
"362 -197 OFFCURVE",
"394 -190 OFFCURVE",
"425 -177 CURVE",
"414 -105 LINE",
"392 -113 OFFCURVE",
"374 -117 OFFCURVE",
"357 -117 CURVE SMOOTH",
"325 -117 OFFCURVE",
"304 -99 OFFCURVE",
"304 -67 CURVE SMOOTH",
"304 -31 OFFCURVE",
"330 -10 OFFCURVE",
"373 2 CURVE SMOOTH",
"478 31 OFFCURVE",
"558 106 OFFCURVE",
"558 261 CURVE SMOOTH",
"558 407 OFFCURVE",
"457 503 OFFCURVE",
"298 503 CURVE SMOOTH",
"139 503 OFFCURVE",
"33 402 OFFCURVE",
"33 234 CURVE SMOOTH",
"33 88 OFFCURVE",
"133 -8 OFFCURVE",
"293 -8 CURVE",
"272 14 LINE",
"230 -10 OFFCURVE",
"203 -40 OFFCURVE",
"203 -91 CURVE SMOOTH",
"203 -153 OFFCURVE",
"252 -197 OFFCURVE",
"330 -197 CURVE SMOOTH"
);
},
{
closed = 1;
nodes = (
"222 109 OFFCURVE",
"188 149 OFFCURVE",
"188 231 CURVE SMOOTH",
"188 315 OFFCURVE",
"219 386 OFFCURVE",
"300 386 CURVE SMOOTH",
"369 386 OFFCURVE",
"403 346 OFFCURVE",
"403 265 CURVE SMOOTH",
"403 180 OFFCURVE",
"372 109 OFFCURVE",
"291 109 CURVE SMOOTH"
);
}
);
width = 590;
}
);
leftKerningGroup = o;
rightKerningGroup = o;
unicode = 01EB;
},
{
glyphname = oslash;
lastChange = "2017-11-28 09:38:30 +0000";
layers = (
{
anchors = (
{
name = top;
position = "{315, 495}";
}
);
background = {
anchors = (
{
name = top;
position = "{334, 495}";
}
);
paths = (
{
closed = 1;
nodes = (
"434 -8 OFFCURVE",
"545 91 OFFCURVE",
"558 248 CURVE SMOOTH",
"571 405 OFFCURVE",
"475 503 OFFCURVE",
"316 503 CURVE SMOOTH",
"157 503 OFFCURVE",
"46 405 OFFCURVE",
"34 248 CURVE SMOOTH",
"22 91 OFFCURVE",
"116 -8 OFFCURVE",
"275 -8 CURVE SMOOTH"
);
},
{
closed = 1;
nodes = (
"213 109 OFFCURVE",
"178 153 OFFCURVE",
"186 248 CURVE SMOOTH",
"194 343 OFFCURVE",
"234 387 OFFCURVE",
"306 387 CURVE SMOOTH",
"378 387 OFFCURVE",
"413 343 OFFCURVE",
"406 248 CURVE SMOOTH",
"399 153 OFFCURVE",
"357 109 OFFCURVE",
"285 109 CURVE SMOOTH"
);
}
);
};
layerId = "E1B555A7-F4E1-459C-9C1A-AE952106EEF9";
paths = (
{
closed = 1;
nodes = (
"522 516 LINE",
"453 559 LINE",
"69 -21 LINE",
"138 -64 LINE"
);
},
{
closed = 1;
nodes = (
"452 -8 OFFCURVE",
"558 93 OFFCURVE",
"558 261 CURVE SMOOTH",
"558 407 OFFCURVE",
"458 503 OFFCURVE",
"298 503 CURVE SMOOTH",
"139 503 OFFCURVE",
"33 402 OFFCURVE",
"33 234 CURVE SMOOTH",
"33 88 OFFCURVE",
"133 -8 OFFCURVE",
"293 -8 CURVE SMOOTH"
);
},
{
closed = 1;
nodes = (
"219 108 OFFCURVE",
"185 148 OFFCURVE",
"185 231 CURVE SMOOTH",
"185 316 OFFCURVE",
"216 387 OFFCURVE",
"300 387 CURVE SMOOTH",
"373 387 OFFCURVE",
"407 347 OFFCURVE",
"407 265 CURVE SMOOTH",
"407 179 OFFCURVE",
"376 108 OFFCURVE",
"291 108 CURVE SMOOTH"
);
}
);
width = 590;
}
);
leftKerningGroup = o;
rightKerningGroup = o;
unicode = 00F8;
},
{
glyphname = oe;
lastChange = "2017-11-28 09:38:30 +0000";
layers = (
{
anchors = (
{
name = bottom;
position = "{457, 0}";
},
{
name = top;
position = "{496, 495}";
}
);
background = {
anchors = (
{
name = bottom;
position = "{476, 0}";
},
{
name = top;
position = "{515, 495}";
}
);
paths = (
{
closed = 1;
nodes = (
"1352 -8 OFFCURVE",
"1458 93 OFFCURVE",
"1458 261 CURVE SMOOTH",
"1458 407 OFFCURVE",
"1358 503 OFFCURVE",
"1198 503 CURVE SMOOTH",
"1039 503 OFFCURVE",
"933 402 OFFCURVE",
"933 234 CURVE SMOOTH",
"933 88 OFFCURVE",
"1033 -8 OFFCURVE",
"1193 -8 CURVE SMOOTH"
);
},
{
closed = 1;
nodes = (
"1122 109 OFFCURVE",
"1088 149 OFFCURVE",
"1088 231 CURVE SMOOTH",
"1088 315 OFFCURVE",
"1119 386 OFFCURVE",
"1200 386 CURVE SMOOTH",
"1269 386 OFFCURVE",
"1303 346 OFFCURVE",
"1303 265 CURVE SMOOTH",
"1303 180 OFFCURVE",
"1272 109 OFFCURVE",
"1191 109 CURVE SMOOTH"
);
},
{
closed = 1;
nodes = (
"810 156 LINE",
"767 125 OFFCURVE",
"721 108 OFFCURVE",
"668 108 CURVE SMOOTH",
"589 108 OFFCURVE",
"547 150 OFFCURVE",
"547 237 CURVE SMOOTH",
"547 349 OFFCURVE",
"586 396 OFFCURVE",
"653 396 CURVE SMOOTH",
"708 396 OFFCURVE",
"742 360 OFFCURVE",
"738 278 CURVE",
"777 293 LINE",
"541 293 LINE",
"534 216 LINE",
"864 216 LINE",
"885 405 OFFCURVE",
"793 503 OFFCURVE",
"648 503 CURVE SMOOTH",
"505 503 OFFCURVE",
"398 393 OFFCURVE",
"398 233 CURVE SMOOTH",
"398 87 OFFCURVE",
"501 -8 OFFCURVE",
"657 -8 CURVE SMOOTH",
"729 -8 OFFCURVE",
"800 15 OFFCURVE",
"843 52 CURVE"
);
}
);
};
layerId = "E1B555A7-F4E1-459C-9C1A-AE952106EEF9";
paths = (
{
closed = 1;
nodes = (
"452 -8 OFFCURVE",
"532 103 OFFCURVE",
"532 272 CURVE SMOOTH",
"532 407 OFFCURVE",
"458 503 OFFCURVE",
"293 503 CURVE SMOOTH",
"139 503 OFFCURVE",
"33 402 OFFCURVE",
"33 234 CURVE SMOOTH",
"33 88 OFFCURVE",
"133 -8 OFFCURVE",
"285 -8 CURVE SMOOTH"
);
},
{
closed = 1;
nodes = (
"222 109 OFFCURVE",
"188 149 OFFCURVE",
"188 231 CURVE SMOOTH",
"188 315 OFFCURVE",
"219 386 OFFCURVE",
"300 386 CURVE SMOOTH",
"366 386 OFFCURVE",
"400 346 OFFCURVE",
"400 265 CURVE SMOOTH",
"400 180 OFFCURVE",
"369 109 OFFCURVE",
"291 109 CURVE SMOOTH"
);
},
{
closed = 1;
nodes = (
"729 -8 OFFCURVE",
"800 15 OFFCURVE",
"843 52 CURVE",
"810 156 LINE",
"767 125 OFFCURVE",
"721 108 OFFCURVE",
"672 108 CURVE SMOOTH",
"595 108 OFFCURVE",
"553 150 OFFCURVE",
"553 237 CURVE SMOOTH",
"553 349 OFFCURVE",
"592 396 OFFCURVE",
"659 396 CURVE SMOOTH",
"708 396 OFFCURVE",
"742 360 OFFCURVE",
"738 278 CURVE",
"777 293 LINE",
"547 293 LINE",
"540 216 LINE",
"864 216 LINE",
"885 405 OFFCURVE",
"793 503 OFFCURVE",
"657 503 CURVE SMOOTH",
"511 503 OFFCURVE",
"424 393 OFFCURVE",
"424 233 CURVE SMOOTH",
"424 97 OFFCURVE",
"509 -8 OFFCURVE",
"660 -8 CURVE SMOOTH"
);
}
);
width = 898;
}
);
leftKerningGroup = o;
rightKerningGroup = e;
unicode = 0153;
},
{
glyphname = p;
lastChange = "2017-11-28 09:38:30 +0000";
layers = (
{
anchors = (
{
name = bottom;
position = "{270, 0}";
},
{
name = top;
position = "{309, 495}";
}
);
background = {
paths = (
{
closed = 1;
nodes = (
"880 -180 LINE",
"903 115 LINE",
"890 79 LINE",
"921 24 OFFCURVE",
"974 -8 OFFCURVE",
"1048 -8 CURVE SMOOTH",
"1188 -8 OFFCURVE",
"1283 109 OFFCURVE",
"1283 257 CURVE SMOOTH",
"1283 412 OFFCURVE",
"1198 503 OFFCURVE",
"1074 503 CURVE SMOOTH",
"1000 503 OFFCURVE",
"940 468 OFFCURVE",
"912 411 CURVE",
"922 377 LINE",
"931 491 LINE",
"777 491 LINE",
"724 -180 LINE"
);
},
{
closed = 1;
nodes = (
"949 109 OFFCURVE",
"911 153 OFFCURVE",
"911 240 CURVE SMOOTH",
"911 328 OFFCURVE",
"953 386 OFFCURVE",
"1021 386 CURVE SMOOTH",
"1089 386 OFFCURVE",
"1128 340 OFFCURVE",
"1128 257 CURVE SMOOTH",
"1128 166 OFFCURVE",
"1086 109 OFFCURVE",
"1016 109 CURVE SMOOTH"
);
},
{
closed = 1;
nodes = (
"488 -8 OFFCURVE",
"583 105 OFFCURVE",
"583 267 CURVE SMOOTH",
"583 414 OFFCURVE",
"498 503 OFFCURVE",
"374 503 CURVE SMOOTH",
"300 503 OFFCURVE",
"240 468 OFFCURVE",
"212 411 CURVE",
"223 380 LINE",
"249 705 LINE",
"93 705 LINE",
"38 0 LINE",
"192 0 LINE",
"201 118 LINE",
"190 79 LINE",
"221 24 OFFCURVE",
"274 -8 OFFCURVE",
"348 -8 CURVE SMOOTH"
);
},
{
closed = 1;
nodes = (
"249 109 OFFCURVE",
"211 153 OFFCURVE",
"211 240 CURVE SMOOTH",
"211 328 OFFCURVE",
"253 386 OFFCURVE",
"321 386 CURVE SMOOTH",
"389 386 OFFCURVE",
"428 340 OFFCURVE",
"428 257 CURVE SMOOTH",
"428 166 OFFCURVE",
"386 109 OFFCURVE",
"316 109 CURVE SMOOTH"
);
}
);
};
layerId = "E1B555A7-F4E1-459C-9C1A-AE952106EEF9";
paths = (
{
closed = 1;
nodes = (
"179 -180 LINE",
"202 115 LINE",
"190 79 LINE",
"221 24 OFFCURVE",
"274 -8 OFFCURVE",
"348 -8 CURVE SMOOTH",
"488 -8 OFFCURVE",
"583 105 OFFCURVE",
"583 267 CURVE SMOOTH",
"583 414 OFFCURVE",
"498 503 OFFCURVE",
"374 503 CURVE SMOOTH",
"300 503 OFFCURVE",
"240 468 OFFCURVE",
"212 411 CURVE",
"221 377 LINE",
"230 491 LINE",
"76 491 LINE",
"23 -180 LINE"
);
},
{
closed = 1;
nodes = (
"249 109 OFFCURVE",
"211 153 OFFCURVE",
"211 240 CURVE SMOOTH",
"211 328 OFFCURVE",
"253 386 OFFCURVE",
"321 386 CURVE SMOOTH",
"389 386 OFFCURVE",
"428 340 OFFCURVE",
"428 257 CURVE SMOOTH",
"428 166 OFFCURVE",
"386 109 OFFCURVE",
"316 109 CURVE SMOOTH"
);
}
);
width = 615;
}
);
leftKerningGroup = n;
rightKerningGroup = o;
unicode = 0070;
userData = {
anchors = (
);
b = {
};
com.typemytype.robofont.layerData = {
b = {
anchors = (
);
components = (
);
contours = (
);
lib = {
};
name = p;
unicodes = (
);
width = 1181;
};
};
components = (
);
contours = (
);
lib = {
};
name = p;
unicodes = (
);
width = 1207;
};
},
{
glyphname = thorn;
lastChange = "2017-11-28 09:38:30 +0000";
layers = (
{
anchors = (
{
name = bottom;
position = "{289, 0}";
},
{
name = top;
position = "{328, 495}";
}
);
background = {
paths = (
{
closed = 1;
nodes = (
"180 -180 LINE",
"203 115 LINE",
"189 96 LINE",
"206 32 OFFCURVE",
"267 -8 OFFCURVE",
"345 -8 CURVE SMOOTH",
"473 -8 OFFCURVE",
"570 91 OFFCURVE",
"582 245 CURVE SMOOTH",
"594 399 OFFCURVE",
"513 503 OFFCURVE",
"386 503 CURVE SMOOTH",
"308 503 OFFCURVE",
"239 463 OFFCURVE",
"212 399 CURVE",
"224 380 LINE",
"249 705 LINE",
"93 705 LINE",
"24 -180 LINE"
);
},
{
closed = 1;
nodes = (
"240 110 OFFCURVE",
"205 159 OFFCURVE",
"211 247 CURVE SMOOTH",
"218 336 OFFCURVE",
"261 385 OFFCURVE",
"330 385 CURVE SMOOTH",
"398 385 OFFCURVE",
"434 334 OFFCURVE",
"427 245 CURVE SMOOTH",
"420 158 OFFCURVE",
"378 110 OFFCURVE",
"309 110 CURVE SMOOTH"
);
}
);
};
layerId = "E1B555A7-F4E1-459C-9C1A-AE952106EEF9";
paths = (
{
closed = 1;
nodes = (
"179 -180 LINE",
"202 115 LINE",
"190 79 LINE",
"221 24 OFFCURVE",
"274 -8 OFFCURVE",
"348 -8 CURVE SMOOTH",
"488 -8 OFFCURVE",
"583 105 OFFCURVE",
"583 267 CURVE SMOOTH",
"583 414 OFFCURVE",
"498 503 OFFCURVE",
"374 503 CURVE SMOOTH",
"300 503 OFFCURVE",
"240 468 OFFCURVE",
"212 411 CURVE",
"223 380 LINE",
"249 705 LINE",
"93 705 LINE",
"23 -180 LINE"
);
},
{
closed = 1;
nodes = (
"249 109 OFFCURVE",
"211 153 OFFCURVE",
"211 240 CURVE SMOOTH",
"211 328 OFFCURVE",
"253 386 OFFCURVE",
"321 386 CURVE SMOOTH",
"389 386 OFFCURVE",
"428 340 OFFCURVE",
"428 257 CURVE SMOOTH",
"428 166 OFFCURVE",
"386 109 OFFCURVE",
"316 109 CURVE SMOOTH"
);
}
);
width = 615;
}
);
leftKerningGroup = h;
rightKerningGroup = o;
unicode = 00FE;
},
{
glyphname = q;
lastChange = "2017-11-28 09:38:30 +0000";
layers = (
{
anchors = (
{
name = bottom;
position = "{288, 0}";
},
{
name = top;
position = "{327, 495}";
}
);
background = {
paths = (
{
closed = 1;
nodes = (
"1224 -180 LINE",
"1277 491 LINE",
"1123 491 LINE",
"1114 377 LINE",
"1126 399 LINE",
"1109 463 OFFCURVE",
"1048 503 OFFCURVE",
"970 503 CURVE SMOOTH",
"843 503 OFFCURVE",
"744 399 OFFCURVE",
"732 245 CURVE SMOOTH",
"720 91 OFFCURVE",
"801 -8 OFFCURVE",
"929 -8 CURVE SMOOTH",
"1007 -8 OFFCURVE",
"1076 32 OFFCURVE",
"1103 96 CURVE",
"1091 115 LINE",
"1068 -180 LINE"
);
},
{
closed = 1;
nodes = (
"916 110 OFFCURVE",
"880 158 OFFCURVE",
"887 245 CURVE SMOOTH",
"894 334 OFFCURVE",
"938 385 OFFCURVE",
"1006 385 CURVE SMOOTH",
"1075 385 OFFCURVE",
"1110 336 OFFCURVE",
"1103 247 CURVE SMOOTH",
"1096 159 OFFCURVE",
"1054 110 OFFCURVE",
"985 110 CURVE SMOOTH"
);
},
{
closed = 1;
nodes = (
"316 -8 OFFCURVE",
"376 27 OFFCURVE",
"404 84 CURVE",
"394 118 LINE",
"385 0 LINE",
"539 0 LINE",
"594 705 LINE",
"438 705 LINE",
"412 380 LINE",
"426 416 LINE",
"395 471 OFFCURVE",
"342 503 OFFCURVE",
"268 503 CURVE SMOOTH",
"128 503 OFFCURVE",
"33 390 OFFCURVE",
"33 228 CURVE SMOOTH",
"33 81 OFFCURVE",
"118 -8 OFFCURVE",
"242 -8 CURVE SMOOTH"
);
},
{
closed = 1;
nodes = (
"227 109 OFFCURVE",
"188 155 OFFCURVE",
"188 238 CURVE SMOOTH",
"188 329 OFFCURVE",
"230 386 OFFCURVE",
"300 386 CURVE SMOOTH",
"367 386 OFFCURVE",
"405 342 OFFCURVE",
"405 255 CURVE SMOOTH",
"405 167 OFFCURVE",
"363 109 OFFCURVE",
"295 109 CURVE SMOOTH"
);
}
);
};
layerId = "E1B555A7-F4E1-459C-9C1A-AE952106EEF9";
paths = (
{
closed = 1;
nodes = (
"524 -180 LINE",
"577 491 LINE",
"423 491 LINE",
"414 380 LINE",
"426 416 LINE",
"395 471 OFFCURVE",
"342 503 OFFCURVE",
"268 503 CURVE SMOOTH",
"128 503 OFFCURVE",
"33 390 OFFCURVE",
"33 228 CURVE SMOOTH",
"33 81 OFFCURVE",
"118 -8 OFFCURVE",
"242 -8 CURVE SMOOTH",
"316 -8 OFFCURVE",
"376 27 OFFCURVE",
"404 84 CURVE",
"391 115 LINE",
"368 -180 LINE"
);
},
{
closed = 1;
nodes = (
"227 109 OFFCURVE",
"188 155 OFFCURVE",
"188 238 CURVE SMOOTH",
"188 329 OFFCURVE",
"230 386 OFFCURVE",
"300 386 CURVE SMOOTH",
"367 386 OFFCURVE",
"405 342 OFFCURVE",
"405 255 CURVE SMOOTH",
"405 167 OFFCURVE",
"363 109 OFFCURVE",
"295 109 CURVE SMOOTH"
);
}
);
width = 615;
}
);
leftKerningGroup = o;
rightKerningGroup = q;
unicode = 0071;
userData = {
anchors = (
);
b = {
};
com.typemytype.robofont.layerData = {
b = {
anchors = (
);
components = (
);
contours = (
);
lib = {
};
name = p;
unicodes = (
);
width = 1181;
};
};
components = (
);
contours = (
);
lib = {
};
name = p;
unicodes = (
);
width = 1207;
};
},
{
glyphname = r;
lastChange = "2017-11-28 09:38:30 +0000";
layers = (
{
anchors = (
{
name = bottom;
position = "{116, 0}";
},
{
name = top;
position = "{255, 495}";
}
);
background = {
paths = (
{
closed = 1;
nodes = (
"194 0 LINE",
"214 254 LINE SMOOTH",
"219 314 OFFCURVE",
"247 357 OFFCURVE",
"336 366 CURVE SMOOTH",
"424 375 LINE",
"425 504 LINE",
"379 501 LINE SMOOTH",
"295 495 OFFCURVE",
"229 457 OFFCURVE",
"206 372 CURVE",
"215 361 LINE",
"226 490 LINE",
"77 490 LINE",
"38 0 LINE"
);
}
);
};
layerId = "E1B555A7-F4E1-459C-9C1A-AE952106EEF9";
paths = (
{
closed = 1;
nodes = (
"194 0 LINE",
"214 254 LINE SMOOTH",
"220 325 OFFCURVE",
"247 357 OFFCURVE",
"328 365 CURVE SMOOTH",
"424 375 LINE",
"425 504 LINE",
"389 502 LINE SMOOTH",
"295 495 OFFCURVE",
"229 457 OFFCURVE",
"196 382 CURVE",
"215 361 LINE",
"226 490 LINE",
"77 490 LINE",
"38 0 LINE"
);
}
);
width = 404;
}
);
leftKerningGroup = n;
rightKerningGroup = r;
unicode = 0072;
userData = {
anchors = (
);
b = {
};
com.typemytype.robofont.layerData = {
b = {
anchors = (
);
components = (
);
contours = (
);
lib = {
};
name = r;
unicodes = (
);
width = 715;
};
};
components = (
);
contours = (
);
lib = {
};
name = r;
unicodes = (
);
width = 763;
};
},
{
glyphname = s;
lastChange = "2017-11-28 09:38:30 +0000";
layers = (
{
anchors = (
{
name = bottom;
position = "{225, 0}";
},
{
name = top;
position = "{273, 495}";
}
);
background = {
paths = (
{
closed = 1;
nodes = (
"360 -15 OFFCURVE",
"446 39 OFFCURVE",
"453 134 CURVE SMOOTH",
"459 213 OFFCURVE",
"419 260 OFFCURVE",
"320 288 CURVE SMOOTH",
"239 311 LINE SMOOTH",
"202 322 OFFCURVE",
"189 334 OFFCURVE",
"190 353 CURVE SMOOTH",
"191 381 OFFCURVE",
"221 395 OFFCURVE",
"265 393 CURVE SMOOTH",
"313 391 OFFCURVE",
"366 370 OFFCURVE",
"416 332 CURVE",
"465 433 LINE",
"414 474 OFFCURVE",
"346 499 OFFCURVE",
"275 503 CURVE SMOOTH",
"150 510 OFFCURVE",
"58 450 OFFCURVE",
"51 357 CURVE SMOOTH",
"45 280 OFFCURVE",
"83 235 OFFCURVE",
"177 209 CURVE SMOOTH",
"255 187 LINE SMOOTH",
"303 173 OFFCURVE",
"316 162 OFFCURVE",
"314 139 CURVE SMOOTH",
"312 113 OFFCURVE",
"285 100 OFFCURVE",
"240 102 CURVE SMOOTH",
"176 105 OFFCURVE",
"110 130 OFFCURVE",
"60 169 CURVE",
"11 64 LINE",
"61 22 OFFCURVE",
"137 -3 OFFCURVE",
"229 -8 CURVE SMOOTH"
);
},
{
closed = 1;
nodes = (
"960 -8 OFFCURVE",
"1046 50 OFFCURVE",
"1053 145 CURVE SMOOTH",
"1059 224 OFFCURVE",
"1019 268 OFFCURVE",
"920 291 CURVE SMOOTH",
"838 310 LINE SMOOTH",
"801 319 OFFCURVE",
"788 330 OFFCURVE",
"789 349 CURVE SMOOTH",
"790 377 OFFCURVE",
"820 393 OFFCURVE",
"865 393 CURVE SMOOTH",
"913 393 OFFCURVE",
"966 375 OFFCURVE",
"1016 340 CURVE",
"1065 443 LINE",
"1014 481 OFFCURVE",
"946 503 OFFCURVE",
"875 503 CURVE SMOOTH",
"749 503 OFFCURVE",
"657 439 OFFCURVE",
"649 346 CURVE SMOOTH",
"642 269 OFFCURVE",
"682 226 OFFCURVE",
"776 205 CURVE SMOOTH",
"855 187 LINE SMOOTH",
"903 176 OFFCURVE",
"916 166 OFFCURVE",
"914 143 CURVE SMOOTH",
"912 117 OFFCURVE",
"885 102 OFFCURVE",
"839 102 CURVE SMOOTH",
"775 102 OFFCURVE",
"709 123 OFFCURVE",
"659 159 CURVE",
"609 52 LINE",
"660 13 OFFCURVE",
"736 -8 OFFCURVE",
"828 -8 CURVE SMOOTH"
);
}
);
};
layerId = "E1B555A7-F4E1-459C-9C1A-AE952106EEF9";
paths = (
{
closed = 1;
nodes = (
"369 -8 OFFCURVE",
"453 49 OFFCURVE",
"453 149 CURVE SMOOTH",
"453 316 OFFCURVE",
"187 280 OFFCURVE",
"187 354 CURVE SMOOTH",
"187 378 OFFCURVE",
"212 393 OFFCURVE",
"262 393 CURVE SMOOTH",
"313 393 OFFCURVE",
"367 375 OFFCURVE",
"416 340 CURVE",
"465 443 LINE",
"416 480 OFFCURVE",
"339 503 OFFCURVE",
"265 503 CURVE SMOOTH",
"138 503 OFFCURVE",
"50 440 OFFCURVE",
"48 348 CURVE SMOOTH",
"44 176 OFFCURVE",
"314 214 OFFCURVE",
"314 140 CURVE SMOOTH",
"314 118 OFFCURVE",
"293 102 OFFCURVE",
"241 102 CURVE SMOOTH",
"179 102 OFFCURVE",
"113 123 OFFCURVE",
"59 159 CURVE",
"9 52 LINE",
"78 12 OFFCURVE",
"150 -8 OFFCURVE",
"238 -8 CURVE SMOOTH"
);
}
);
width = 488;
}
);
leftKerningGroup = s;
rightKerningGroup = s;
unicode = 0073;
userData = {
anchors = (
);
b = {
};
com.typemytype.robofont.layerData = {
b = {
anchors = (
);
components = (
);
contours = (
);
lib = {
};
name = s;
unicodes = (
);
width = 1007;
};
};
components = (
);
contours = (
);
lib = {
};
name = s;
unicodes = (
);
width = 1006.76001;
};
},
{
glyphname = germandbls;
lastChange = "2017-11-28 09:38:30 +0000";
layers = (
{
background = {
paths = (
{
closed = 1;
nodes = (
"194 0 LINE",
"231 466 LINE SMOOTH",
"238 553 OFFCURVE",
"284 602 OFFCURVE",
"357 602 CURVE SMOOTH",
"405 602 OFFCURVE",
"429 584 OFFCURVE",
"426 550 CURVE SMOOTH",
"422 492 OFFCURVE",
"309 446 OFFCURVE",
"301 346 CURVE SMOOTH",
"288 184 OFFCURVE",
"520 221 OFFCURVE",
"514 145 CURVE SMOOTH",
"512 120 OFFCURVE",
"490 107 OFFCURVE",
"450 106 CURVE SMOOTH",
"401 105 OFFCURVE",
"342 125 OFFCURVE",
"290 159 CURVE",
"240 52 LINE",
"289 14 OFFCURVE",
"362 -8 OFFCURVE",
"439 -8 CURVE SMOOTH",
"563 -8 OFFCURVE",
"648 57 OFFCURVE",
"656 158 CURVE SMOOTH",
"670 329 OFFCURVE",
"439 291 OFFCURVE",
"445 363 CURVE SMOOTH",
"449 420 OFFCURVE",
"564 463 OFFCURVE",
"572 564 CURVE SMOOTH",
"580 658 OFFCURVE",
"506 713 OFFCURVE",
"373 713 CURVE SMOOTH",
"194 713 OFFCURVE",
"87 617 OFFCURVE",
"73 442 CURVE SMOOTH",
"38 0 LINE"
);
}
);
};
layerId = "E1B555A7-F4E1-459C-9C1A-AE952106EEF9";
paths = (
{
closed = 1;
nodes = (
"194 0 LINE",
"231 466 LINE SMOOTH",
"238 559 OFFCURVE",
"281 602 OFFCURVE",
"355 602 CURVE SMOOTH",
"404 602 OFFCURVE",
"426 584 OFFCURVE",
"426 550 CURVE SMOOTH",
"426 490 OFFCURVE",
"300 442 OFFCURVE",
"300 338 CURVE SMOOTH",
"300 188 OFFCURVE",
"514 218 OFFCURVE",
"514 148 CURVE SMOOTH",
"514 120 OFFCURVE",
"491 106 OFFCURVE",
"453 106 CURVE SMOOTH",
"400 106 OFFCURVE",
"343 126 OFFCURVE",
"290 159 CURVE",
"240 52 LINE",
"293 14 OFFCURVE",
"366 -8 OFFCURVE",
"439 -8 CURVE SMOOTH",
"577 -8 OFFCURVE",
"657 63 OFFCURVE",
"657 163 CURVE SMOOTH",
"657 325 OFFCURVE",
"445 294 OFFCURVE",
"445 361 CURVE SMOOTH",
"445 422 OFFCURVE",
"573 462 OFFCURVE",
"573 576 CURVE SMOOTH",
"573 661 OFFCURVE",
"494 713 OFFCURVE",
"363 713 CURVE SMOOTH",
"187 713 OFFCURVE",
"87 620 OFFCURVE",
"73 442 CURVE SMOOTH",
"38 0 LINE"
);
}
);
width = 683;
}
);
leftKerningGroup = h;
rightKerningGroup = germandbls;
unicode = 00DF;
},
{
glyphname = t;
lastChange = "2017-11-28 09:38:30 +0000";
layers = (
{
anchors = (
{
name = bottom;
position = "{226, 0}";
},
{
name = center;
position = "{176, 248}";
},
{
name = top;
position = "{206, 635}";
},
{
name = topright;
position = "{329, 705}";
}
);
background = {
paths = (
{
closed = 1;
nodes = (
"386 375 LINE",
"395 491 LINE",
"24 491 LINE",
"15 375 LINE"
);
},
{
closed = 1;
nodes = (
"93 192 LINE SMOOTH",
"83 59 OFFCURVE",
"141 -8 OFFCURVE",
"294 -8 CURVE SMOOTH",
"316 -8 OFFCURVE",
"331 -7 OFFCURVE",
"354 -4 CURVE",
"371 109 LINE",
"353 107 OFFCURVE",
"337 106 OFFCURVE",
"322 106 CURVE SMOOTH",
"268 106 OFFCURVE",
"245 134 OFFCURVE",
"249 192 CURVE SMOOTH",
"284 635 LINE",
"128 635 LINE"
);
}
);
};
layerId = "E1B555A7-F4E1-459C-9C1A-AE952106EEF9";
paths = (
{
closed = 1;
nodes = (
"386 375 LINE",
"395 491 LINE",
"24 491 LINE",
"15 375 LINE"
);
},
{
closed = 1;
nodes = (
"93 194 LINE SMOOTH",
"82 60 OFFCURVE",
"151 -8 OFFCURVE",
"297 -8 CURVE SMOOTH",
"314 -8 OFFCURVE",
"331 -7 OFFCURVE",
"354 -3 CURVE",
"371 109 LINE",
"353 107 OFFCURVE",
"337 106 OFFCURVE",
"325 106 CURVE SMOOTH",
"268 106 OFFCURVE",
"244 135 OFFCURVE",
"249 194 CURVE SMOOTH",
"284 635 LINE",
"128 635 LINE"
);
}
);
width = 390;
}
);
leftKerningGroup = t;
rightKerningGroup = t;
unicode = 0074;
userData = {
anchors = (
);
b = {
};
com.typemytype.robofont.layerData = {
b = {
anchors = (
);
components = (
);
contours = (
{
points = (
{
segmentType = curve;
smooth = 1;
x = 317;
y = 0;
},
{
smooth = 0;
x = 358;
y = 0;
},
{
smooth = 0;
x = 398;
y = 27;
},
{
segmentType = curve;
smooth = 1;
x = 398;
y = 79;
},
{
segmentType = line;
smooth = 0;
x = 398;
y = 876;
},
{
segmentType = line;
smooth = 1;
x = 578;
y = 876;
},
{
smooth = 0;
x = 621;
y = 876;
},
{
smooth = 0;
x = 634;
y = 897;
},
{
segmentType = curve;
smooth = 1;
x = 634;
y = 928;
},
{
smooth = 0;
x = 634;
y = 957;
},
{
smooth = 0;
x = 621;
y = 981;
},
{
segmentType = curve;
smooth = 1;
x = 578;
y = 981;
},
{
segmentType = line;
smooth = 0;
x = 398;
y = 981;
},
{
segmentType = line;
smooth = 1;
x = 398;
y = 1053;
},
{
smooth = 0;
x = 398;
y = 1285;
},
{
smooth = 0;
x = 432;
y = 1318;
},
{
segmentType = curve;
smooth = 1;
x = 544;
y = 1318;
},
{
segmentType = line;
smooth = 1;
x = 629;
y = 1318;
},
{
smooth = 0;
x = 706;
y = 1318;
},
{
smooth = 0;
x = 703;
y = 1438;
},
{
segmentType = curve;
smooth = 1;
x = 630;
y = 1438;
},
{
segmentType = line;
smooth = 1;
x = 510;
y = 1438;
},
{
smooth = 0;
x = 357;
y = 1438;
},
{
smooth = 0;
x = 238;
y = 1371;
},
{
segmentType = curve;
smooth = 1;
x = 238;
y = 1112;
},
{
segmentType = line;
smooth = 0;
x = 238;
y = 981;
},
{
segmentType = line;
smooth = 1;
x = 98;
y = 981;
},
{
smooth = 0;
x = 55;
y = 981;
},
{
smooth = 0;
x = 39;
y = 957;
},
{
segmentType = curve;
smooth = 1;
x = 39;
y = 928;
},
{
smooth = 0;
x = 39;
y = 899;
},
{
smooth = 0;
x = 55;
y = 876;
},
{
segmentType = curve;
smooth = 1;
x = 98;
y = 876;
},
{
segmentType = line;
smooth = 0;
x = 238;
y = 876;
},
{
segmentType = line;
smooth = 1;
x = 238;
y = 79;
},
{
smooth = 0;
x = 238;
y = 26;
},
{
smooth = 0;
x = 278;
y = 0;
}
);
}
);
lib = {
};
name = t;
unicodes = (
);
width = 706;
};
};
components = (
);
contours = (
);
lib = {
};
name = t;
unicodes = (
);
width = 768;
};
},
{
glyphname = tbar;
lastChange = "2017-11-28 09:38:30 +0000";
layers = (
{
background = {
paths = (
{
closed = 1;
nodes = (
"359 224 LINE",
"367 332 LINE",
"36 332 LINE",
"28 224 LINE"
);
},
{
closed = 1;
nodes = (
"391 375 LINE",
"400 491 LINE",
"29 491 LINE",
"20 375 LINE"
);
},
{
closed = 1;
nodes = (
"98 192 LINE SMOOTH",
"88 59 OFFCURVE",
"146 -8 OFFCURVE",
"299 -8 CURVE SMOOTH",
"321 -8 OFFCURVE",
"336 -7 OFFCURVE",
"359 -4 CURVE",
"376 109 LINE",
"358 107 OFFCURVE",
"342 106 OFFCURVE",
"327 106 CURVE SMOOTH",
"273 106 OFFCURVE",
"250 134 OFFCURVE",
"254 192 CURVE SMOOTH",
"289 635 LINE",
"133 635 LINE"
);
}
);
};
layerId = "E1B555A7-F4E1-459C-9C1A-AE952106EEF9";
paths = (
{
closed = 1;
nodes = (
"359 224 LINE",
"367 332 LINE",
"36 332 LINE",
"28 224 LINE"
);
},
{
closed = 1;
nodes = (
"391 375 LINE",
"400 491 LINE",
"29 491 LINE",
"20 375 LINE"
);
},
{
closed = 1;
nodes = (
"98 194 LINE SMOOTH",
"87 60 OFFCURVE",
"156 -8 OFFCURVE",
"302 -8 CURVE SMOOTH",
"319 -8 OFFCURVE",
"336 -7 OFFCURVE",
"359 -3 CURVE",
"376 109 LINE",
"358 107 OFFCURVE",
"342 106 OFFCURVE",
"330 106 CURVE SMOOTH",
"273 106 OFFCURVE",
"249 135 OFFCURVE",
"254 194 CURVE SMOOTH",
"289 635 LINE",
"133 635 LINE"
);
}
);
width = 400;
}
);
leftKerningGroup = t;
rightKerningGroup = t;
unicode = 0167;
userData = {
com.typemytype.robofont.layerData = {
b = {
anchors = (
);
components = (
);
contours = (
);
lib = {
};
name = tbar;
unicodes = (
);
width = 706;
};
};
};
},
{
glyphname = u;
lastChange = "2017-11-28 09:38:30 +0000";
layers = (
{
anchors = (
{
name = bottom;
position = "{275, 0}";
},
{
name = ogonek;
position = "{487, 10}";
},
{
name = top;
position = "{314, 495}";
},
{
name = topright;
position = "{428, 495}";
}
);
background = {
paths = (
{
closed = 1;
nodes = (
"889 -8 OFFCURVE",
"948 28 OFFCURVE",
"982 94 CURVE",
"970 98 LINE",
"962 0 LINE",
"1114 0 LINE",
"1153 491 LINE",
"997 491 LINE",
"975 220 LINE SMOOTH",
"970 156 OFFCURVE",
"928 113 OFFCURVE",
"871 113 CURVE SMOOTH",
"822 113 OFFCURVE",
"802 140 OFFCURVE",
"806 197 CURVE SMOOTH",
"829 491 LINE",
"673 491 LINE",
"650 200 LINE SMOOTH",
"639 60 OFFCURVE",
"693 -8 OFFCURVE",
"817 -8 CURVE SMOOTH"
);
},
{
closed = 1;
nodes = (
"397 495 LINE",
"375 220 LINE SMOOTH",
"370 155 OFFCURVE",
"336 113 OFFCURVE",
"274 113 CURVE SMOOTH",
"220 113 OFFCURVE",
"195 147 OFFCURVE",
"200 210 CURVE SMOOTH",
"223 495 LINE",
"67 495 LINE",
"44 204 LINE SMOOTH",
"33 65 OFFCURVE",
"90 -8 OFFCURVE",
"209 -8 CURVE SMOOTH",
"288 -8 OFFCURVE",
"352 27 OFFCURVE",
"382 84 CURVE",
"370 98 LINE",
"362 4 LINE",
"514 4 LINE",
"553 495 LINE"
);
}
);
};
layerId = "E1B555A7-F4E1-459C-9C1A-AE952106EEF9";
paths = (
{
closed = 1;
nodes = (
"288 -8 OFFCURVE",
"352 27 OFFCURVE",
"382 84 CURVE",
"370 98 LINE",
"362 0 LINE",
"514 0 LINE",
"553 491 LINE",
"397 491 LINE",
"375 220 LINE SMOOTH",
"370 155 OFFCURVE",
"336 113 OFFCURVE",
"278 113 CURVE SMOOTH",
"226 113 OFFCURVE",
"201 147 OFFCURVE",
"206 210 CURVE SMOOTH",
"229 491 LINE",
"73 491 LINE",
"50 201 LINE SMOOTH",
"39 65 OFFCURVE",
"96 -8 OFFCURVE",
"213 -8 CURVE SMOOTH"
);
}
);
width = 591;
}
);
leftKerningGroup = u;
rightKerningGroup = u;
unicode = 0075;
userData = {
anchors = (
);
b = {
};
com.typemytype.robofont.layerData = {
b = {
anchors = (
);
components = (
);
contours = (
{
points = (
{
segmentType = curve;
smooth = 1;
x = 915;
y = 991;
},
{
smooth = 0;
x = 875;
y = 991;
},
{
smooth = 0;
x = 834;
y = 965;
},
{
segmentType = curve;
smooth = 1;
x = 834;
y = 916;
},
{
segmentType = line;
smooth = 0;
x = 834;
y = 395;
},
{
smooth = 0;
x = 821;
y = 198;
},
{
smooth = 0;
x = 698;
y = 90;
},
{
segmentType = curve;
smooth = 1;
x = 542;
y = 90;
},
{
smooth = 0;
x = 385;
y = 90;
},
{
smooth = 0;
x = 306;
y = 187;
},
{
segmentType = curve;
smooth = 1;
x = 306;
y = 367;
},
{
segmentType = line;
smooth = 1;
x = 306;
y = 916;
},
{
smooth = 0;
x = 306;
y = 967;
},
{
smooth = 0;
x = 266;
y = 991;
},
{
segmentType = curve;
smooth = 1;
x = 226;
y = 991;
},
{
smooth = 0;
x = 186;
y = 991;
},
{
smooth = 0;
x = 146;
y = 967;
},
{
segmentType = curve;
smooth = 1;
x = 146;
y = 916;
},
{
segmentType = line;
smooth = 1;
x = 146;
y = 369;
},
{
smooth = 0;
x = 146;
y = 96;
},
{
smooth = 0;
x = 294;
y = "-20";
},
{
segmentType = curve;
smooth = 1;
x = 507;
y = "-20";
},
{
smooth = 0;
x = 656;
y = "-20";
},
{
smooth = 0;
x = 786;
y = 49;
},
{
segmentType = curve;
smooth = 0;
x = 834;
y = 179;
},
{
segmentType = line;
smooth = 1;
x = 834;
y = 73;
},
{
smooth = 0;
x = 834;
y = 24;
},
{
smooth = 0;
x = 874;
y = 0;
},
{
segmentType = curve;
smooth = 1;
x = 913;
y = 0;
},
{
smooth = 0;
x = 953;
y = 0;
},
{
smooth = 0;
x = 994;
y = 24;
},
{
segmentType = curve;
smooth = 1;
x = 994;
y = 75;
},
{
segmentType = line;
smooth = 1;
x = 994;
y = 916;
},
{
smooth = 0;
x = 994;
y = 967;
},
{
smooth = 0;
x = 955;
y = 991;
}
);
}
);
lib = {
};
name = u;
unicodes = (
);
width = 1152;
};
};
components = (
);
contours = (
);
lib = {
};
name = u;
unicodes = (
);
width = 1195;
};
},
{
glyphname = uhorn;
lastChange = "2017-11-28 09:38:30 +0000";
layers = (
{
anchors = (
{
name = bottom;
position = "{276, 0}";
},
{
name = top;
position = "{315, 495}";
}
);
background = {
paths = (
{
closed = 1;
nodes = (
"1140 596 LINE SMOOTH",
"1136 519 OFFCURVE",
"1107 491 OFFCURVE",
"1042 491 CURVE SMOOTH",
"998 491 LINE",
"976 220 LINE SMOOTH",
"971 156 OFFCURVE",
"929 113 OFFCURVE",
"872 113 CURVE SMOOTH",
"823 113 OFFCURVE",
"803 140 OFFCURVE",
"807 197 CURVE SMOOTH",
"830 491 LINE",
"674 491 LINE",
"651 200 LINE SMOOTH",
"640 60 OFFCURVE",
"694 -8 OFFCURVE",
"818 -8 CURVE SMOOTH",
"890 -8 OFFCURVE",
"949 28 OFFCURVE",
"983 94 CURVE",
"971 98 LINE",
"963 0 LINE",
"1115 0 LINE",
"1152 470 LINE",
"1116 420 LINE",
"1202 425 OFFCURVE",
"1265 489 OFFCURVE",
"1272 577 CURVE SMOOTH",
"1275 616 LINE",
"1141 616 LINE"
);
},
{
closed = 1;
nodes = (
"288 -8 OFFCURVE",
"352 27 OFFCURVE",
"382 84 CURVE",
"370 98 LINE",
"362 0 LINE",
"514 0 LINE",
"553 491 LINE",
"397 491 LINE",
"375 220 LINE SMOOTH",
"370 155 OFFCURVE",
"336 113 OFFCURVE",
"278 113 CURVE SMOOTH",
"226 113 OFFCURVE",
"201 147 OFFCURVE",
"206 210 CURVE SMOOTH",
"229 491 LINE",
"73 491 LINE",
"50 201 LINE SMOOTH",
"39 65 OFFCURVE",
"96 -8 OFFCURVE",
"213 -8 CURVE SMOOTH"
);
}
);
};
layerId = "E1B555A7-F4E1-459C-9C1A-AE952106EEF9";
paths = (
{
closed = 1;
nodes = (
"539 596 LINE SMOOTH",
"535 519 OFFCURVE",
"506 491 OFFCURVE",
"441 491 CURVE SMOOTH",
"397 491 LINE",
"375 220 LINE SMOOTH",
"370 155 OFFCURVE",
"336 113 OFFCURVE",
"278 113 CURVE SMOOTH",
"226 113 OFFCURVE",
"201 147 OFFCURVE",
"206 210 CURVE SMOOTH",
"229 491 LINE",
"73 491 LINE",
"50 201 LINE SMOOTH",
"39 65 OFFCURVE",
"96 -8 OFFCURVE",
"213 -8 CURVE SMOOTH",
"288 -8 OFFCURVE",
"352 27 OFFCURVE",
"382 84 CURVE",
"370 98 LINE",
"362 0 LINE",
"514 0 LINE",
"551 470 LINE",
"515 420 LINE",
"601 425 OFFCURVE",
"664 489 OFFCURVE",
"671 577 CURVE SMOOTH",
"674 616 LINE",
"540 616 LINE"
);
}
);
width = 616;
}
);
leftKerningGroup = u;
rightKerningGroup = uhorn;
unicode = 01B0;
},
{
glyphname = uogonek;
lastChange = "2017-11-28 09:38:30 +0000";
layers = (
{
background = {
paths = (
{
closed = 1;
nodes = (
"288 -8 OFFCURVE",
"352 27 OFFCURVE",
"382 84 CURVE",
"370 98 LINE",
"362 0 LINE",
"514 0 LINE",
"553 491 LINE",
"397 491 LINE",
"375 220 LINE SMOOTH",
"370 155 OFFCURVE",
"336 113 OFFCURVE",
"278 113 CURVE SMOOTH",
"226 113 OFFCURVE",
"201 147 OFFCURVE",
"206 210 CURVE SMOOTH",
"229 491 LINE",
"73 491 LINE",
"50 201 LINE SMOOTH",
"39 65 OFFCURVE",
"96 -8 OFFCURVE",
"213 -8 CURVE SMOOTH"
);
},
{
closed = 1;
nodes = (
"474 -197 OFFCURVE",
"506 -190 OFFCURVE",
"537 -177 CURVE",
"526 -105 LINE",
"504 -113 OFFCURVE",
"486 -117 OFFCURVE",
"469 -117 CURVE SMOOTH",
"437 -117 OFFCURVE",
"416 -99 OFFCURVE",
"416 -67 CURVE SMOOTH",
"416 -35 OFFCURVE",
"438 -5 OFFCURVE",
"491 10 CURVE",
"477 46 LINE",
"371 32 OFFCURVE",
"315 -21 OFFCURVE",
"315 -91 CURVE SMOOTH",
"315 -153 OFFCURVE",
"364 -197 OFFCURVE",
"442 -197 CURVE SMOOTH"
);
}
);
};
layerId = "E1B555A7-F4E1-459C-9C1A-AE952106EEF9";
paths = (
{
closed = 1;
nodes = (
"553 491 LINE",
"397 491 LINE",
"375 220 LINE SMOOTH",
"370 155 OFFCURVE",
"336 113 OFFCURVE",
"278 113 CURVE SMOOTH",
"226 113 OFFCURVE",
"201 147 OFFCURVE",
"206 210 CURVE SMOOTH",
"229 491 LINE",
"73 491 LINE",
"50 201 LINE SMOOTH",
"39 65 OFFCURVE",
"96 -8 OFFCURVE",
"213 -8 CURVE SMOOTH",
"288 -8 OFFCURVE",
"352 27 OFFCURVE",
"382 84 CURVE",
"370 98 LINE",
"362 0 LINE",
"403 0 LINE",
"419 32 LINE",
"357 13 OFFCURVE",
"315 -31 OFFCURVE",
"315 -91 CURVE SMOOTH",
"315 -153 OFFCURVE",
"364 -197 OFFCURVE",
"442 -197 CURVE SMOOTH",
"474 -197 OFFCURVE",
"506 -190 OFFCURVE",
"537 -177 CURVE",
"526 -105 LINE",
"504 -113 OFFCURVE",
"486 -117 OFFCURVE",
"469 -117 CURVE SMOOTH",
"437 -117 OFFCURVE",
"416 -99 OFFCURVE",
"416 -67 CURVE SMOOTH",
"416 -29 OFFCURVE",
"446 0 OFFCURVE",
"498 0 CURVE SMOOTH",
"514 0 LINE"
);
}
);
width = 591;
}
);
leftKerningGroup = u;
rightKerningGroup = u;
unicode = 0173;
},
{
glyphname = v;
lastChange = "2017-11-28 09:38:30 +0000";
layers = (
{
anchors = (
{
name = bottom;
position = "{250, 0}";
},
{
name = top;
position = "{289, 495}";
}
);
background = {
paths = (
{
closed = 1;
nodes = (
"313 0 LINE",
"569 490 LINE",
"416 490 LINE",
"247 146 LINE",
"278 146 LINE",
"170 490 LINE",
"7 490 LINE",
"182 0 LINE"
);
}
);
};
layerId = "E1B555A7-F4E1-459C-9C1A-AE952106EEF9";
paths = (
{
closed = 1;
nodes = (
"313 0 LINE",
"569 490 LINE",
"413 490 LINE",
"246 146 LINE",
"279 146 LINE",
"165 490 LINE",
"7 490 LINE",
"182 0 LINE"
);
}
);
width = 535;
}
);
leftKerningGroup = v;
rightKerningGroup = v;
unicode = 0076;
userData = {
com.typemytype.robofont.layerData = {
b = {
anchors = (
);
components = (
);
contours = (
{
points = (
{
segmentType = line;
smooth = 0;
x = 518;
y = 0;
},
{
smooth = 0;
x = 589;
y = 0;
},
{
smooth = 0;
x = 618;
y = 36;
},
{
segmentType = curve;
smooth = 1;
x = 654;
y = 121;
},
{
segmentType = line;
smooth = 1;
x = 979;
y = 890;
},
{
smooth = 0;
x = 1000;
y = 940;
},
{
smooth = 0;
x = 968;
y = 991;
},
{
segmentType = curve;
smooth = 1;
x = 907;
y = 991;
},
{
smooth = 0;
x = 878;
y = 991;
},
{
smooth = 0;
x = 850;
y = 975;
},
{
segmentType = curve;
smooth = 1;
x = 836;
y = 940;
},
{
segmentType = line;
smooth = 0;
x = 518;
y = 166;
}
);
},
{
points = (
{
segmentType = curve;
smooth = 0;
x = 518;
y = 0;
},
{
segmentType = line;
smooth = 0;
x = 518;
y = 166;
},
{
segmentType = line;
smooth = 1;
x = 200;
y = 940;
},
{
smooth = 0;
x = 186;
y = 975;
},
{
smooth = 0;
x = 158;
y = 991;
},
{
segmentType = curve;
smooth = 1;
x = 129;
y = 991;
},
{
smooth = 0;
x = 68;
y = 991;
},
{
smooth = 0;
x = 36;
y = 940;
},
{
segmentType = curve;
smooth = 1;
x = 57;
y = 890;
},
{
segmentType = line;
smooth = 1;
x = 382;
y = 121;
},
{
smooth = 0;
x = 418;
y = 36;
},
{
smooth = 0;
x = 447;
y = 0;
}
);
}
);
lib = {
};
name = v;
unicodes = (
);
width = 1027;
};
};
};
},
{
glyphname = w;
lastChange = "2017-11-28 09:38:30 +0000";
layers = (
{
anchors = (
{
name = bottom;
position = "{414, 0}";
},
{
name = top;
position = "{453, 495}";
}
);
background = {
anchors = (
{
name = bottom;
position = "{433, 0}";
},
{
name = top;
position = "{472, 495}";
}
);
paths = (
{
closed = 1;
nodes = (
"328 0 LINE",
"491 357 LINE",
"425 357 LINE",
"537 0 LINE",
"668 0 LINE",
"907 491 LINE",
"756 491 LINE",
"604 153 LINE",
"626 153 LINE",
"527 491 LINE",
"423 491 LINE",
"270 153 LINE",
"295 153 LINE",
"194 491 LINE",
"35 491 LINE",
"197 0 LINE"
);
}
);
};
layerId = "E1B555A7-F4E1-459C-9C1A-AE952106EEF9";
paths = (
{
closed = 1;
nodes = (
"309 0 LINE",
"470 357 LINE",
"404 357 LINE",
"518 0 LINE",
"649 0 LINE",
"888 491 LINE",
"733 491 LINE",
"581 153 LINE",
"603 153 LINE",
"504 491 LINE",
"400 491 LINE",
"248 153 LINE",
"273 153 LINE",
"171 491 LINE",
"16 491 LINE",
"178 0 LINE"
);
}
);
width = 865;
}
);
leftKerningGroup = v;
rightKerningGroup = v;
unicode = 0077;
userData = {
anchors = (
);
b = {
};
com.typemytype.robofont.layerData = {
b = {
anchors = (
);
components = (
);
contours = (
{
points = (
{
segmentType = curve;
smooth = 1;
x = 477;
y = 0;
},
{
smooth = 0;
x = 524;
y = 0;
},
{
smooth = 0;
x = 564;
y = 30;
},
{
segmentType = curve;
smooth = 0;
x = 588;
y = 96;
},
{
segmentType = line;
smooth = 0;
x = 859;
y = 839;
},
{
segmentType = line;
smooth = 0;
x = 859;
y = 991;
},
{
smooth = 0;
x = 808;
y = 991;
},
{
smooth = 0;
x = 771;
y = 959;
},
{
segmentType = curve;
smooth = 1;
x = 750;
y = 899;
},
{
segmentType = line;
smooth = 0;
x = 488;
y = 173;
},
{
segmentType = line;
smooth = 1;
x = 223;
y = 936;
},
{
smooth = 0;
x = 210;
y = 974;
},
{
smooth = 0;
x = 183;
y = 991;
},
{
segmentType = curve;
smooth = 1;
x = 152;
y = 991;
},
{
smooth = 0;
x = 112;
y = 991;
},
{
smooth = 0;
x = 79;
y = 962;
},
{
segmentType = curve;
smooth = 1;
x = 79;
y = 916;
},
{
smooth = 0;
x = 79;
y = 909;
},
{
smooth = 0;
x = 81;
y = 899;
},
{
segmentType = curve;
smooth = 0;
x = 84;
y = 888;
},
{
segmentType = line;
smooth = 1;
x = 372;
y = 88;
},
{
smooth = 0;
x = 394;
y = 26;
},
{
smooth = 0;
x = 433;
y = 0;
}
);
},
{
points = (
{
segmentType = curve;
smooth = 1;
x = 1241;
y = 0;
},
{
smooth = 0;
x = 1285;
y = 0;
},
{
smooth = 0;
x = 1324;
y = 26;
},
{
segmentType = curve;
smooth = 1;
x = 1346;
y = 88;
},
{
segmentType = line;
smooth = 0;
x = 1634;
y = 888;
},
{
smooth = 0;
x = 1637;
y = 899;
},
{
smooth = 0;
x = 1639;
y = 909;
},
{
segmentType = curve;
smooth = 1;
x = 1639;
y = 916;
},
{
smooth = 0;
x = 1639;
y = 962;
},
{
smooth = 0;
x = 1606;
y = 991;
},
{
segmentType = curve;
smooth = 1;
x = 1566;
y = 991;
},
{
smooth = 0;
x = 1535;
y = 991;
},
{
smooth = 0;
x = 1508;
y = 974;
},
{
segmentType = curve;
smooth = 1;
x = 1495;
y = 936;
},
{
segmentType = line;
smooth = 0;
x = 1230;
y = 173;
},
{
segmentType = line;
smooth = 1;
x = 968;
y = 899;
},
{
smooth = 0;
x = 947;
y = 959;
},
{
smooth = 0;
x = 910;
y = 991;
},
{
segmentType = curve;
smooth = 0;
x = 859;
y = 991;
},
{
segmentType = line;
smooth = 0;
x = 859;
y = 839;
},
{
segmentType = line;
smooth = 0;
x = 1130;
y = 96;
},
{
smooth = 0;
x = 1154;
y = 30;
},
{
smooth = 0;
x = 1194;
y = 0;
}
);
}
);
lib = {
};
name = w;
unicodes = (
);
width = 1699;
};
};
components = (
);
contours = (
);
lib = {
};
name = w;
unicodes = (
);
width = 1742;
};
},
{
glyphname = x;
lastChange = "2017-11-28 09:38:30 +0000";
layers = (
{
anchors = (
{
name = bottom;
position = "{252, 0}";
},
{
name = top;
position = "{291, 495}";
}
);
background = {
paths = (
{
closed = 1;
nodes = (
"549 0 LINE",
"187 491 LINE",
"6 491 LINE",
"368 0 LINE"
);
},
{
closed = 1;
nodes = (
"576 491 LINE",
"390 491 LINE",
"-45 0 LINE",
"141 0 LINE"
);
}
);
};
layerId = "E1B555A7-F4E1-459C-9C1A-AE952106EEF9";
paths = (
{
closed = 1;
nodes = (
"549 0 LINE",
"362 252 LINE",
"279 361 LINE",
"187 491 LINE",
"6 491 LINE",
"183 254 LINE",
"265 145 LINE",
"368 0 LINE"
);
},
{
closed = 1;
nodes = (
"265 145 LINE",
"362 252 LINE",
"576 491 LINE",
"390 491 LINE",
"279 361 LINE",
"183 254 LINE",
"-45 0 LINE",
"141 0 LINE"
);
}
);
width = 542;
}
);
leftKerningGroup = x;
rightKerningGroup = x;
unicode = 0078;
userData = {
com.typemytype.robofont.layerData = {
b = {
anchors = (
);
components = (
);
contours = (
);
lib = {
};
name = x;
unicodes = (
);
width = 1039;
};
};
};
},
{
glyphname = y;
lastChange = "2017-11-28 09:38:30 +0000";
layers = (
{
anchors = (
{
name = bottom;
position = "{406, 0}";
},
{
name = top;
position = "{288, 495}";
}
);
background = {
paths = (
{
closed = 1;
nodes = (
"1269 490 LINE",
"1116 490 LINE",
"947 146 LINE",
"902 83 LINE",
"761 -180 LINE",
"919 -180 LINE"
);
},
{
closed = 1;
nodes = (
"978 146 LINE",
"870 490 LINE",
"707 490 LINE",
"896 -39 LINE"
);
},
{
closed = 1;
nodes = (
"313 0 LINE",
"569 490 LINE",
"413 490 LINE",
"246 146 LINE",
"279 146 LINE",
"165 490 LINE",
"7 490 LINE",
"182 0 LINE"
);
}
);
};
layerId = "E1B555A7-F4E1-459C-9C1A-AE952106EEF9";
paths = (
{
closed = 1;
nodes = (
"569 490 LINE",
"413 490 LINE",
"246 146 LINE",
"200 83 LINE",
"61 -180 LINE",
"219 -180 LINE"
);
},
{
closed = 1;
nodes = (
"279 146 LINE",
"165 490 LINE",
"7 490 LINE",
"196 -39 LINE"
);
}
);
width = 535;
}
);
leftKerningGroup = v;
rightKerningGroup = v;
unicode = 0079;
userData = {
com.typemytype.robofont.layerData = {
b = {
anchors = (
);
components = (
);
contours = (
{
points = (
{
segmentType = line;
smooth = 0;
x = 502;
y = 10;
},
{
segmentType = line;
smooth = 0;
x = 585;
y = 181;
},
{
segmentType = line;
smooth = 1;
x = 241;
y = 931;
},
{
smooth = 0;
x = 225;
y = 966;
},
{
smooth = 0;
x = 201;
y = 984;
},
{
segmentType = curve;
smooth = 1;
x = 171;
y = 984;
},
{
smooth = 0;
x = 117;
y = 984;
},
{
smooth = 0;
x = 64;
y = 936;
},
{
segmentType = curve;
smooth = 0;
x = 91;
y = 887;
}
);
},
{
points = (
{
segmentType = curve;
smooth = 1;
x = 365;
y = "-388";
},
{
smooth = 0;
x = 396;
y = "-388";
},
{
smooth = 0;
x = 424;
y = "-373";
},
{
segmentType = curve;
smooth = 1;
x = 442;
y = "-334";
},
{
segmentType = line;
smooth = 1;
x = 1009;
y = 888;
},
{
smooth = 0;
x = 1013;
y = 898;
},
{
smooth = 0;
x = 1016;
y = 908;
},
{
segmentType = curve;
smooth = 1;
x = 1016;
y = 918;
},
{
smooth = 0;
x = 1018;
y = 962;
},
{
smooth = 0;
x = 978;
y = 990;
},
{
segmentType = curve;
smooth = 1;
x = 938;
y = 990;
},
{
smooth = 0;
x = 910;
y = 990;
},
{
smooth = 0;
x = 883;
y = 977;
},
{
segmentType = curve;
smooth = 0;
x = 866;
y = 941;
},
{
segmentType = line;
smooth = 1;
x = 299;
y = "-286";
},
{
smooth = 0;
x = 272;
y = "-344";
},
{
smooth = 0;
x = 316;
y = "-388";
}
);
}
);
lib = {
};
name = y;
unicodes = (
);
width = 1029;
};
};
};
},
{
glyphname = z;
lastChange = "2017-11-28 09:38:30 +0000";
layers = (
{
anchors = (
{
name = bottom;
position = "{236, 0}";
},
{
name = top;
position = "{286, 495}";
}
);
background = {
paths = (
{
closed = 1;
nodes = (
"463 0 LINE",
"472 116 LINE",
"186 116 LINE",
"187 84 LINE",
"483 387 LINE",
"492 491 LINE",
"68 491 LINE",
"59 375 LINE",
"332 375 LINE",
"328 407 LINE",
"36 109 LINE",
"27 0 LINE"
);
}
);
};
layerId = "E1B555A7-F4E1-459C-9C1A-AE952106EEF9";
paths = (
{
closed = 1;
nodes = (
"463 0 LINE",
"472 116 LINE",
"186 116 LINE",
"191 84 LINE",
"483 387 LINE",
"492 491 LINE",
"68 491 LINE",
"59 375 LINE",
"332 375 LINE",
"323 407 LINE",
"36 109 LINE",
"27 0 LINE"
);
}
);
width = 515;
}
);
leftKerningGroup = z;
rightKerningGroup = z;
unicode = 007A;
},
{
glyphname = a.ss01;
lastChange = "2017-11-28 09:38:30 +0000";
layers = (
{
anchors = (
{
name = bottom;
position = "{288, 0}";
},
{
name = ogonek;
position = "{514, 10}";
},
{
name = top;
position = "{327, 495}";
}
);
background = {
paths = (
{
closed = 1;
nodes = (
"316 -8 OFFCURVE",
"376 27 OFFCURVE",
"404 84 CURVE",
"393 118 LINE",
"384 0 LINE",
"538 0 LINE",
"594 705 LINE",
"438 705 LINE",
"412 380 LINE",
"426 416 LINE",
"395 471 OFFCURVE",
"342 503 OFFCURVE",
"268 503 CURVE SMOOTH",
"128 503 OFFCURVE",
"33 390 OFFCURVE",
"33 228 CURVE SMOOTH",
"33 81 OFFCURVE",
"118 -8 OFFCURVE",
"242 -8 CURVE SMOOTH"
);
},
{
closed = 1;
nodes = (
"227 109 OFFCURVE",
"188 155 OFFCURVE",
"188 238 CURVE SMOOTH",
"188 329 OFFCURVE",
"230 386 OFFCURVE",
"300 386 CURVE SMOOTH",
"367 386 OFFCURVE",
"405 342 OFFCURVE",
"405 255 CURVE SMOOTH",
"405 167 OFFCURVE",
"363 109 OFFCURVE",
"295 109 CURVE SMOOTH"
);
}
);
};
layerId = "E1B555A7-F4E1-459C-9C1A-AE952106EEF9";
paths = (
{
closed = 1;
nodes = (
"316 -8 OFFCURVE",
"376 27 OFFCURVE",
"404 84 CURVE",
"392 98 LINE",
"384 0 LINE",
"538 0 LINE",
"577 491 LINE",
"423 491 LINE",
"415 391 LINE",
"426 416 LINE",
"395 471 OFFCURVE",
"342 503 OFFCURVE",
"268 503 CURVE SMOOTH",
"128 503 OFFCURVE",
"33 390 OFFCURVE",
"33 228 CURVE SMOOTH",
"33 81 OFFCURVE",
"118 -8 OFFCURVE",
"242 -8 CURVE SMOOTH"
);
},
{
closed = 1;
nodes = (
"227 109 OFFCURVE",
"188 155 OFFCURVE",
"188 238 CURVE SMOOTH",
"188 329 OFFCURVE",
"230 386 OFFCURVE",
"300 386 CURVE SMOOTH",
"367 386 OFFCURVE",
"405 342 OFFCURVE",
"405 255 CURVE SMOOTH",
"405 167 OFFCURVE",
"363 109 OFFCURVE",
"295 109 CURVE SMOOTH"
);
}
);
width = 615;
}
);
leftKerningGroup = o;
rightKerningGroup = u;
userData = {
anchors = (
);
b = {
};
com.typemytype.robofont.layerData = {
b = {
anchors = (
);
components = (
);
contours = (
);
lib = {
};
name = p;
unicodes = (
);
width = 1181;
};
};
components = (
);
contours = (
);
lib = {
};
name = p;
unicodes = (
);
width = 1207;
};
},
{
glyphname = aogonek.ss01;
lastChange = "2017-11-28 09:38:30 +0000";
layers = (
{
background = {
paths = (
{
closed = 1;
nodes = (
"316 -8 OFFCURVE",
"376 27 OFFCURVE",
"404 84 CURVE",
"392 98 LINE",
"384 0 LINE",
"538 0 LINE",
"577 491 LINE",
"423 491 LINE",
"415 391 LINE",
"426 416 LINE",
"395 471 OFFCURVE",
"342 503 OFFCURVE",
"268 503 CURVE SMOOTH",
"128 503 OFFCURVE",
"33 390 OFFCURVE",
"33 228 CURVE SMOOTH",
"33 81 OFFCURVE",
"118 -8 OFFCURVE",
"242 -8 CURVE SMOOTH"
);
},
{
closed = 1;
nodes = (
"227 109 OFFCURVE",
"188 155 OFFCURVE",
"188 238 CURVE SMOOTH",
"188 329 OFFCURVE",
"230 386 OFFCURVE",
"300 386 CURVE SMOOTH",
"367 386 OFFCURVE",
"405 342 OFFCURVE",
"405 255 CURVE SMOOTH",
"405 167 OFFCURVE",
"363 109 OFFCURVE",
"295 109 CURVE SMOOTH"
);
},
{
closed = 1;
nodes = (
"499 -197 OFFCURVE",
"531 -190 OFFCURVE",
"562 -177 CURVE",
"551 -105 LINE",
"529 -113 OFFCURVE",
"511 -117 OFFCURVE",
"494 -117 CURVE SMOOTH",
"462 -117 OFFCURVE",
"441 -99 OFFCURVE",
"441 -67 CURVE SMOOTH",
"441 -35 OFFCURVE",
"463 -5 OFFCURVE",
"516 10 CURVE",
"502 46 LINE",
"396 32 OFFCURVE",
"340 -21 OFFCURVE",
"340 -91 CURVE SMOOTH",
"340 -153 OFFCURVE",
"389 -197 OFFCURVE",
"467 -197 CURVE SMOOTH"
);
}
);
};
layerId = "E1B555A7-F4E1-459C-9C1A-AE952106EEF9";
paths = (
{
closed = 1;
nodes = (
"499 -197 OFFCURVE",
"531 -190 OFFCURVE",
"562 -177 CURVE",
"551 -105 LINE",
"529 -113 OFFCURVE",
"511 -117 OFFCURVE",
"494 -117 CURVE SMOOTH",
"462 -117 OFFCURVE",
"441 -99 OFFCURVE",
"441 -67 CURVE SMOOTH",
"441 -29 OFFCURVE",
"470 0 OFFCURVE",
"519 0 CURVE SMOOTH",
"538 0 LINE",
"577 491 LINE",
"423 491 LINE",
"415 391 LINE",
"426 416 LINE",
"395 471 OFFCURVE",
"342 503 OFFCURVE",
"268 503 CURVE SMOOTH",
"128 503 OFFCURVE",
"33 390 OFFCURVE",
"33 228 CURVE SMOOTH",
"33 81 OFFCURVE",
"118 -8 OFFCURVE",
"242 -8 CURVE SMOOTH",
"316 -8 OFFCURVE",
"376 27 OFFCURVE",
"404 84 CURVE",
"392 98 LINE",
"384 0 LINE",
"428 0 LINE",
"444 33 LINE",
"380 13 OFFCURVE",
"340 -34 OFFCURVE",
"340 -91 CURVE SMOOTH",
"340 -153 OFFCURVE",
"392 -197 OFFCURVE",
"467 -197 CURVE SMOOTH"
);
},
{
closed = 1;
nodes = (
"227 109 OFFCURVE",
"188 155 OFFCURVE",
"188 238 CURVE SMOOTH",
"188 329 OFFCURVE",
"230 386 OFFCURVE",
"300 386 CURVE SMOOTH",
"367 386 OFFCURVE",
"405 342 OFFCURVE",
"405 255 CURVE SMOOTH",
"405 167 OFFCURVE",
"363 109 OFFCURVE",
"295 109 CURVE SMOOTH"
);
}
);
width = 615;
}
);
leftKerningGroup = o;
rightKerningGroup = u;
userData = {
com.typemytype.robofont.layerData = {
b = {
anchors = (
);
components = (
);
contours = (
);
lib = {
};
name = aogonek;
unicodes = (
);
width = 1040;
};
};
};
},
{
glyphname = aringacute.ss01;
lastChange = "2017-11-28 09:38:30 +0000";
layers = (
{
background = {
paths = (
{
closed = 1;
nodes = (
"327 -8 OFFCURVE",
"396 32 OFFCURVE",
"423 96 CURVE",
"412 98 LINE",
"404 0 LINE",
"558 0 LINE",
"597 491 LINE",
"443 491 LINE",
"435 391 LINE",
"446 399 LINE",
"429 463 OFFCURVE",
"368 503 OFFCURVE",
"290 503 CURVE SMOOTH",
"163 503 OFFCURVE",
"64 399 OFFCURVE",
"52 245 CURVE SMOOTH",
"40 91 OFFCURVE",
"121 -8 OFFCURVE",
"249 -8 CURVE SMOOTH"
);
},
{
closed = 1;
nodes = (
"236 110 OFFCURVE",
"200 158 OFFCURVE",
"207 245 CURVE SMOOTH",
"214 334 OFFCURVE",
"258 385 OFFCURVE",
"326 385 CURVE SMOOTH",
"395 385 OFFCURVE",
"430 336 OFFCURVE",
"423 247 CURVE SMOOTH",
"417 159 OFFCURVE",
"374 110 OFFCURVE",
"305 110 CURVE SMOOTH"
);
},
{
closed = 1;
nodes = (
"411 550 OFFCURVE",
"464 597 OFFCURVE",
"469 658 CURVE SMOOTH",
"474 719 OFFCURVE",
"428 766 OFFCURVE",
"367 766 CURVE SMOOTH",
"306 766 OFFCURVE",
"254 719 OFFCURVE",
"249 658 CURVE SMOOTH",
"244 597 OFFCURVE",
"289 550 OFFCURVE",
"350 550 CURVE SMOOTH"
);
},
{
closed = 1;
nodes = (
"330 613 OFFCURVE",
"314 633 OFFCURVE",
"316 658 CURVE SMOOTH",
"318 683 OFFCURVE",
"337 703 OFFCURVE",
"362 703 CURVE SMOOTH",
"387 703 OFFCURVE",
"404 683 OFFCURVE",
"402 658 CURVE SMOOTH",
"400 633 OFFCURVE",
"380 613 OFFCURVE",
"355 613 CURVE SMOOTH"
);
},
{
closed = 1;
nodes = (
"626 854 LINE",
"483 854 LINE",
"395 739 LINE",
"455 694 LINE"
);
}
);
};
layerId = "E1B555A7-F4E1-459C-9C1A-AE952106EEF9";
paths = (
{
closed = 1;
nodes = (
"316 -8 OFFCURVE",
"376 27 OFFCURVE",
"404 84 CURVE",
"392 98 LINE",
"384 0 LINE",
"538 0 LINE",
"577 491 LINE",
"423 491 LINE",
"415 391 LINE",
"426 416 LINE",
"395 471 OFFCURVE",
"342 503 OFFCURVE",
"268 503 CURVE SMOOTH",
"128 503 OFFCURVE",
"33 390 OFFCURVE",
"33 228 CURVE SMOOTH",
"33 81 OFFCURVE",
"118 -8 OFFCURVE",
"242 -8 CURVE SMOOTH"
);
},
{
closed = 1;
nodes = (
"227 109 OFFCURVE",
"188 155 OFFCURVE",
"188 238 CURVE SMOOTH",
"188 329 OFFCURVE",
"230 386 OFFCURVE",
"300 386 CURVE SMOOTH",
"367 386 OFFCURVE",
"405 342 OFFCURVE",
"405 255 CURVE SMOOTH",
"405 167 OFFCURVE",
"363 109 OFFCURVE",
"295 109 CURVE SMOOTH"
);
},
{
closed = 1;
nodes = (
"392 550 OFFCURVE",
"445 597 OFFCURVE",
"450 658 CURVE SMOOTH",
"455 719 OFFCURVE",
"409 766 OFFCURVE",
"348 766 CURVE SMOOTH",
"287 766 OFFCURVE",
"235 719 OFFCURVE",
"230 658 CURVE SMOOTH",
"225 597 OFFCURVE",
"270 550 OFFCURVE",
"331 550 CURVE SMOOTH"
);
},
{
closed = 1;
nodes = (
"311 613 OFFCURVE",
"295 633 OFFCURVE",
"297 658 CURVE SMOOTH",
"299 683 OFFCURVE",
"318 703 OFFCURVE",
"343 703 CURVE SMOOTH",
"368 703 OFFCURVE",
"385 683 OFFCURVE",
"383 658 CURVE SMOOTH",
"381 633 OFFCURVE",
"361 613 OFFCURVE",
"336 613 CURVE SMOOTH"
);
},
{
closed = 1;
nodes = (
"611 854 LINE",
"460 854 LINE",
"376 739 LINE",
"436 694 LINE"
);
}
);
width = 615;
}
);
leftKerningGroup = o;
rightKerningGroup = u;
},
{
glyphname = fi;
lastChange = "2017-11-28 09:38:30 +0000";
layers = (
{
background = {
paths = (
{
closed = 1;
nodes = (
"573 0 LINE",
"612 491 LINE",
"24 491 LINE",
"15 375 LINE",
"447 375 LINE",
"417 0 LINE"
);
},
{
closed = 1;
nodes = (
"234 0 LINE",
"274 512 LINE SMOOTH",
"278 562 OFFCURVE",
"299 591 OFFCURVE",
"375 594 CURVE SMOOTH",
"422 596 LINE",
"424 710 LINE",
"378 708 LINE SMOOTH",
"215 701 OFFCURVE",
"128 630 OFFCURVE",
"116 480 CURVE SMOOTH",
"78 0 LINE"
);
},
{
closed = 1;
nodes = (
"625 583 LINE",
"636 730 LINE",
"468 730 LINE",
"457 583 LINE"
);
}
);
};
layerId = "E1B555A7-F4E1-459C-9C1A-AE952106EEF9";
paths = (
{
closed = 1;
nodes = (
"573 0 LINE",
"612 491 LINE",
"24 491 LINE",
"15 375 LINE",
"447 375 LINE",
"417 0 LINE"
);
},
{
closed = 1;
nodes = (
"234 0 LINE",
"275 515 LINE SMOOTH",
"279 571 OFFCURVE",
"308 590 OFFCURVE",
"365 593 CURVE SMOOTH",
"422 596 LINE",
"424 710 LINE",
"372 707 LINE SMOOTH",
"210 698 OFFCURVE",
"128 632 OFFCURVE",
"118 504 CURVE SMOOTH",
"78 0 LINE"
);
},
{
closed = 1;
nodes = (
"625 583 LINE",
"636 730 LINE",
"468 730 LINE",
"457 583 LINE"
);
}
);
width = 649;
}
);
leftKerningGroup = f;
rightKerningGroup = i;
unicode = FB01;
},
{
glyphname = ordfeminine;
lastChange = "2017-11-28 09:38:30 +0000";
layers = (
{
background = {
paths = (
{
closed = 1;
nodes = (
"169 401 OFFCURVE",
"203 421 OFFCURVE",
"219 461 CURVE",
"218 471 LINE",
"213 406 LINE",
"333 406 LINE",
"346 570 LINE SMOOTH",
"353 666 OFFCURVE",
"309 710 OFFCURVE",
"208 710 CURVE SMOOTH",
"157 710 OFFCURVE",
"108 700 OFFCURVE",
"73 684 CURVE",
"89 596 LINE",
"120 610 OFFCURVE",
"155 618 OFFCURVE",
"185 618 CURVE SMOOTH",
"217 618 OFFCURVE",
"227 610 OFFCURVE",
"226 592 CURVE SMOOTH",
"220 520 LINE SMOOTH",
"218 495 OFFCURVE",
"198 482 OFFCURVE",
"175 482 CURVE SMOOTH",
"157 482 OFFCURVE",
"149 491 OFFCURVE",
"150 502 CURVE SMOOTH",
"151 515 OFFCURVE",
"161 526 OFFCURVE",
"191 526 CURVE SMOOTH",
"233 526 LINE",
"238 582 LINE",
"202 582 LINE SMOOTH",
"82 582 OFFCURVE",
"40 553 OFFCURVE",
"35 497 CURVE SMOOTH",
"31 449 OFFCURVE",
"69 401 OFFCURVE",
"130 401 CURVE SMOOTH"
);
}
);
};
layerId = "E1B555A7-F4E1-459C-9C1A-AE952106EEF9";
paths = (
{
closed = 1;
nodes = (
"171 401 OFFCURVE",
"202 418 OFFCURVE",
"219 461 CURVE",
"218 471 LINE",
"213 406 LINE",
"333 406 LINE",
"345 559 LINE SMOOTH",
"353 658 OFFCURVE",
"315 710 OFFCURVE",
"208 710 CURVE SMOOTH",
"159 710 OFFCURVE",
"110 700 OFFCURVE",
"73 684 CURVE",
"89 596 LINE",
"118 610 OFFCURVE",
"155 618 OFFCURVE",
"185 618 CURVE SMOOTH",
"216 618 OFFCURVE",
"227 611 OFFCURVE",
"226 592 CURVE SMOOTH",
"220 520 LINE SMOOTH",
"218 497 OFFCURVE",
"200 482 OFFCURVE",
"178 482 CURVE SMOOTH",
"160 482 OFFCURVE",
"150 490 OFFCURVE",
"150 503 CURVE SMOOTH",
"150 518 OFFCURVE",
"164 526 OFFCURVE",
"187 526 CURVE SMOOTH",
"233 526 LINE",
"238 582 LINE",
"195 582 LINE SMOOTH",
"85 582 OFFCURVE",
"35 556 OFFCURVE",
"35 493 CURVE SMOOTH",
"35 444 OFFCURVE",
"76 401 OFFCURVE",
"130 401 CURVE SMOOTH"
);
}
);
width = 340;
}
);
leftKerningGroup = ord;
rightKerningGroup = ord;
unicode = 00AA;
},
{
glyphname = ordmasculine;
lastChange = "2017-11-28 09:38:30 +0000";
layers = (
{
background = {
paths = (
{
closed = 1;
nodes = (
"321 401 OFFCURVE",
"379 474 OFFCURVE",
"386 556 CURVE SMOOTH",
"392 637 OFFCURVE",
"345 710 OFFCURVE",
"225 710 CURVE SMOOTH",
"105 710 OFFCURVE",
"46 637 OFFCURVE",
"40 556 CURVE SMOOTH",
"33 474 OFFCURVE",
"81 401 OFFCURVE",
"201 401 CURVE SMOOTH"
);
},
{
closed = 1;
nodes = (
"179 500 OFFCURVE",
"163 521 OFFCURVE",
"166 556 CURVE SMOOTH",
"169 594 OFFCURVE",
"188 611 OFFCURVE",
"217 611 CURVE SMOOTH",
"247 611 OFFCURVE",
"265 594 OFFCURVE",
"262 556 CURVE SMOOTH",
"259 521 OFFCURVE",
"238 500 OFFCURVE",
"208 500 CURVE SMOOTH"
);
}
);
};
layerId = "E1B555A7-F4E1-459C-9C1A-AE952106EEF9";
paths = (
{
closed = 1;
nodes = (
"312 401 OFFCURVE",
"387 464 OFFCURVE",
"387 567 CURVE SMOOTH",
"387 653 OFFCURVE",
"324 710 OFFCURVE",
"222 710 CURVE SMOOTH",
"112 710 OFFCURVE",
"39 647 OFFCURVE",
"39 543 CURVE SMOOTH",
"39 458 OFFCURVE",
"102 401 OFFCURVE",
"204 401 CURVE SMOOTH"
);
},
{
closed = 1;
nodes = (
"183 500 OFFCURVE",
"166 520 OFFCURVE",
"166 550 CURVE SMOOTH",
"166 589 OFFCURVE",
"184 611 OFFCURVE",
"217 611 CURVE SMOOTH",
"244 611 OFFCURVE",
"262 593 OFFCURVE",
"262 562 CURVE SMOOTH",
"262 524 OFFCURVE",
"242 500 OFFCURVE",
"210 500 CURVE SMOOTH"
);
}
);
width = 376;
}
);
leftKerningGroup = ord;
rightKerningGroup = ord;
unicode = 00BA;
},
{
color = 9;
export = 0;
glyphname = ordfeminine.bold;
lastChange = "2017-11-28 09:38:30 +0000";
layers = (
{
layerId = "E1B555A7-F4E1-459C-9C1A-AE952106EEF9";
paths = (
{
closed = 1;
nodes = (
"176 402 OFFCURVE",
"207 421 OFFCURVE",
"224 464 CURVE",
"222 472 LINE",
"217 407 LINE",
"326 407 LINE",
"339 565 LINE SMOOTH",
"346 660 OFFCURVE",
"308 710 OFFCURVE",
"207 710 CURVE SMOOTH",
"159 710 OFFCURVE",
"111 700 OFFCURVE",
"74 682 CURVE",
"90 602 LINE",
"120 618 OFFCURVE",
"156 626 OFFCURVE",
"187 626 CURVE SMOOTH",
"220 626 OFFCURVE",
"232 617 OFFCURVE",
"231 593 CURVE SMOOTH",
"225 522 LINE SMOOTH",
"222 495 OFFCURVE",
"202 477 OFFCURVE",
"175 477 CURVE SMOOTH",
"155 477 OFFCURVE",
"143 487 OFFCURVE",
"143 502 CURVE SMOOTH",
"143 521 OFFCURVE",
"160 530 OFFCURVE",
"195 530 CURVE SMOOTH",
"237 530 LINE",
"242 582 LINE",
"201 582 LINE SMOOTH",
"88 582 OFFCURVE",
"38 556 OFFCURVE",
"38 493 CURVE SMOOTH",
"38 444 OFFCURVE",
"79 402 OFFCURVE",
"134 402 CURVE SMOOTH"
);
}
);
width = 338;
}
);
leftKerningGroup = ord;
rightKerningGroup = ord;
},
